<?xml version="1.0" encoding="UTF-8" standalone="no"?>
<!-- Created with Inkscape (http://www.inkscape.org/) -->
<svg
   xmlns:dc="http://purl.org/dc/elements/1.1/"
   xmlns:cc="http://creativecommons.org/ns#"
   xmlns:rdf="http://www.w3.org/1999/02/22-rdf-syntax-ns#"
   xmlns:svg="http://www.w3.org/2000/svg"
   xmlns="http://www.w3.org/2000/svg"
   xmlns:sodipodi="http://sodipodi.sourceforge.net/DTD/sodipodi-0.dtd"
   xmlns:inkscape="http://www.inkscape.org/namespaces/inkscape"
   version="1.0"
   width="300"
   height="300"
   id="svg2728"
   sodipodi:version="0.32"
   inkscape:version="0.46"
   sodipodi:docname="Wikibooks_simple_book_blue_beige_notext.svg"
   inkscape:output_extension="org.inkscape.output.svg.inkscape">
  <metadata
     id="metadata2399">
    <rdf:RDF>
      <cc:Work
         rdf:about="">
        <dc:format>image/svg+xml</dc:format>
        <dc:type
           rdf:resource="http://purl.org/dc/dcmitype/StillImage" />
      </cc:Work>
    </rdf:RDF>
  </metadata>
  <sodipodi:namedview
     inkscape:window-height="662"
     inkscape:window-width="954"
     inkscape:pageshadow="2"
     inkscape:pageopacity="0.0"
     guidetolerance="10.0"
     gridtolerance="10.0"
     objecttolerance="10.0"
     borderopacity="1.0"
     bordercolor="#666666"
     pagecolor="#ffffff"
     id="base"
     showgrid="false"
     inkscape:zoom="1.1675"
     inkscape:cx="94.646681"
     inkscape:cy="200"
     inkscape:window-x="154"
     inkscape:window-y="203"
     inkscape:current-layer="svg2728" />
  <defs
     id="defs2731">
    <inkscape:perspective
       sodipodi:type="inkscape:persp3d"
       inkscape:vp_x="0 : 200 : 1"
       inkscape:vp_y="0 : 1000 : 0"
       inkscape:vp_z="400 : 200 : 1"
       inkscape:persp3d-origin="200 : 133.33333 : 1"
       id="perspective2401" />
  </defs>
  <g
     id="layer1"
     transform="translate(-49.979599,-16.0625)" />
  <g
     id="g3299"
     transform="translate(-50.000001,-12.4375)">
    <path
       d="M 191.65664,115.97593 C 196.93351,182.00184 208.45394,245.91983 242.85479,307.46513 L 255.86467,307.56221 L 338.15581,234.14292 L 259.72068,35.943307 L 203.18059,89.951746 L 191.65664,115.97593 z"
       style="fill:#fdfcf8;fill-opacity:1;fill-rule:evenodd;stroke:none;stroke-width:1px;stroke-linecap:butt;stroke-linejoin:miter;stroke-opacity:1"
       id="path3297" />
    <path
       d="M 125.84082,116.04509 C 131.11769,182.071 144.61911,246.8316 179.01996,308.3769 L 199.35471,308.55962 L 261.32293,230.84125 L 193.90486,36.012472 L 137.36477,90.020911 L 125.84082,116.04509 z"
       style="fill:#f4eed7;fill-rule:evenodd;stroke:none;stroke-width:1px;stroke-linecap:butt;stroke-linejoin:miter;stroke-opacity:1"
       id="path3214" />
    <path
       d="M 50.218883,114.63177 C 55.595535,183.91551 77.233973,245.97178 102.67801,306.33668 L 129.48015,306.00572 L 199.88087,225.96804 L 118.28293,34.599156 L 61.742841,88.607595 L 50.218883,114.63177 z"
       style="fill:#e9ddaf;fill-rule:evenodd;stroke:none;stroke-width:1px;stroke-linecap:butt;stroke-linejoin:miter;stroke-opacity:1"
       id="path2238" />
    <g
       transform="translate(1.82723,0)"
       id="layer2">
      <path
         d="M 261.5,16.5 C 234.31308,42.801966 207.4375,68.875 207.4375,68.875 C 207.4375,68.875 217.09375,88.53125 217.09375,88.53125 C 230.18732,75.550025 243.35503,64.133911 255.90625,51.4375 C 282.33951,109.4727 300.35033,156.24917 322.50468,218.08448 C 329.75739,238.17246 328.27859,239.07126 310.94218,249.92823 C 283.08742,263.77995 274.26937,272.86547 241.0711,308.1875 L 263.78985,308.1875 C 291.54329,283.09599 301.84538,274.24081 336.59843,255.92823 C 348.89232,248.83035 350.578,239.86966 345.53593,225.92823 C 329.27475,180.73146 294.04485,83.322614 261.5,16.5 z"
         style="fill:#5f96d3;fill-opacity:1"
         id="path3272" />
      <path
         d="M 190.625,17.125 C 170.73743,30.549352 155.39633,49.869448 138.09375,66.4375 C 138.09375,66.4375 145.1875,89.0625 145.1875,89.0625 C 158.72867,78.391834 170.51307,65.526043 182.6875,53.34375 L 248.34375,218.03125 C 252.12949,229.18194 246.16733,239.10365 234.1875,249.90625 C 219.83826,261.43896 190.29493,288.32681 176.90625,308.8125 L 197.28125,308.8125 C 218.6659,286.84657 222.52645,283.86504 246.875,262.78125 C 263.22134,246.10281 277.989,237.56053 270.28125,216.1875 L 190.625,17.125 z"
         style="fill:#2a62a1;fill-opacity:1;fill-rule:evenodd;stroke:none;stroke-width:22;stroke-linecap:round;stroke-linejoin:miter;stroke-miterlimit:4;stroke-dasharray:none;stroke-opacity:1"
         id="path3138" />
      <path
         d="M 123.5,16.0625 C 118.19865,17.841698 113.78789,21.260515 109.65625,24.875 C 53.567692,78.847012 51.3125,81.125 51.3125,81.125 C 48.361035,83.867742 48.114516,87.87735 48.15625,91.90625 L 48.391654,114.63177 C 48.391654,114.63177 74.295878,89.450054 112.96875,52.21875 C 133.78717,106.45643 155.51427,160.40524 176.90625,214.4375 C 179.83575,222.60083 172.82402,229.2909 163.9375,238.21875 C 151.66395,250.19233 125.99284,274.84011 99.71875,307.75 L 126.0625,307.75 C 126.0625,307.75 189.37499,238.3125 189.375,238.3125 C 195.39428,230.03457 202.87819,221.9413 199.71875,214.4375 C 199.71875,214.4375 123.5,16.062501 123.5,16.0625 z"
         style="fill:#15304f;fill-opacity:1;fill-rule:evenodd;stroke:none;stroke-width:22;stroke-linecap:round;stroke-linejoin:miter;stroke-miterlimit:4;stroke-dasharray:none;stroke-opacity:1"
         id="path3136" />
    </g>
  </g>
</svg>
