<?xml version="1.0" encoding="UTF-8" standalone="no"?>
<!-- Created with Inkscape (http://www.inkscape.org/) -->

<svg
   xmlns:dc="http://purl.org/dc/elements/1.1/"
   xmlns:cc="http://creativecommons.org/ns#"
   xmlns:rdf="http://www.w3.org/1999/02/22-rdf-syntax-ns#"
   xmlns:svg="http://www.w3.org/2000/svg"
   xmlns="http://www.w3.org/2000/svg"
   xmlns:xlink="http://www.w3.org/1999/xlink"
   xmlns:sodipodi="http://sodipodi.sourceforge.net/DTD/sodipodi-0.dtd"
   xmlns:inkscape="http://www.inkscape.org/namespaces/inkscape"
   width="391"
   height="391"
   id="svg2047"
   sodipodi:version="0.32"
   inkscape:version="0.48.0 r9654"
   version="1.0"
   sodipodi:docname="WiktionaryEn_-_DP_Derivative.svg">
  <defs
     id="defs3">
    <linearGradient
       id="linearGradient3525">
      <stop
         style="stop-color:#006;stop-opacity:1;"
         offset="0"
         id="stop3527" />
      <stop
         style="stop-color:#00004f;stop-opacity:1;"
         offset="1"
         id="stop3529" />
    </linearGradient>
    <linearGradient
       id="linearGradient3446">
      <stop
         style="stop-color:#f4e3ca;stop-opacity:1;"
         offset="0"
         id="stop3448" />
      <stop
         style="stop-color:#e9cc9d;stop-opacity:1;"
         offset="1"
         id="stop3450" />
    </linearGradient>
    <linearGradient
       id="linearGradient3033">
      <stop
         style="stop-color:#557567;stop-opacity:1;"
         offset="0"
         id="stop3035" />
      <stop
         style="stop-color:#002d17;stop-opacity:1;"
         offset="1"
         id="stop3037" />
    </linearGradient>
    <linearGradient
       id="linearGradient3025">
      <stop
         style="stop-color:#4aaf6d;stop-opacity:1;"
         offset="0"
         id="stop3027" />
      <stop
         style="stop-color:#6af297;stop-opacity:1;"
         offset="1"
         id="stop3029" />
    </linearGradient>
    <linearGradient
       id="linearGradient2959">
      <stop
         id="stop2961"
         offset="0"
         style="stop-color:#5500af;stop-opacity:1;" />
      <stop
         id="stop2963"
         offset="1"
         style="stop-color:#000052;stop-opacity:1;" />
    </linearGradient>
    <linearGradient
       id="linearGradient2951">
      <stop
         id="stop2953"
         offset="0"
         style="stop-color:#4aafff;stop-opacity:1;" />
      <stop
         id="stop2955"
         offset="1"
         style="stop-color:#7fe5e5;stop-opacity:1;" />
    </linearGradient>
    <linearGradient
       id="linearGradient2925">
      <stop
         style="stop-color:#fa2f52;stop-opacity:1;"
         offset="0"
         id="stop2927" />
      <stop
         style="stop-color:#f57d5a;stop-opacity:1;"
         offset="1"
         id="stop2929" />
    </linearGradient>
    <linearGradient
       id="linearGradient2917">
      <stop
         style="stop-color:#d40000;stop-opacity:1;"
         offset="0"
         id="stop2919" />
      <stop
         style="stop-color:#570000;stop-opacity:1;"
         offset="1"
         id="stop2921" />
    </linearGradient>
    <linearGradient
       id="linearGradient1977">
      <stop
         style="stop-color:#efefbd;stop-opacity:1;"
         offset="0"
         id="stop1979" />
      <stop
         style="stop-color:#d2c595;stop-opacity:1;"
         offset="1"
         id="stop1981" />
    </linearGradient>
    <linearGradient
       inkscape:collect="always"
       xlink:href="#linearGradient2917"
       id="linearGradient2923"
       x1="27.14286"
       y1="122.6041"
       x2="171.42857"
       y2="125.82186"
       gradientUnits="userSpaceOnUse" />
    <linearGradient
       inkscape:collect="always"
       xlink:href="#linearGradient2925"
       id="linearGradient2931"
       x1="52.857136"
       y1="62.271225"
       x2="131.42856"
       y2="150.75945"
       gradientUnits="userSpaceOnUse" />
    <linearGradient
       inkscape:collect="always"
       xlink:href="#linearGradient2917"
       id="linearGradient2947"
       gradientUnits="userSpaceOnUse"
       x1="27.14286"
       y1="122.6041"
       x2="171.42857"
       y2="125.82186" />
    <linearGradient
       inkscape:collect="always"
       xlink:href="#linearGradient2951"
       id="linearGradient2949"
       gradientUnits="userSpaceOnUse"
       x1="52.857136"
       y1="62.271225"
       x2="131.42856"
       y2="150.75945" />
    <linearGradient
       inkscape:collect="always"
       xlink:href="#linearGradient2959"
       id="linearGradient2965"
       gradientUnits="userSpaceOnUse"
       x1="27.14286"
       y1="122.6041"
       x2="171.42857"
       y2="125.82186" />
    <linearGradient
       inkscape:collect="always"
       xlink:href="#linearGradient2959"
       id="linearGradient2971"
       gradientUnits="userSpaceOnUse"
       x1="27.14286"
       y1="122.6041"
       x2="171.42857"
       y2="125.82186" />
    <linearGradient
       inkscape:collect="always"
       xlink:href="#linearGradient2951"
       id="linearGradient2973"
       gradientUnits="userSpaceOnUse"
       x1="52.857136"
       y1="62.271225"
       x2="131.42856"
       y2="150.75945" />
    <linearGradient
       inkscape:collect="always"
       xlink:href="#linearGradient2959"
       id="linearGradient3019"
       gradientUnits="userSpaceOnUse"
       x1="27.14286"
       y1="122.6041"
       x2="171.42857"
       y2="125.82186" />
    <linearGradient
       inkscape:collect="always"
       xlink:href="#linearGradient2951"
       id="linearGradient3021"
       gradientUnits="userSpaceOnUse"
       x1="52.857136"
       y1="62.271225"
       x2="131.42856"
       y2="150.75945" />
    <linearGradient
       inkscape:collect="always"
       xlink:href="#linearGradient3525"
       id="linearGradient3071"
       x1="366.08591"
       y1="184.23257"
       x2="270.37161"
       y2="86.036026"
       gradientUnits="userSpaceOnUse"
       gradientTransform="matrix(0.60574187,0.57367547,-0.60180197,0.58532443,218.27612,-48.924615)" />
    <linearGradient
       inkscape:collect="always"
       xlink:href="#linearGradient3525"
       id="linearGradient3087"
       x1="173.22878"
       y1="524.23254"
       x2="114.65734"
       y2="451.37543"
       gradientUnits="userSpaceOnUse"
       gradientTransform="matrix(0.57853,0.353675,-0.35104,0.582872,520.7052,-207.5038)" />
    <linearGradient
       inkscape:collect="always"
       xlink:href="#linearGradient3525"
       id="linearGradient3101"
       x1="196.08591"
       y1="365.66113"
       x2="95.290253"
       y2="255.5688"
       gradientUnits="userSpaceOnUse"
       gradientTransform="matrix(0.7736658,0.16974369,-0.16570656,0.75526629,380.2078,63.662102)" />
    <linearGradient
       inkscape:collect="always"
       xlink:href="#linearGradient2917"
       id="linearGradient3103"
       x1="370.37161"
       y1="344.23257"
       x2="283.22876"
       y2="259.17615"
       gradientUnits="userSpaceOnUse"
       gradientTransform="matrix(0.77393503,0.37892007,-0.36396188,0.80274954,166.95006,-24.472979)" />
    <linearGradient
       inkscape:collect="always"
       xlink:href="#linearGradient3525"
       id="linearGradient3117"
       x1="536.08594"
       y1="521.37543"
       x2="439.24854"
       y2="434.30499"
       gradientUnits="userSpaceOnUse"
       gradientTransform="matrix(0.61372888,0.7123935,-0.62794046,0.62990354,216.28274,-186.6321)" />
    <linearGradient
       inkscape:collect="always"
       xlink:href="#linearGradient3525"
       id="linearGradient3125"
       x1="533.22876"
       y1="185.66115"
       x2="454.65735"
       y2="89.025398"
       gradientUnits="userSpaceOnUse"
       gradientTransform="matrix(0.8227507,0.07405453,-0.07478939,0.81466773,-220.03428,182.86136)" />
    <linearGradient
       inkscape:collect="always"
       xlink:href="#linearGradient3446"
       id="linearGradient3452"
       x1="715.71844"
       y1="299.56409"
       x2="650.84174"
       y2="230.34946"
       gradientUnits="userSpaceOnUse"
       gradientTransform="translate(-476.4724,-112.8383)" />
    <linearGradient
       inkscape:collect="always"
       xlink:href="#linearGradient3446"
       id="linearGradient3460"
       x1="791.06329"
       y1="-355.92725"
       x2="723.2616"
       y2="-358.38074"
       gradientUnits="userSpaceOnUse"
       gradientTransform="translate(-419.3421,258.595)" />
    <linearGradient
       inkscape:collect="always"
       xlink:href="#linearGradient3446"
       id="linearGradient3474"
       x1="175.47467"
       y1="955.26855"
       x2="218.35574"
       y2="880.65918"
       gradientUnits="userSpaceOnUse"
       gradientTransform="matrix(0.96238222,0,0,1.1627732,-162.72333,-611.57961)" />
    <linearGradient
       inkscape:collect="always"
       xlink:href="#linearGradient3446"
       id="linearGradient3482"
       x1="758.90216"
       y1="200.78854"
       x2="693.67474"
       y2="145.09717"
       gradientUnits="userSpaceOnUse"
       gradientTransform="translate(-490.353,22.1016)" />
    <linearGradient
       inkscape:collect="always"
       xlink:href="#linearGradient3446"
       id="linearGradient3490"
       x1="870.85938"
       y1="-140.09358"
       x2="795.29053"
       y2="-169.7764"
       gradientUnits="userSpaceOnUse"
       gradientTransform="translate(-450.4099,198.7519)" />
    <linearGradient
       inkscape:collect="always"
       xlink:href="#linearGradient3446"
       id="linearGradient3498"
       x1="965.19623"
       y1="159.7126"
       x2="901.40399"
       y2="103.7599"
       gradientUnits="userSpaceOnUse"
       gradientTransform="translate(-490.3612,21.8953)" />
    <linearGradient
       inkscape:collect="always"
       xlink:href="#linearGradient3446"
       id="linearGradient3506"
       x1="412.31854"
       y1="743.88672"
       x2="388.38828"
       y2="683.20331"
       gradientUnits="userSpaceOnUse"
       gradientTransform="translate(-379.7777,-307.2103)" />
    <linearGradient
       inkscape:collect="always"
       xlink:href="#linearGradient3446"
       id="linearGradient3514"
       x1="805.99457"
       y1="514.12738"
       x2="741.84326"
       y2="450.75146"
       gradientUnits="userSpaceOnUse"
       gradientTransform="translate(-476.4724,-112.8383)" />
    <linearGradient
       inkscape:collect="always"
       xlink:href="#linearGradient3446"
       id="linearGradient3522"
       x1="974.9718"
       y1="357.18353"
       x2="909.49103"
       y2="305.17203"
       gradientUnits="userSpaceOnUse"
       gradientTransform="translate(-489.4263,-30.47642)" />
    <linearGradient
       inkscape:collect="always"
       xlink:href="#linearGradient3525"
       id="linearGradient3531"
       x1="904.65735"
       y1="359.94687"
       x2="947.51447"
       y2="414.23257"
       gradientUnits="userSpaceOnUse"
       gradientTransform="matrix(1.0819555,-0.05009807,0.05009807,1.0819555,-552.74554,83.539145)" />
    <linearGradient
       inkscape:collect="always"
       xlink:href="#linearGradient3525"
       id="linearGradient3106"
       x1="1090.1083"
       y1="429.67673"
       x2="897.16919"
       y2="230.67667"
       gradientUnits="userSpaceOnUse"
       gradientTransform="matrix(0.34787821,0,0,0.36700313,1.5808745,350.9002)" />
    <linearGradient
       inkscape:collect="always"
       xlink:href="#linearGradient3525"
       id="linearGradient4929"
       x1="-190.76511"
       y1="284.21475"
       x2="-514.01392"
       y2="-144.08994"
       gradientUnits="userSpaceOnUse"
       gradientTransform="matrix(0.13829675,-0.048054,0.04745928,0.1442309,245.51556,176.36718)" />
    <linearGradient
       inkscape:collect="always"
       xlink:href="#linearGradient3525"
       id="linearGradient1955"
       gradientUnits="userSpaceOnUse"
       gradientTransform="matrix(5.542162,3.319805,-4.164453,6.008209,1939.229,-1890.395)"
       x1="24.404194"
       y1="365.39426"
       x2="14.581494"
       y2="357.17325" />
    <linearGradient
       inkscape:collect="always"
       xlink:href="#linearGradient3525"
       id="linearGradient2865"
       gradientUnits="userSpaceOnUse"
       x1="24.404194"
       y1="365.39426"
       x2="14.581494"
       y2="357.17325"
       gradientTransform="matrix(6.9078099,4.1378404,-5.1906187,7.4886958,2196.1609,-2579.337)" />
  </defs>
  <sodipodi:namedview
     inkscape:document-units="mm"
     id="base"
     pagecolor="#ffffff"
     bordercolor="#666666"
     borderopacity="1.0"
     inkscape:pageopacity="0.0"
     inkscape:pageshadow="2"
     inkscape:zoom="1"
     inkscape:cx="210.07301"
     inkscape:cy="256.14318"
     inkscape:current-layer="layer1"
     inkscape:window-width="1254"
     inkscape:window-height="914"
     inkscape:window-x="92"
     inkscape:window-y="22"
     showguides="true"
     inkscape:guide-bbox="true"
     showgrid="false"
     inkscape:window-maximized="0" />
  <metadata
     id="metadata4">
    <rdf:RDF>
      <cc:Work
         rdf:about="">
        <dc:format>image/svg+xml</dc:format>
        <dc:type
           rdf:resource="http://purl.org/dc/dcmitype/StillImage" />
      </cc:Work>
    </rdf:RDF>
  </metadata>
  <g
     inkscape:label="Layer 1"
     inkscape:groupmode="layer"
     id="layer1"
     transform="translate(-128.4431,-143.73258)">
    <path
       style="font-size:8.35136795px;font-style:normal;font-variant:normal;font-weight:normal;font-stretch:normal;text-align:start;line-height:125%;writing-mode:lr-tb;text-anchor:start;fill:url(#linearGradient3531);fill-opacity:1;stroke:#000000;stroke-width:1.04430223;stroke-miterlimit:4;stroke-opacity:1;font-family:Times New Roman"
       d="m 475.12641,495.88103 -34.45435,-2.02881 c -0.81499,-7.06644 -1.77176,-13.41199 -2.87046,-19.03665 -1.54434,-8.06627 -2.18206,-14.59823 -1.91302,-19.5955 0.36441,-6.76901 1.53571,-12.82964 3.51391,-18.18209 -5.0457,-1.98322 -7.44755,-5.2237 -7.20542,-9.72131 0.22989,-4.27037 1.46375,-8.04873 3.70175,-11.335 l 1.66417,0.0979 c 0.32031,1.70517 0.89368,2.92381 1.71989,3.65594 0.82621,0.73246 2.59881,1.4975 5.31758,2.29562 4.05762,1.19601 5.92264,4.83784 5.59491,10.92537 -0.0832,1.5446 -0.27252,2.7641 -0.56795,3.658 -2.68105,0.79936 -5.13117,1.13353 -7.35002,1.00288 -1.19705,4.62363 -1.95082,9.82018 -2.26141,15.58967 -0.39867,7.40521 1.50772,16.40443 5.71902,26.9975 l 1.91433,0.0444 c 6.19973,-11.02846 11.89983,-25.02576 17.10021,-41.99206 -4.98273,-2.38974 -7.35181,-5.85607 -7.10723,-10.39916 0.21032,-3.90688 1.44763,-7.36606 3.71207,-10.37731 l 1.66417,0.0979 c 0.35607,2.57314 1.42466,4.16277 3.20582,4.76889 l 3.83164,1.18269 c 4.09388,1.28931 6.00008,4.54617 5.719,9.77057 -0.10042,1.86262 -0.37214,3.4645 -0.81521,4.80552 -1.88339,0.5273 -4.20163,0.70983 -6.95464,0.54756 -3.92067,15.40113 -9.1457,29.38078 -15.67509,41.93918 l 19.60008,1.15413 c 2.26185,-6.79389 8.02342,-16.57209 17.28438,-29.3344 2.35634,-3.1881 3.59685,-5.94062 3.72159,-8.25764 0.12718,-2.36226 -0.89665,-4.01767 -3.07152,-4.96598 l -0.78659,-0.31973 c -4.02598,-1.78656 -5.93623,-4.58802 -5.7306,-8.40416 0.23218,-4.31564 1.63297,-8.1298 4.20209,-11.44214 l 1.60249,0.0944 c 0.17031,2.19756 1.13976,3.71297 2.90869,4.54636 l 3.38193,1.49802 c 3.8228,1.72903 5.60712,4.95588 5.35272,9.68061 -0.22009,4.0887 -2.41771,9.30285 -6.59246,15.64228 -4.17471,6.33976 -7.93196,13.34184 -11.27116,21.00671 -3.33938,7.66488 -5.94109,15.79481 -7.80531,24.3896 l 0,0 z"
       id="flowRoot2762"
       inkscape:connector-curvature="0" />
    <path
       style="font-size:8.35136795px;font-style:normal;font-variant:normal;font-weight:normal;font-stretch:normal;text-align:start;line-height:125%;writing-mode:lr-tb;text-anchor:start;fill:url(#linearGradient3117);fill-opacity:1;stroke:#000000;stroke-width:0.91765416;stroke-miterlimit:4;stroke-opacity:1;font-family:Times New Roman"
       d="m 179.43518,472.88718 1.5636,-1.04533 c 2.12183,3.28621 3.96666,5.05353 5.53449,5.30198 1.56792,0.24837 4.23946,-0.88941 8.01456,-3.41313 l 17.53739,-11.72463 -0.62227,-1.13991 c -0.58535,-0.97942 -1.26511,-1.65493 -2.03918,-2.02648 -0.7741,-0.37161 -1.5998,-0.53271 -2.47708,-0.48338 -0.87739,0.0494 -5.32027,0.56543 -13.32857,1.54795 l -20.40013,2.58039 -8.18679,-13.69805 1.56358,-1.04531 c 2.98931,3.48422 6.34148,5.29977 10.05655,5.44623 3.71513,0.14655 11.15723,-0.3649 22.32652,-1.53423 4.07973,-0.43076 7.13571,-0.23247 9.16786,0.59461 0.29035,-2.41684 1.02838,-4.59593 2.21433,-6.53714 1.18578,-1.94123 3.78401,-5.19717 7.79479,-9.76785 3.15464,-3.62791 5.0275,-6.01924 5.61886,-7.17404 0.59128,-1.15474 0.61012,-2.19536 0.0564,-3.12171 -0.52211,-0.87356 -1.625,-1.72926 -3.30852,-2.56712 -1.62391,-0.80359 -2.72061,-1.68196 -3.29004,-2.63493 -0.66454,-1.11169 -0.86204,-2.26697 -0.59282,-3.46574 0.26924,-1.19875 0.92512,-2.14662 1.96752,-2.84353 1.26773,-0.84754 2.73388,-1.04975 4.39843,-0.60666 1.66461,0.44309 3.14545,1.74992 4.44276,3.92036 1.26547,2.11759 1.82302,4.40293 1.67263,6.85593 -0.15062,2.45302 -0.78703,4.5549 -1.90928,6.30539 -1.12246,1.75065 -3.52163,4.76231 -7.19764,9.0353 -3.33269,3.85802 -5.50332,6.55948 -6.5119,8.1044 -1.00873,1.54488 -1.52822,3.13321 -1.55842,4.76494 -0.0302,1.63172 0.49254,3.34745 1.56836,5.14747 0.36381,0.60874 0.93079,1.35963 1.7011,2.25247 l 15.76241,-10.53796 c 3.77498,-2.52391 5.89286,-4.58806 6.35339,-6.19257 0.46041,-1.60443 -0.25755,-4.12513 -2.15386,-7.56211 l 1.56357,-1.04533 13.85813,23.18729 -1.56355,1.04534 c -2.10609,-3.25982 -3.93903,-5.00728 -5.49896,-5.24249 -1.56002,-0.23513 -4.22762,0.9092 -8.00262,3.43311 l -15.76239,10.53793 c 0.27376,0.85413 0.60062,1.59878 0.98031,2.2341 1.1865,1.98522 2.47901,3.30675 3.87765,3.96469 1.39863,0.65796 2.95297,0.85058 4.66293,0.57801 1.70991,-0.27268 4.97743,-1.18835 9.80257,-2.74705 5.18233,-1.68658 8.75476,-2.68566 10.71745,-2.99743 1.96236,-0.31185 4.0375,-0.023 6.22549,0.86689 2.18767,0.88976 3.92224,2.40658 5.2038,4.55064 1.23381,2.06462 1.71994,3.99942 1.45824,5.80458 -0.26192,1.80503 -1.06901,3.15951 -2.42112,4.06361 -1.04248,0.6968 -2.12943,0.92339 -3.26078,0.67964 -1.13145,-0.24391 -2.03741,-0.93487 -2.7175,-2.07305 -0.53804,-0.9 -0.81766,-2.32448 -0.83897,-4.27361 -0.009,-1.99444 -0.28264,-3.44157 -0.82051,-4.34152 -0.52204,-0.8735 -1.4352,-1.26323 -2.73927,-1.16938 -1.30428,0.094 -4.11809,0.84521 -8.44129,2.25383 -5.66842,1.86317 -9.57489,2.94668 -11.7195,3.25062 -2.14482,0.30383 -4.31145,0.076 -6.50014,-0.68337 -0.23906,1.97508 -0.77767,3.84477 -1.61575,5.60916 -0.8382,1.76419 -3.21952,6.12541 -7.14387,13.08353 -3.7658,6.6296 -5.87979,11.25658 -6.34192,13.88107 -0.46212,2.62421 -0.0874,5.64289 1.12457,9.05601 l -1.5636,1.04535 -8.18671,-13.69793 c 0.54258,-0.8074 3.39535,-5.56719 8.5583,-14.27936 l 8.51091,-14.35872 c 0.53917,-0.87913 1.00371,-1.94911 1.3936,-3.21001 0.38979,-1.26084 0.16551,-2.59268 -0.67292,-3.99553 -0.17407,-0.29125 -0.39381,-0.62592 -0.65913,-1.00412 l -17.53739,11.72463 c -3.77511,2.52372 -5.89688,4.58133 -6.36533,6.1726 -0.46833,1.59119 0.23774,4.09205 2.11832,7.50262 l -1.56359,1.04531 -13.85814,-23.18727 z"
       id="flowRoot3743"
       inkscape:connector-curvature="0" />
    <path
       style="font-size:147.8637085px;font-style:normal;font-weight:normal;fill:url(#linearGradient3071);fill-opacity:1;stroke:#000000;stroke-width:1.04567051;stroke-linecap:butt;stroke-linejoin:miter;stroke-miterlimit:4;stroke-opacity:1;font-family:Bitstream Vera Sans"
       d="m 383.21124,220.04062 -12.67909,-10.51971 -44.60335,49.4305 -8.61593,-7.14857 44.60335,-49.43049 -6.11927,-5.07709 6.15218,-6.818 27.41429,22.74537 -6.15218,6.81799 z m -42.47168,-17.7273 c -4.76801,5.28396 -10.42609,8.55019 -16.97423,9.79873 -6.54826,1.24851 -13.11956,0.40389 -19.71389,-2.53389 l 2.2635,28.70341 -11.02714,-0.20729 -4.17628,-51.15466 11.06557,0.16469 0.86891,10.70594 c 0.042,0.33293 0.47093,0.83786 1.28687,1.51479 4.01419,3.33058 9.02679,4.38468 15.03779,3.16233 5.41657,-1.06965 9.76547,-3.42262 13.04671,-7.05888 2.5377,-2.81241 3.83766,-6.40344 3.89994,-10.7731 0.0784,-4.70384 -1.46526,-8.36906 -4.6309,-10.99565 -2.08878,-1.73293 -4.24845,-2.7548 -6.47903,-3.06561 -2.49641,-0.33248 -4.55206,0.39611 -6.16697,2.18582 -2.30712,2.55677 -1.74725,5.25672 1.6796,8.09986 0.7832,0.6499 1.71794,1.22675 2.80425,1.73058 l -5.76768,6.39185 c -1.56646,-0.60412 -3.39401,-1.77271 -5.48267,-3.50571 -3.32893,-2.76192 -5.04378,-6.04761 -5.14463,-9.85708 -0.12415,-3.53067 1.12108,-6.74483 3.7358,-9.64251 3.35801,-3.72147 7.73265,-5.40724 13.12396,-5.05742 5.06018,0.27404 9.72795,2.18462 14.00336,5.73177 6.29868,5.22606 9.60597,11.17423 9.92185,17.84452 0.24108,6.31033 -2.15047,12.2495 -7.17469,17.81751 l 0,0 z"
       id="text3751"
       inkscape:connector-curvature="0" />
    <path
       style="font-size:8.35136795px;font-style:normal;font-variant:normal;font-weight:normal;font-stretch:normal;text-align:start;line-height:125%;writing-mode:lr-tb;text-anchor:start;fill:url(#linearGradient3103);fill-opacity:1;stroke:#000000;stroke-width:1.01535118;stroke-miterlimit:4;stroke-opacity:1;font-family:Times New Roman"
       d="m 364.73061,337.94138 -1.06492,1.7341 c -1.57134,-0.97072 -3.02842,-1.46132 -4.3713,-1.47206 -1.34298,-0.0112 -2.95799,0.5215 -4.84508,1.59679 -1.26469,0.72734 -3.80063,2.75929 -7.60819,6.09616 l -48.26824,40.84133 -1.7788,-1.09882 11.21235,-49.1227 -38.60619,32.19998 -1.60093,-0.98898 14.48665,-63.84353 c 1.08353,-4.76088 1.66805,-7.6106 1.75376,-8.54914 0.13615,-1.55353 -0.12972,-2.93514 -0.79752,-4.14512 -0.66785,-1.20986 -1.87646,-2.35516 -3.62556,-3.4357 l 1.06492,-1.73409 22.32412,13.79083 -1.06494,1.73411 -1.06718,-0.65926 c -1.57138,-0.97072 -3.00238,-1.33743 -4.29297,-1.10045 -1.29067,0.23713 -2.26212,0.88673 -2.91441,1.94912 -0.67168,1.0935 -1.5641,4.01171 -2.6772,8.75437 l -10.02928,43.00091 28.62757,-24.14198 1.5023,-6.44167 1.1961,-5.144 c 0.3368,-1.94689 0.48427,-3.752 0.44265,-5.41555 -0.0208,-0.83169 -0.18821,-1.62471 -0.50205,-2.37883 -0.39578,-1.02021 -0.88758,-1.88427 -1.47513,-2.59221 -0.4482,-0.53532 -1.28007,-1.17856 -2.49558,-1.92943 l 1.06492,-1.73412 23.48041,14.50516 -1.06492,1.7341 -1.60092,-0.98899 c -1.66026,-1.02561 -3.10608,-1.40149 -4.33734,-1.12783 -1.23146,0.27369 -2.24043,1.05106 -3.02698,2.33203 -0.97871,1.59345 -2.01934,4.78632 -3.12204,9.57865 l -9.64984,41.68377 32.97337,-27.92202 c 3.6837,-3.06855 5.98595,-5.35269 6.90716,-6.85249 0.44117,-0.71861 0.63874,-1.52315 0.5927,-2.41357 -0.0462,-0.89043 -0.31862,-1.66215 -0.81726,-2.315 -0.858,-1.13341 -2.19124,-2.25872 -3.99959,-3.37584 l 1.06492,-1.7341 18.01046,11.12607 z"
       id="flowRoot3695"
       inkscape:connector-curvature="0" />
    <path
       style="font-size:8.35136795px;font-style:normal;font-variant:normal;font-weight:normal;font-stretch:normal;text-align:start;line-height:125%;writing-mode:lr-tb;text-anchor:start;fill:url(#linearGradient3101);fill-opacity:1;stroke:#000000;stroke-width:0.97824144;stroke-miterlimit:4;stroke-opacity:1;font-family:Times New Roman"
       d="m 479.8044,293.91992 -5.99976,6.63142 -5.85154,-6.86793 5.86267,-6.67469 5.98863,6.9112 z m 5.97938,12.28005 -6.01153,6.511 -5.94285,-6.89689 5.85742,-6.50108 6.09696,6.88697 z m -12.04101,1.45522 -5.93705,6.59293 -5.97687,-6.79078 5.84569,-6.62164 6.06823,6.81949 z m 0.22433,47.83281 -3.61052,-1.13934 c -1.82823,-0.57693 -3.34198,-1.37579 -4.54138,-2.3966 -1.19956,-1.02073 -2.31139,-2.39337 -3.33565,-4.11793 -1.71025,0.93941 -3.14163,1.48041 -4.29435,1.62269 -1.63591,0.18437 -3.82498,-0.15605 -6.56722,-1.0214 l -5.62154,-1.77394 c -1.04205,3.25224 -2.72614,6.20465 -5.05218,8.85726 -3.0167,3.4466 -6.68135,5.77402 -10.99373,6.98236 -5.4191,1.52064 -11.49545,1.21859 -18.22918,-0.90635 -6.09384,-1.92299 -10.35926,-4.63128 -12.79604,-8.12506 -2.66222,-3.83742 -3.0929,-8.5666 -1.29192,-14.1875 0.97408,-3.04016 2.2795,-6.01471 3.91614,-8.92382 1.63663,-2.909 3.50731,-5.76359 5.61233,-8.56371 1.28198,-1.69742 3.37989,-4.26625 6.29395,-7.70642 l 1.5223,1.53138 c -3.76398,4.41766 -6.45873,7.98532 -8.08445,10.70314 -1.62574,2.71785 -2.8293,5.29639 -3.61082,7.73553 -1.40458,4.3837 -1.12393,8.141 0.84215,11.27203 1.9659,3.13115 5.44729,5.48506 10.44422,7.06193 5.85009,1.84607 11.45498,2.31078 16.81483,1.39417 6.66826,-1.12659 10.84623,-4.32354 12.53403,-9.59085 1.1326,-3.53524 1.645,-7.07148 1.53712,-10.60884 -0.0795,-2.78876 -0.55856,-5.58684 -1.43702,-8.3943 l 7.27636,-9.67361 c 0.59464,3.3797 0.80942,6.26949 0.64433,8.66977 -0.24651,3.38659 -1.24176,7.80196 -2.98611,13.24614 l 5.62155,1.77397 c 2.89455,0.91339 5.11545,1.04981 6.6628,0.40922 1.34946,-0.54725 2.3188,-1.73997 2.90782,-3.5783 0.32848,-1.02522 0.60642,-2.07598 0.83399,-3.15251 0.22745,-1.07659 0.4328,-2.26712 0.61597,-3.57174 l 2.84752,-2.60472 -0.91676,5.37442 c -0.43979,3.67597 -0.33942,6.45181 0.3009,8.32772 0.70544,2.09104 2.20082,3.49722 4.48616,4.21826 0.70067,0.22123 1.32358,0.13559 1.86879,-0.25682 0.54497,-0.39244 0.94219,-0.97745 1.1914,-1.75519 0.56635,-1.76762 0.70003,-3.80793 0.40119,-6.12105 -0.22509,-1.70592 -0.67873,-3.48397 -1.36078,-5.33411 l 4.91418,-4.81361 c 0.55973,3.17396 0.83342,5.30402 0.82106,6.38992 -0.0434,2.43867 -0.74455,5.77915 -2.10377,10.02126 L 473.9671,355.488 z"
       id="flowRoot3683"
       inkscape:connector-curvature="0" />
    <path
       style="font-size:158.52603149px;font-style:normal;font-weight:normal;fill:url(#linearGradient3125);fill-opacity:1;stroke:#000000;stroke-width:1.02759254;stroke-linecap:butt;stroke-linejoin:miter;stroke-miterlimit:4;stroke-opacity:1;font-family:Times New Roman"
       d="m 204.35667,363.88317 2.54378,0.52948 c -1.22729,5.7806 -3.3335,9.73553 -6.31867,11.86478 -2.9853,2.12922 -6.29154,2.81636 -9.91871,2.06139 -2.9678,-0.61774 -5.63332,-2.07987 -7.99653,-4.38638 -2.36333,-2.30654 -3.82452,-7.47199 -4.3836,-15.49635 l -1.55638,-22.55798 -28.93264,32.7155 -13.35486,-2.77972 40.98457,-44.30382 c -0.21138,-6.88222 -1.11363,-12.13187 -2.70675,-15.749 -1.59322,-3.61699 -4.06209,-5.77358 -7.40664,-6.4698 -2.68514,-0.55881 -5.19764,-0.25088 -7.53753,0.92382 -2.33995,1.17486 -3.98106,3.40239 -4.92339,6.68266 l -2.54379,-0.52947 c 1.28308,-5.34868 3.5873,-9.36745 6.91269,-12.05631 3.32537,-2.68871 6.96653,-3.6213 10.92357,-2.79775 2.54374,0.52956 4.78515,1.8461 6.72424,3.94965 1.939,2.10369 3.32722,5.29606 4.1646,9.57708 0.8373,4.28115 1.70984,12.97242 2.61765,26.07386 l 1.32365,18.44095 c 0.49543,7.62909 1.60371,12.89298 3.32484,15.79169 1.72101,2.89872 4.13608,4.67164 7.2452,5.3188 5.27592,1.09814 8.88082,-1.16954 10.8147,-6.80308 l 0,0 z"
       id="text3899"
       inkscape:connector-curvature="0" />
    <path
       style="fill:url(#linearGradient3106);fill-opacity:1;stroke:#000000;stroke-width:1.04449213;stroke-miterlimit:4;stroke-opacity:1;stroke-dasharray:none"
       d="m 345.07502,513.40063 c -0.0899,-0.45416 -1.27174,-12.55154 -2.62609,-26.88306 -1.35436,-14.33151 -2.55775,-26.8538 -2.67421,-27.82732 l -0.21175,-1.77002 -0.99265,1.91502 c -2.12458,4.09869 -4.55008,6.94659 -5.91626,6.94659 -0.52516,0 -1.04053,-0.14625 -1.14525,-0.32499 -0.10473,-0.17876 0.41318,-1.70641 1.15086,-3.3948 4.40843,-10.0898 7.68653,-23.14577 7.69337,-30.64098 0.002,-2.71378 0.3155,-4.54167 0.77777,-4.54167 0.87338,0 9.66064,4.19191 9.66064,4.60856 0,0.25975 -0.62408,1.03583 -1.38682,1.72461 -1.23702,1.11706 -1.51672,1.70375 -2.58959,5.43191 -0.66152,2.29875 -1.13983,4.24597 -1.06291,4.32711 0.0769,0.0811 5.42981,-0.42445 11.8953,-1.12355 l 11.7555,-1.27112 2.5809,-2.81171 c 1.41949,-1.54644 2.68713,-2.81173 2.81696,-2.81173 0.39296,0 6.0116,4.60336 7.07709,5.79826 0.5472,0.61371 0.92634,1.33301 0.84249,1.59846 -0.10993,0.34778 -2.70106,0.75424 -9.2746,1.45482 -5.01718,0.53473 -9.17678,1.03271 -9.24358,1.10664 -0.0668,0.0739 0.17171,3.10717 0.52999,6.7405 0.35828,3.63336 0.65565,6.91898 0.66079,7.30141 0.009,0.63526 0.21225,0.67603 2.35754,0.4717 l 2.34818,-0.22363 2.28792,-2.6429 c 1.68151,-1.94234 2.41922,-2.55831 2.78303,-2.3238 1.42341,0.91746 7.46793,6.21163 7.5613,6.62265 0.13557,0.59687 -0.36376,0.68381 -9.50135,1.65405 -4.01799,0.42663 -7.32743,0.80022 -7.35431,0.83018 -0.0543,0.0604 1.2103,12.9539 1.35348,13.80035 0.0682,0.40287 0.55899,0.51358 2.0019,0.45154 1.89413,-0.0814 1.93427,-0.10732 4.38192,-2.82751 1.35866,-1.50991 2.68931,-2.74338 2.95696,-2.74105 0.56857,0.005 7.96609,6.46825 7.96609,6.96006 0,0.18286 -0.11742,0.40633 -0.2609,0.49662 -0.1435,0.0903 -3.86146,0.53407 -8.26212,0.9862 -4.40065,0.45211 -8.09588,0.92473 -8.21163,1.05026 -0.25809,0.27996 1.16428,15.30876 1.48013,15.63862 0.12439,0.12988 1.68209,0.0646 3.4617,-0.14499 l 3.23561,-0.38111 2.80738,-2.94635 c 1.54405,-1.62048 3.00152,-2.94633 3.23878,-2.94633 0.53696,0 8.77286,6.88755 8.77286,7.3366 0,0.17994 -0.13327,0.41406 -0.29619,0.52027 -0.16287,0.10624 -8.87614,1.10571 -19.36278,2.22112 -10.48666,1.11541 -19.14458,2.11026 -19.23985,2.21079 -0.0953,0.10042 -10e-4,1.79447 0.20872,3.76435 l 0.38196,3.58158 -1.07956,0.99419 c -0.9694,0.89269 -4.98165,2.85936 -5.83351,2.85936 -0.18567,0 -0.41123,-0.37159 -0.50121,-0.82576 z m 12.27817,-14.75923 c 2.55664,-0.28775 4.70711,-0.58517 4.77888,-0.66088 0.1548,-0.16329 -1.27585,-15.43099 -1.46663,-15.6517 -0.18225,-0.21085 -10.11141,0.76812 -10.50312,1.03555 -0.23475,0.16029 0.98003,15.02898 1.28461,15.72311 0.0737,0.16799 1.21958,0.0814 5.90626,-0.44608 z m -1.34358,-19.67231 c 2.20034,-0.22831 4.07036,-0.48605 4.15564,-0.57273 0.22578,-0.2296 -1.04093,-13.8538 -1.31509,-14.1443 -0.26958,-0.28564 -10.21595,0.7647 -10.53373,1.11236 -0.11766,0.12866 0.0687,3.04148 0.41397,6.473 0.34526,3.43148 0.63717,6.62516 0.64866,7.09708 0.019,0.78058 0.1386,0.83959 1.32542,0.65387 0.71749,-0.11231 3.1048,-0.39095 5.30513,-0.61928 z m -2.60907,-17.97663 c 2.10465,-0.21306 4.1443,-0.45522 4.53257,-0.53818 l 0.70591,-0.15082 -0.69387,-7.35342 c -0.65258,-6.91565 -0.73604,-7.35301 -1.4017,-7.34627 -1.77395,0.0179 -9.72503,1.10299 -9.95502,1.35852 -0.14149,0.15721 0.0376,3.25856 0.39807,6.89191 0.36043,3.63334 0.65953,6.81252 0.66468,7.06482 0.0112,0.56009 0.83743,0.57065 5.74936,0.0735 z m -44.83527,45.25159 c -1.76715,-2.19114 -2.29486,-3.11058 -2.29807,-4.00389 -0.003,-1.15467 0.006,-1.16148 2.51795,-1.6034 3.79945,-0.66857 13.59552,-3.36852 20.42644,-5.62983 3.34203,-1.10637 6.19898,-1.93168 6.34877,-1.83402 0.14977,0.0977 0.27039,0.53941 0.26802,0.98166 -0.003,0.64638 -0.80519,1.26631 -4.08758,3.16055 -2.24578,1.29604 -7.7154,4.47523 -12.15466,7.06483 -4.43929,2.58961 -8.21892,4.70838 -8.39921,4.70838 -0.18027,0 -1.36004,-1.27991 -2.62166,-2.84428 z m -0.2118,-19.9033 c -0.95839,-2.01486 -1.74255,-3.89621 -1.74255,-4.18078 0,-0.28457 0.40489,-0.6246 0.89974,-0.75562 1.29706,-0.34344 4.09595,-3.24309 5.9117,-6.12453 1.6871,-2.67731 6.23848,-12.36811 5.95114,-12.67124 -0.0959,-0.10117 -0.69763,0.10172 -1.33726,0.45089 -2.23263,1.2187 -11.56617,5.29139 -12.12647,5.29139 -0.55796,0 -4.51703,-5.74038 -4.51703,-6.54938 0,-0.22624 0.75463,-0.81476 1.67696,-1.30783 1.55286,-0.83015 1.78732,-1.14708 3.16808,-4.28226 2.8607,-6.4956 5.35786,-14.54665 7.02032,-22.63419 0.52342,-2.54635 0.92745,-3.76177 1.25046,-3.76177 0.78855,0 7.37802,4.91112 7.38639,5.50505 0.003,0.30279 -0.59298,0.99862 -1.3272,1.5463 -1.07553,0.8023 -1.5568,1.58678 -2.47676,4.03704 -1.60355,4.2711 -5.18592,11.96347 -7.44109,15.97817 -1.04882,1.86713 -1.87788,3.39478 -1.84234,3.39478 0.0355,0 2.6476,-0.4104 5.80457,-0.91201 3.15698,-0.50162 5.86731,-0.91451 6.02294,-0.91752 0.63258,-0.0125 4.76127,-10.37123 4.76127,-11.94612 0,-1.37002 1.16313,-0.88324 4.3491,1.82017 1.81733,1.54207 3.30422,2.86675 3.30422,2.94378 0,0.077 -0.69258,0.85623 -1.53905,1.73159 -0.99758,1.03158 -2.97016,4.23326 -5.60651,9.09981 -4.32393,7.98176 -7.63552,13.54348 -10.11825,16.99335 -0.8369,1.16293 -1.52161,2.16264 -1.52161,2.2216 0,0.059 3.71794,-0.43433 8.26209,-1.09624 4.54416,-0.66191 8.84916,-1.20745 9.56666,-1.21233 1.25547,-0.009 1.30454,0.0385 1.30454,1.24961 0,1.21994 -0.0611,1.27628 -2.00031,1.84012 -5.01248,1.45755 -14.14398,4.76396 -17.29585,6.26267 -1.90724,0.90686 -3.58868,1.64887 -3.73652,1.64887 -0.14786,0 -1.05297,-1.64853 -2.01138,-3.66337 z m 51.34289,-46.08222 c -0.29558,-0.31187 -0.7061,-1.26149 -0.91224,-2.11027 -0.97527,-4.0159 -2.47,-6.78031 -5.19267,-9.60356 -1.3146,-1.3631 -1.75636,-2.09072 -1.75636,-2.89261 0,-1.03686 0.0445,-1.06508 1.38204,-0.87582 2.40565,0.34041 6.93075,2.96008 9.48915,5.49343 2.34438,2.32147 2.34818,2.32843 2.34637,4.33025 -0.002,2.31321 -0.97974,4.36311 -2.62745,5.509 -1.23828,0.86114 -2.01403,0.90368 -2.72884,0.14958 z"
       id="path3098"
       inkscape:connector-curvature="0" />
    <path
       style="fill:url(#linearGradient4929);fill-opacity:1;stroke:#000000;stroke-width:1.04449213;stroke-miterlimit:4;stroke-opacity:1;stroke-dasharray:none"
       d="m 190.08478,250.99506 c -0.83482,-0.39158 -2.18734,-1.38042 -5.31599,-3.88663 -2.30798,-1.84881 -4.26073,-3.46288 -4.33948,-3.58687 -0.0787,-0.12402 -0.0978,-0.28252 -0.0424,-0.3523 0.0554,-0.0698 1.01434,-0.70416 2.13087,-1.40968 11.39957,-7.20316 20.9066,-15.55394 27.48152,-24.13928 8.01624,-10.46729 14.30978,-23.28585 17.24059,-35.1152 0.31155,-1.2574 0.63347,-2.48511 0.71539,-2.72823 l 0.14897,-0.44205 4.57215,2.22927 c 2.51469,1.22612 4.62175,2.31289 4.68229,2.41509 0.20211,0.34107 -1.69041,6.94027 -3.17155,11.05915 -3.32499,9.24646 -8.30923,18.5966 -13.76196,25.81676 -7.2261,9.56827 -15.77801,18.06853 -25.99921,25.84204 l -1.99477,1.51711 0.0159,0.83167 c 0.009,0.45741 -0.0539,1.12711 -0.13918,1.48824 -0.12964,0.54907 -0.23267,0.68356 -0.62923,0.82135 -0.3849,0.13374 -0.68502,0.0658 -1.59387,-0.36044 z M 179.62934,213.6444 c -7.56524,-2.26655 -12.80288,-3.52022 -17.9204,-4.28934 -1.04775,-0.15749 -1.92549,-0.34859 -1.95053,-0.42472 -0.0879,-0.26697 3.02404,-10.05522 3.21823,-10.1227 0.23069,-0.0801 10.62158,1.88785 12.81996,2.42807 2.51524,0.6181 10.34892,2.80481 10.49316,2.92909 0.12028,0.10366 -3.14561,9.95081 -3.41126,10.28527 -0.0592,0.0745 -1.52133,-0.28801 -3.24916,-0.80567 z m 4.63281,-25.72991 c -5.19077,-1.47361 -8.21797,-2.22942 -11.91742,-2.97551 -6.06013,-1.22218 -8.62847,-1.8293 -8.6213,-2.03796 0.0151,-0.43814 2.24964,-9.49706 2.39029,-9.6903 0.10592,-0.14556 0.2952,-0.18179 0.61168,-0.11704 0.25207,0.0514 2.79897,0.56827 5.65978,1.14832 2.86079,0.58005 6.06811,1.26478 7.12737,1.52163 2.01157,0.48777 8.37208,2.15986 9.50161,2.49784 l 0.65329,0.19548 -0.11717,0.49722 c -0.39512,1.67696 -2.6008,9.43277 -2.71106,9.5329 -0.0735,0.0667 -1.23306,-0.19098 -2.57708,-0.57254 z"
       id="path4921"
       inkscape:connector-curvature="0" />
    <path
       style="font-weight:normal;fill:url(#linearGradient2865);fill-opacity:1;stroke:#000000;stroke-width:1.04449213;stroke-miterlimit:4;stroke-opacity:1;font-family:UnBatang"
       d="m 455.0208,157.95405 c 0.82973,0.49702 2.84647,2.21355 6.05031,5.14945 1.04988,0.96791 2.04454,1.73318 2.98399,2.29581 2.70839,1.62247 6.90892,3.96916 12.6016,7.04007 l 7.02674,3.0641 c 4.47582,2.68115 6.23602,4.71097 5.28058,6.08951 -0.37393,0.53939 -1.46679,1.32585 -3.27871,2.35956 l -1.37085,0.96026 -13.25855,13.03904 c -0.66634,0.62037 -0.62566,1.57745 0.12202,2.87134 0.70276,1.35505 0.82607,2.36164 0.36991,3.01986 -1.03789,1.49735 -4.43061,0.52466 -10.17809,-2.91813 l -1.47175,-0.75358 -8.29101,-4.4579 c -4.43611,-2.40112 -6.65414,-3.60171 -6.65411,-3.6017 -0.33057,-0.19801 -1.21481,0.28919 -2.65267,1.46153 l -1.9104,1.39778 -1.24178,0.27304 -0.64453,-0.25806 c -1.27,-0.76063 0.52425,-4.98482 5.38269,-12.6726 0.19265,-0.39161 0.3518,-0.67801 0.47727,-0.85901 l 5.60643,-9.61228 c 1.55167,-2.46251 2.40395,-4.02959 2.55693,-4.70133 0.74721,-2.43473 0.14024,-4.83195 -1.8208,-7.19179 -1.1593,-1.37482 -1.58655,-2.39402 -1.28176,-3.05757 0.74767,-1.07868 2.61318,-0.72448 5.59656,1.0626 l 0,0 z m -8.40424,30.5746 13.53308,7.72606 c 2.58399,1.12361 4.69855,1.1185 6.34359,-0.0152 1.27309,-0.93467 4.04174,-4.36438 8.30583,-10.28902 1.328,-1.916 2.49761,-3.54663 3.50883,-4.89186 0.75975,-0.98601 0.93999,-1.81077 0.5408,-2.47434 -0.19432,-0.28448 -0.54014,-0.57578 -1.03762,-0.87376 l -17.36608,-10.15018 -13.82843,20.96829 z m -4.3058,14.84291 3.81367,2.79293 c 4.65426,3.21226 7.4789,5.11644 8.47401,5.71241 l 9.36753,5.61124 9.65551,5.53149 0.16697,0.1 4.06427,1.41385 0.0835,0.0499 c 3.70174,2.21739 5.13698,3.9258 4.30576,5.12515 -0.3321,0.47902 -1.27927,1.05527 -2.84149,1.72878 -0.47066,0.22783 -0.81593,0.44534 -1.03584,0.65254 -3.93055,3.74923 -6.02667,5.75759 -6.2884,6.02514 -0.15393,0.33215 0.0313,0.91018 0.55589,1.73403 0.34526,0.63116 0.42767,1.18891 0.24714,1.6733 -0.0687,0.2125 -0.14471,0.3791 -0.22826,0.49978 -0.24845,0.3583 -0.72532,0.53841 -1.4306,0.54029 -1.11959,-0.0755 -4.53947,-1.74247 -10.25968,-5.00074 l -17.40696,-10.42694 c -1.76746,-1.05872 -3.23285,-0.74889 -4.39614,0.92949 l -3.05088,4.40164 c -1.70319,2.45716 -0.7039,4.79454 2.99796,7.01199 l 9.49299,5.43024 0.16443,0.0985 c 4.69846,2.81443 7.23391,4.29048 7.60637,4.42816 0.33217,0.19897 0.68387,0.3682 1.05501,0.50775 l 6.73836,2.12691 c 0.37401,0.13861 0.72632,0.30695 1.05693,0.50498 4.47753,2.68207 6.09345,4.92178 4.84783,6.71904 -0.99741,1.43883 -2.68414,1.4465 -5.06037,0.0232 l -26.8372,-15.9477 c -0.60886,-0.36471 -1.21683,-0.7289 -1.82393,-1.09255 -4.75254,-2.84681 -7.15557,-5.6433 -7.20913,-8.38953 -0.0385,-1.63513 0.62708,-3.44079 1.99702,-5.41718 l 2.99005,-4.31387 c 1.16199,-1.6765 0.85228,-3.43 -0.92912,-5.26044 l -1.82428,-2.10954 c -0.20512,-0.37902 -0.18349,-0.74768 0.0649,-1.10608 0.62343,-0.89948 2.33669,-0.55117 5.13971,1.0451 0.27656,0.16566 0.4705,0.28184 0.58183,0.34852 l 6.60776,5.86372 c 0.3322,0.19899 0.6366,0.38133 0.91322,0.54704 3.97836,2.38306 10.04345,5.93069 18.19522,10.64294 2.54315,1.52336 4.68632,1.53551 6.42966,0.0362 0.6632,-0.61951 1.43078,-1.55821 2.30271,-2.81605 1.2038,-1.73689 1.81218,-2.72826 1.82515,-2.9741 0.15284,-0.67171 -0.15692,-1.23889 -0.92926,-1.70152 L 452.60581,215.2628 c -0.2227,-0.13329 -1.74294,-0.70501 -4.56076,-1.71507 -0.57992,-0.17918 -1.06299,-0.38441 -1.44911,-0.6158 -1.32735,-0.79499 -2.84026,-2.6754 -4.53881,-5.64117 l -1.11587,-2.44982 c -0.15168,-0.68337 -0.12364,-1.17495 0.0842,-1.47477 0.24965,-0.36023 0.67804,-0.3585 1.28521,0.005 l 0,0 z m 52.05919,7.65685 c -4.77508,6.88904 -8.53887,10.56998 -11.29138,11.04279 l -1.28575,-0.01 -0.24792,-0.14851 c -0.99513,-0.59599 0.32804,-3.57585 3.96942,-8.93948 l 17.31685,-24.98365 1.41059,-2.20555 0.0627,-0.0905 c 1.31409,-2.00964 0.92974,-5.12231 -1.15322,-9.33774 -1.49033,-2.9289 -2.1387,-4.7585 -1.94516,-5.48869 0.49794,-0.7185 1.60365,-0.56456 3.31723,0.46178 2.37614,1.42344 4.86237,3.92949 7.45859,7.51827 1.31279,1.71795 1.98843,3.05538 2.02688,4.0124 0.042,0.61767 -0.25571,1.32948 -0.89291,2.13529 -3.19588,3.93581 -4.81469,5.93386 -4.8564,5.99418 l -11.77202,16.98391 c 1.26981,0.76073 3.88122,1.73119 7.83428,2.91139 1.62946,0.46907 2.94179,1.00155 3.93695,1.59755 4.25484,2.5488 5.8013,4.66147 4.63935,6.33802 -1.12162,1.61804 -4.52829,0.7223 -10.22006,-2.68713 l -6.7346,-4.16221 -1.57348,-0.94254 z"
       id="flowRoot2865"
       inkscape:connector-curvature="0" />
  </g>
</svg>
