<?xml version="1.0" encoding="UTF-8" standalone="no"?>
<!DOCTYPE svg  PUBLIC '-//W3C//DTD SVG 1.1//EN'  'http://www.w3.org/Graphics/SVG/1.1/DTD/svg11.dtd'>
<svg xmlns="http://www.w3.org/2000/svg" height="900" width="1e3" version="1.1" xmlns:xlink="http://www.w3.org/1999/xlink">
 <metadata><!--
  <rdf:RDF xmlns:rdf="http://www.w3.org/1999/02/22-rdf-syntax-ns#" xmlns:cc="http://web.resource.org/cc/" xmlns:dc="http://purl.org/dc/elements/1.1/">
   <rdf:Description about="http://commons.wikimedia.org/image/Wikiversity-logo.svg">
     dc:title="Wikiversity logo (trademark)"
     dc:publisher="Wikimedia Foundation"
     dc:copyright="Copyright (c)2006 Wikimedia Foundation"
     dc:date="2007-09-20"
     dc:format="image/svg+xml"
     dc:language="en">
    <dc:subject>
     <rdf:Bag>
      <rdf:li>Wikiversity</rdf:li>
      <rdf:li>logo</rdf:li>
      <rdf:li>trademark</rdf:li>
      <rdf:li>Copyright (C) 2006 Wikimedia Foundation</rdf:li>
     </rdf:Bag>
    </dc:subject>
   </rdf:Description>
  </rdf:RDF>
 --></metadata>
 <defs>
  <linearGradient id="a" y2="322" gradientUnits="userSpaceOnUse" y1="35" x2="0">
   <stop stop-color="#069" offset="0"/>
   <stop stop-color="#0080CE" offset="1"/>
  </linearGradient>
  <linearGradient id="b" y1="339" xlink:href="#a" y2="757"/>
 </defs>
 <path d="m329 88c43-35 87-53 155-53-53 21-89 54-116 79-16-8-27-15-39-26zm342 0c-43-35-87-53-155-53 53 21 89 54 116 79 16-8 27-15 39-26zm-180 56c-36 0-68-8-105-23 37-34 65-53 105-71zm18 0c36 0 68-8 105-23-37-34-65-53-105-71zm-152-16c-16-8-30-17-43-28-25 23-46 45-61 73 17 15 31 25 52 35 14-29 29-54 52-80zm286 0c16-8 30-17 43-28 25 23 46 45 61 73-17 15-31 25-52 35-14-29-29-54-52-80zm-152 34c-39 0-83-11-118-26-24 26-41 53-53 80 59 29 113 42 171 42zm18 0c39 0 83-11 118-26 24 26 41 53 53 80-59 29-113 42-171 42zm-266 27c17 15 34 26 55 38-10 22-16 50-20 77-21-11-42-24-61-38 5-29 14-55 26-77zm514 0c-17 15-34 26-55 38 10 22 16 50 20 77 21-11 42-24 61-38-5-29-14-55-26-77zm-266 133h-166c-11-4-20-6-31-11 4-31 10-52 19-77 55 29 113 42 178 42zm18 0h166c11-4 20-6 31-11-4-31-10-52-19-77-55 29-113 42-178 42zm-299 0c0-13 1-24 3-37 23 16 34 22 63 37zm580 0c0-13-1-24-3-37-23 16-34 22-63 37z" fill="url(#a)"/>
 <g fill="url(#b)">
  <rect y="339" x="32" height="31" width="936"/>
  <rect y="387" x="64" height="322" width="125"/>
  <rect y="387" x="313" height="322" width="125"/>
  <rect y="387" x="562" height="322" width="125"/>
  <rect y="387" x="811" height="322" width="125"/>
  <rect y="726" x="32" height="31" width="936"/>
 </g>
 <path d="m32 774h24l22 51 23-51h19l23 51 22-51h24l-40 93h-10l-29-60-28 60h-10zm192 0v92h-23v-92zm97 0l-30 43 41 49h-29l-36-43v43h-23v-92h23v41l29-41zm44 0v92h-23v-92zm108 0l-43 93h-10l-44-93h25l24 52 23-52zm78 75v17h-68v-92h67v17h-44v19h42v17h-42v22zm17-75h41c9 0 17 2 22 8 6 5 8 11 8 18 0 10-5 18-15 23 4 2 9 8 13 17s8 18 12 26h-25c-2-3-4-9-8-18-4-8-7-14-10-16-2-2-5-4-8-4h-7v38h-23zm23 17v21h12c4 0 7-1 10-3 2-2 3-4 3-8 0-7-4-10-13-10h-12zm130 7c-11-6-19-8-28-8s-14 3-14 8c0 6 5 8 13 10 12 3 22 8 28 16 3 4 5 9 5 16s-3 13-8 18-16 9-27 9-24-3-33-9v-20c11 6 22 12 31 12s13-3 14-9c0-6-5-10-13-12s-22-6-28-14c-3-4-5-10-5-17 0-6 3-13 9-18s14-7 25-7c10 0 20 1 31 7zm42-24v92h-23v-92zm106 0v17h-34v75h-23v-75h-33v-17zm40 92v-43l-37-49h28l20 29 20-29h28l-37 49v43z" fill="#696969"/>
</svg>
