<?xml version="1.0" encoding="UTF-8" standalone="no"?>
<svg xmlns="http://www.w3.org/2000/svg" version="1.1" width="180" height="185">
 <path d="M 164.07,82.2 C 170.8,130.13 140.4,174 96.2,180.3 C 51.9,186.5 10.6,152.7 3.93,104.79 C -2.79,56.87 27.6,12.98 71.843612,6.7 C 116.1,0.5 157.4,34.3 164,82.21 L 164.07,82.2 z" fill-opacity="0.2"/>
 <path d="M 176.07,80.2 C 182.8,128 152.4,172.03 108.16,178.26 C 63.9,184.5 22.6,150.7 15.9,102.79 C 9.22,54.9 39.6,10.9 83.8,4.7 C 128,-1.5 169,32.3 176,80.2 L 176.07,80.2 z" fill="#2a852a"/>
 <path d="M 160.057,82.470048 C 165.43,120.8 141.1,155.9 105.7,160.9 C 70.35,165.89 37.3,138.9 31.9,100.5 C 26.6,62.2 50.9,27 86.3,22 C 121.7,17.1 154.7,44 160.057,82.5 L 160.057,82.5 L 160.057,82.470048 z" fill="#98ff98"/>
 <path d="M 65.603307,60.045702 C 57.689074,61.872848 50.345823,66.173189 43.573555,72.946731 L 58.190716,136.26061 C 71.735251,122.71353 87.563717,119.05924 105.67611,125.29774 C 119.22066,111.75066 135.04913,108.09637 153.16152,114.33488 L 138.54436,51.020993 C 120.43197,44.782489 104.6035,48.436787 91.058959,61.98386 C 82.002758,58.864609 73.517539,58.218558 65.603307,60.045702 z M 66.308366,72.126518 C 72.068508,70.365944 78.135094,70.32088 85.086065,72.219877 L 94.107595,111.29642 C 84.098908,111.27299 74.930526,112.85826 65.49452,117.12075 L 56.244599,77.054942 C 59.495105,74.886072 62.852361,73.182843 66.308366,72.126518 z M 114.2884,61.049454 C 118.93752,59.748178 123.79355,59.568793 128.95663,60.268046 L 138.20655,100.33386 C 127.85696,100.63923 118.92153,103.23357 109.93605,107.64212 L 100.91454,68.565587 C 105.24654,64.762463 109.63929,62.350727 114.2884,61.049454 z" fill="#2a852a"/>
</svg>
