<?xml version="1.0" encoding="utf-8"?>
<!-- Generator: Adobe Illustrator 19.0.0, SVG Export Plug-In . SVG Version: 6.00 Build 0)  -->
<svg version="1.1"
	 id="svg2047" xmlns:sodipodi="http://sodipodi.sourceforge.net/DTD/sodipodi-0.dtd" xmlns:svg="http://www.w3.org/2000/svg" xmlns:rdf="http://www.w3.org/1999/02/22-rdf-syntax-ns#" xmlns:inkscape="http://www.inkscape.org/namespaces/inkscape" xmlns:cc="http://creativecommons.org/ns#" xmlns:dc="http://purl.org/dc/elements/1.1/" inkscape:version="0.48.0 r9654" sodipodi:docname="Wiktionary-logo-en-v2.svg"
	 xmlns="http://www.w3.org/2000/svg" xmlns:xlink="http://www.w3.org/1999/xlink" x="0px" y="0px" viewBox="-102 225.89 391 391"
	 style="enable-background:new -102 225.89 391 391;" xml:space="preserve">
<style type="text/css">
	.st0{fill:url(#flowRoot2762_1_);stroke:#000000;stroke-width:1.0443;}
	.st1{fill:url(#flowRoot3743_2_);stroke:#000000;stroke-width:0.9177;}
	.st2{fill:url(#text3751_1_);stroke:#000000;stroke-width:1.0457;}
	.st3{fill:url(#flowRoot3695_2_);stroke:#000000;stroke-width:1.0154;}
	.st4{fill:url(#flowRoot3683_1_);stroke:#000000;stroke-width:0.9782;}
	.st5{fill:url(#text3899_1_);stroke:#000000;stroke-width:1.0276;}
	.st6{fill:url(#path3098_1_);stroke:#000000;stroke-width:1.0445;}
	.st7{fill:url(#path4921_1_);stroke:#000000;stroke-width:1.0445;}
	.st8{fill:url(#flowRoot2865_1_);stroke:#000000;stroke-width:1.0445;}
</style>
<sodipodi:namedview  id="base" inkscape:cy="256.14318" inkscape:cx="210.07301" showgrid="false" bordercolor="#666666" pagecolor="#ffffff" showguides="true" borderopacity="1.0" inkscape:zoom="1" inkscape:window-maximized="0" inkscape:guide-bbox="true" inkscape:document-units="mm" inkscape:pageshadow="2" inkscape:window-height="914" inkscape:window-width="1254" inkscape:pageopacity="0.0" inkscape:window-x="92" inkscape:current-layer="layer1" inkscape:window-y="22">
	</sodipodi:namedview>
<g id="layer1_2_" transform="translate(-128.4431,-143.73258)" inkscape:label="Layer 1" inkscape:groupmode="layer">
	
		<linearGradient id="flowRoot2762_1_" gradientUnits="userSpaceOnUse" x1="911.8967" y1="413.3817" x2="954.7538" y2="359.096" gradientTransform="matrix(1.082 -0.0501 -0.0501 -1.082 -625.574 1148.0067)">
		<stop  offset="0" style="stop-color:#000066"/>
		<stop  offset="1" style="stop-color:#00004F"/>
	</linearGradient>
	<path id="flowRoot2762_2_" inkscape:connector-curvature="0" class="st0" d="M373.126,721.771l-34.454-2.029
		c-0.815-7.066-1.772-13.412-2.87-19.037c-1.544-8.066-2.182-14.598-1.913-19.595c0.364-6.769,1.536-12.83,3.514-18.182
		c-5.046-1.983-7.448-5.224-7.205-9.721c0.23-4.27,1.464-8.049,3.702-11.335l1.664,0.098c0.32,1.705,0.894,2.924,1.72,3.656
		c0.826,0.732,2.599,1.497,5.318,2.296c4.058,1.196,5.923,4.838,5.595,10.925c-0.083,1.545-0.273,2.764-0.568,3.658
		c-2.681,0.799-5.131,1.134-7.35,1.003c-1.197,4.624-1.951,9.82-2.261,15.59c-0.399,7.405,1.508,16.404,5.719,26.997l1.914,0.044
		c6.2-11.029,11.9-25.026,17.1-41.992c-4.983-2.39-7.352-5.856-7.107-10.399c0.21-3.907,1.448-7.366,3.712-10.377l1.664,0.098
		c0.356,2.573,1.425,4.163,3.206,4.769l3.832,1.183c4.094,1.289,6,4.546,5.719,9.771c-0.1,1.863-0.372,3.465-0.815,4.806
		c-1.883,0.527-4.202,0.71-6.955,0.548c-3.921,15.401-9.146,29.381-15.675,41.939l19.6,1.154
		c2.262-6.794,8.023-16.572,17.284-29.334c2.356-3.188,3.597-5.941,3.722-8.258c0.127-2.362-0.897-4.018-3.072-4.966l-0.787-0.32
		c-4.026-1.787-5.936-4.588-5.731-8.404c0.232-4.316,1.633-8.13,4.202-11.442l1.602,0.094c0.17,2.198,1.14,3.713,2.909,4.546
		l3.382,1.498c3.823,1.729,5.607,4.956,5.353,9.681c-0.22,4.089-2.418,9.303-6.592,15.642c-4.175,6.34-7.932,13.342-11.271,21.007
		C377.592,705.046,374.991,713.176,373.126,721.771L373.126,721.771L373.126,721.771z"/>
	
		<linearGradient id="flowRoot3743_2_" gradientUnits="userSpaceOnUse" x1="705.7001" y1="385.2418" x2="608.8627" y2="472.3122" gradientTransform="matrix(0.6137 0.7124 0.6279 -0.6299 -560.817 489.4919)">
		<stop  offset="0" style="stop-color:#000066"/>
		<stop  offset="1" style="stop-color:#00004F"/>
	</linearGradient>
	<path id="flowRoot3743_1_" inkscape:connector-curvature="0" class="st1" d="M77.435,698.777l1.564-1.045
		c2.122,3.286,3.967,5.054,5.534,5.302c1.568,0.248,4.239-0.889,8.015-3.413l17.537-11.725l-0.622-1.14
		c-0.585-0.979-1.265-1.655-2.039-2.026c-0.774-0.372-1.6-0.533-2.477-0.483c-0.877,0.049-5.32,0.565-13.329,1.548l-20.4,2.58
		l-8.187-13.698l1.564-1.045c2.989,3.484,6.341,5.3,10.057,5.446c3.715,0.147,11.157-0.365,22.327-1.534
		c4.08-0.431,7.136-0.232,9.168,0.595c0.29-2.417,1.028-4.596,2.214-6.537c1.186-1.941,3.784-5.197,7.795-9.768
		c3.155-3.628,5.027-6.019,5.619-7.174c0.591-1.155,0.61-2.195,0.056-3.122c-0.522-0.874-1.625-1.729-3.309-2.567
		c-1.624-0.804-2.721-1.682-3.29-2.635c-0.665-1.112-0.862-2.267-0.593-3.466c0.269-1.199,0.925-2.147,1.968-2.844
		c1.268-0.848,2.734-1.05,4.398-0.607c1.665,0.443,3.145,1.75,4.443,3.92c1.265,2.118,1.823,4.403,1.673,6.856
		c-0.151,2.453-0.787,4.555-1.909,6.305c-1.122,1.751-3.522,4.762-7.198,9.035c-3.333,3.858-5.503,6.559-6.512,8.104
		c-1.009,1.545-1.528,3.133-1.558,4.765c-0.03,1.632,0.493,3.347,1.568,5.147c0.364,0.609,0.931,1.36,1.701,2.253l15.762-10.538
		c3.775-2.524,5.893-4.588,6.353-6.193c0.46-1.604-0.258-4.125-2.154-7.562l1.564-1.045l13.858,23.187l-1.564,1.045
		c-2.106-3.26-3.939-5.007-5.499-5.242c-1.56-0.235-4.228,0.909-8.003,3.433l-15.762,10.538c0.274,0.854,0.601,1.599,0.98,2.234
		c1.186,1.985,2.479,3.307,3.878,3.965c1.399,0.658,2.953,0.851,4.663,0.578c1.71-0.273,4.977-1.188,9.803-2.747
		c5.182-1.687,8.755-2.686,10.717-2.997c1.962-0.312,4.038-0.023,6.225,0.867c2.188,0.89,3.922,2.407,5.204,4.551
		c1.234,2.065,1.72,3.999,1.458,5.805c-0.262,1.805-1.069,3.159-2.421,4.064c-1.042,0.697-2.129,0.923-3.261,0.68
		c-1.131-0.244-2.037-0.935-2.717-2.073c-0.538-0.9-0.818-2.325-0.839-4.274c-0.009-1.994-0.283-3.442-0.821-4.342
		c-0.522-0.873-1.435-1.263-2.739-1.169c-1.304,0.094-4.118,0.845-8.441,2.254c-5.668,1.863-9.575,2.947-11.719,3.251
		c-2.145,0.304-4.311,0.076-6.5-0.683c-0.239,1.975-0.778,3.845-1.616,5.609c-0.838,1.764-3.22,6.125-7.144,13.083
		c-3.766,6.63-5.88,11.257-6.342,13.881c-0.462,2.624-0.087,5.643,1.125,9.056l-1.564,1.045l-8.187-13.698
		c0.543-0.807,3.395-5.567,8.558-14.279l8.511-14.359c0.539-0.879,1.004-1.949,1.394-3.21c0.39-1.261,0.166-2.593-0.673-3.996
		c-0.174-0.291-0.394-0.626-0.659-1.004l-17.537,11.725c-3.775,2.524-5.897,4.581-6.365,6.173c-0.468,1.591,0.238,4.092,2.118,7.503
		l-1.564,1.045L77.435,698.777L77.435,698.777z"/>
	
		<linearGradient id="text3751_1_" gradientUnits="userSpaceOnUse" x1="578.0554" y1="699.6351" x2="482.3411" y2="797.8317" gradientTransform="matrix(0.6057 0.5737 0.6018 -0.5853 -533.6411 572.7404)">
		<stop  offset="0" style="stop-color:#000066"/>
		<stop  offset="1" style="stop-color:#00004F"/>
	</linearGradient>
	<path id="text3751_2_" inkscape:connector-curvature="0" class="st2" d="M281.211,445.931l-12.679-10.52l-44.603,49.431
		l-8.616-7.149l44.603-49.43l-6.119-5.077l6.152-6.818l27.414,22.745L281.211,445.931L281.211,445.931z M238.74,428.203
		c-4.768,5.284-10.426,8.55-16.974,9.799c-6.548,1.249-13.12,0.404-19.714-2.534l2.263,28.703l-11.027-0.207l-4.176-51.155
		l11.066,0.165l0.869,10.706c0.042,0.333,0.471,0.838,1.287,1.515c4.014,3.331,9.027,4.385,15.038,3.162
		c5.417-1.07,9.765-3.423,13.047-7.059c2.538-2.812,3.838-6.403,3.9-10.773c0.078-4.704-1.465-8.369-4.631-10.996
		c-2.089-1.733-4.248-2.755-6.479-3.066c-2.496-0.332-4.552,0.396-6.167,2.186c-2.307,2.557-1.747,5.257,1.68,8.1
		c0.783,0.65,1.718,1.227,2.804,1.731l-5.768,6.392c-1.566-0.604-3.394-1.773-5.483-3.506c-3.329-2.762-5.044-6.048-5.145-9.857
		c-0.124-3.531,1.121-6.745,3.736-9.643c3.358-3.721,7.733-5.407,13.124-5.057c5.06,0.274,9.728,2.185,14.003,5.732
		c6.299,5.226,9.606,11.174,9.922,17.845C246.155,416.696,243.764,422.635,238.74,428.203L238.74,428.203L238.74,428.203z"/>
	
		<linearGradient id="flowRoot3695_2_" gradientUnits="userSpaceOnUse" x1="512.1706" y1="465.4953" x2="425.0277" y2="550.5518" gradientTransform="matrix(0.7739 0.3789 0.364 -0.8027 -337.6268 796.9695)">
		<stop  offset="0" style="stop-color:#D40000"/>
		<stop  offset="1" style="stop-color:#570000"/>
	</linearGradient>
	<path id="flowRoot3695_1_" inkscape:connector-curvature="0" class="st3" d="M262.731,563.831l-1.065,1.734
		c-1.571-0.971-3.028-1.461-4.371-1.472c-1.343-0.011-2.958,0.521-4.845,1.597c-1.265,0.727-3.801,2.759-7.608,6.096l-48.268,40.841
		l-1.779-1.099l11.212-49.123l-38.606,32.2l-1.601-0.989l14.487-63.844c1.084-4.761,1.668-7.611,1.754-8.549
		c0.136-1.554-0.13-2.935-0.798-4.145c-0.668-1.21-1.876-2.355-3.626-3.436l1.065-1.734l22.324,13.791l-1.065,1.734l-1.067-0.659
		c-1.571-0.971-3.002-1.337-4.293-1.1c-1.291,0.237-2.262,0.887-2.914,1.949c-0.672,1.094-1.564,4.012-2.677,8.754l-10.029,43.001
		l28.628-24.142l1.502-6.442l1.196-5.144c0.337-1.947,0.484-3.752,0.443-5.416c-0.021-0.832-0.188-1.625-0.502-2.379
		c-0.396-1.02-0.888-1.884-1.475-2.592c-0.448-0.535-1.28-1.179-2.496-1.929l1.065-1.734l23.48,14.505l-1.065,1.734l-1.601-0.989
		c-1.66-1.026-3.106-1.401-4.337-1.128c-1.231,0.274-2.24,1.051-3.027,2.332c-0.979,1.593-2.019,4.786-3.122,9.579l-9.65,41.684
		l32.973-27.922c3.684-3.069,5.986-5.353,6.907-6.852c0.441-0.719,0.639-1.523,0.593-2.414c-0.046-0.89-0.319-1.662-0.817-2.315
		c-0.858-1.133-2.191-2.259-4-3.376l1.065-1.734L262.731,563.831L262.731,563.831z"/>
	
		<linearGradient id="flowRoot3683_1_" gradientUnits="userSpaceOnUse" x1="305.1475" y1="363.0243" x2="204.3519" y2="473.1167" gradientTransform="matrix(0.7737 0.1697 0.1657 -0.7553 71.192 822.4572)">
		<stop  offset="0" style="stop-color:#000066"/>
		<stop  offset="1" style="stop-color:#00004F"/>
	</linearGradient>
	<path id="flowRoot3683_2_" inkscape:connector-curvature="0" class="st4" d="M377.804,519.81l-6,6.631l-5.852-6.868l5.863-6.675
		L377.804,519.81z M383.784,532.09l-6.012,6.511l-5.943-6.897l5.857-6.501L383.784,532.09z M371.743,533.545l-5.937,6.593
		l-5.977-6.791l5.846-6.622L371.743,533.545L371.743,533.545z M371.967,581.378l-3.611-1.139c-1.828-0.577-3.342-1.376-4.541-2.397
		c-1.2-1.021-2.311-2.393-3.336-4.118c-1.71,0.939-3.142,1.48-4.294,1.623c-1.636,0.184-3.825-0.156-6.567-1.021l-5.622-1.774
		c-1.042,3.252-2.726,6.205-5.052,8.857c-3.017,3.447-6.681,5.774-10.994,6.982c-5.419,1.521-11.495,1.219-18.229-0.906
		c-6.094-1.923-10.359-4.631-12.796-8.125c-2.662-3.837-3.093-8.567-1.292-14.188c0.974-3.04,2.28-6.015,3.916-8.924
		c1.637-2.909,3.507-5.764,5.612-8.564c1.282-1.697,3.38-4.266,6.294-7.706l1.522,1.531c-3.764,4.418-6.459,7.985-8.084,10.703
		c-1.626,2.718-2.829,5.296-3.611,7.736c-1.405,4.384-1.124,8.141,0.842,11.272c1.966,3.131,5.447,5.485,10.444,7.062
		c5.85,1.846,11.455,2.311,16.815,1.394c6.668-1.127,10.846-4.324,12.534-9.591c1.133-3.535,1.645-7.071,1.537-10.609
		c-0.079-2.789-0.559-5.587-1.437-8.394l7.276-9.674c0.595,3.38,0.809,6.27,0.644,8.67c-0.247,3.387-1.242,7.802-2.986,13.246
		l5.622,1.774c2.895,0.913,5.115,1.05,6.663,0.409c1.349-0.547,2.319-1.74,2.908-3.578c0.328-1.025,0.606-2.076,0.834-3.153
		c0.227-1.077,0.433-2.267,0.616-3.572l2.848-2.605l-0.917,5.374c-0.44,3.676-0.339,6.452,0.301,8.328
		c0.705,2.091,2.201,3.497,4.486,4.218c0.701,0.221,1.324,0.136,1.869-0.257c0.545-0.392,0.942-0.977,1.191-1.755
		c0.566-1.768,0.7-3.808,0.401-6.121c-0.225-1.706-0.679-3.484-1.361-5.334l4.914-4.814c0.56,3.174,0.833,5.304,0.821,6.39
		c-0.043,2.439-0.745,5.779-2.104,10.021L371.967,581.378L371.967,581.378z"/>
	
		<linearGradient id="text3899_1_" gradientUnits="userSpaceOnUse" x1="589.2399" y1="524.8605" x2="510.6684" y2="621.4963" gradientTransform="matrix(0.8228 0.0741 0.0748 -0.8147 -435.6505 993.0266)">
		<stop  offset="0" style="stop-color:#000066"/>
		<stop  offset="1" style="stop-color:#00004F"/>
	</linearGradient>
	<path id="text3899_2_" inkscape:connector-curvature="0" class="st5" d="M102.357,589.773l2.544,0.529
		c-1.227,5.781-3.333,9.736-6.319,11.865c-2.985,2.129-6.292,2.816-9.919,2.061c-2.968-0.618-5.633-2.08-7.997-4.386
		c-2.363-2.307-3.825-7.472-4.384-15.496l-1.556-22.558l-28.933,32.716l-13.355-2.78l40.985-44.304
		c-0.211-6.882-1.114-12.132-2.707-15.749c-1.593-3.617-4.062-5.774-7.407-6.47c-2.685-0.559-5.198-0.251-7.538,0.924
		c-2.34,1.175-3.981,3.402-4.923,6.683l-2.544-0.529c1.283-5.349,3.587-9.367,6.913-12.056c3.325-2.689,6.967-3.621,10.924-2.798
		c2.544,0.53,4.785,1.846,6.724,3.95c1.939,2.104,3.327,5.296,4.165,9.577c0.837,4.281,1.71,12.972,2.618,26.074l1.324,18.441
		c0.495,7.629,1.604,12.893,3.325,15.792c1.721,2.899,4.136,4.672,7.245,5.319C96.818,597.674,100.423,595.407,102.357,589.773
		L102.357,589.773L102.357,589.773z"/>
	
		<linearGradient id="path3098_1_" gradientUnits="userSpaceOnUse" x1="1302.6396" y1="-61.0278" x2="1109.7006" y2="137.9723" gradientTransform="matrix(0.3479 0 0 -0.367 -176.1345 713.8434)">
		<stop  offset="0" style="stop-color:#000066"/>
		<stop  offset="1" style="stop-color:#00004F"/>
	</linearGradient>
	<path id="path3098_2_" inkscape:connector-curvature="0" class="st6" d="M243.075,739.291c-0.09-0.454-1.272-12.552-2.626-26.883
		c-1.354-14.332-2.558-26.854-2.674-27.827l-0.212-1.77l-0.993,1.915c-2.125,4.099-4.55,6.947-5.916,6.947
		c-0.525,0-1.041-0.146-1.145-0.325c-0.105-0.179,0.413-1.706,1.151-3.395c4.408-10.09,7.687-23.146,7.693-30.641
		c0.002-2.714,0.315-4.542,0.778-4.542c0.873,0,9.661,4.192,9.661,4.609c0,0.26-0.624,1.036-1.387,1.725
		c-1.237,1.117-1.517,1.704-2.59,5.432c-0.662,2.299-1.14,4.246-1.063,4.327c0.077,0.081,5.43-0.424,11.895-1.124l11.755-1.271
		l2.581-2.812c1.419-1.546,2.687-2.812,2.817-2.812c0.393,0,6.012,4.603,7.077,5.798c0.547,0.614,0.926,1.333,0.842,1.598
		c-0.11,0.348-2.701,0.754-9.275,1.455c-5.017,0.535-9.177,1.033-9.244,1.107s0.172,3.107,0.53,6.741s0.656,6.919,0.661,7.301
		c0.009,0.635,0.212,0.676,2.358,0.472l2.348-0.224l2.288-2.643c1.682-1.942,2.419-2.558,2.783-2.324
		c1.423,0.917,7.468,6.212,7.561,6.623c0.136,0.597-0.364,0.684-9.501,1.654c-4.018,0.427-7.327,0.8-7.354,0.83
		c-0.054,0.06,1.21,12.954,1.353,13.8c0.068,0.403,0.559,0.514,2.002,0.452c1.894-0.081,1.934-0.107,4.382-2.828
		c1.359-1.51,2.689-2.743,2.957-2.741c0.569,0.005,7.966,6.468,7.966,6.96c0,0.183-0.117,0.406-0.261,0.497
		c-0.143,0.09-3.861,0.534-8.262,0.986c-4.401,0.452-8.096,0.925-8.212,1.05c-0.258,0.28,1.164,15.309,1.48,15.639
		c0.124,0.13,1.682,0.065,3.462-0.145l3.236-0.381l2.807-2.946c1.544-1.62,3.002-2.946,3.239-2.946c0.537,0,8.773,6.888,8.773,7.337
		c0,0.18-0.133,0.414-0.296,0.52c-0.163,0.106-8.876,1.106-19.363,2.221s-19.145,2.11-19.24,2.211
		c-0.095,0.1-0.001,1.794,0.209,3.764l0.382,3.582l-1.08,0.994c-0.969,0.893-4.982,2.859-5.833,2.859
		C243.391,740.116,243.165,739.745,243.075,739.291L243.075,739.291z M255.353,724.531c2.557-0.288,4.707-0.585,4.779-0.661
		c0.155-0.163-1.276-15.431-1.467-15.652c-0.182-0.211-10.111,0.768-10.503,1.036c-0.235,0.16,0.98,15.029,1.285,15.723
		C249.521,725.146,250.666,725.059,255.353,724.531L255.353,724.531z M254.01,704.859c2.2-0.228,4.07-0.486,4.156-0.573
		c0.226-0.23-1.041-13.854-1.315-14.144c-0.27-0.286-10.216,0.765-10.534,1.112c-0.118,0.129,0.069,3.042,0.414,6.473
		c0.345,3.431,0.637,6.625,0.649,7.097c0.019,0.781,0.139,0.84,1.325,0.654C249.422,705.366,251.809,705.087,254.01,704.859
		L254.01,704.859z M251.401,686.883c2.105-0.213,4.144-0.455,4.533-0.538l0.706-0.151l-0.694-7.353
		c-0.653-6.916-0.736-7.353-1.402-7.346c-1.774,0.018-9.725,1.103-9.955,1.359c-0.141,0.157,0.038,3.259,0.398,6.892
		c0.36,3.633,0.66,6.813,0.665,7.065C245.662,687.369,246.489,687.38,251.401,686.883L251.401,686.883z M206.565,732.134
		c-1.767-2.191-2.295-3.111-2.298-4.004c-0.003-1.155,0.006-1.161,2.518-1.603c3.799-0.669,13.596-3.369,20.426-5.63
		c3.342-1.106,6.199-1.932,6.349-1.834s0.27,0.539,0.268,0.982c-0.003,0.646-0.805,1.266-4.088,3.161
		c-2.246,1.296-7.715,4.475-12.155,7.065c-4.439,2.59-8.219,4.708-8.399,4.708S207.827,733.698,206.565,732.134L206.565,732.134z
		 M206.353,712.231c-0.958-2.015-1.743-3.896-1.743-4.181c0-0.285,0.405-0.625,0.9-0.756c1.297-0.343,4.096-3.243,5.912-6.125
		c1.687-2.677,6.238-12.368,5.951-12.671c-0.096-0.101-0.698,0.102-1.337,0.451c-2.233,1.219-11.566,5.291-12.126,5.291
		c-0.558,0-4.517-5.74-4.517-6.549c0-0.226,0.755-0.815,1.677-1.308c1.553-0.83,1.787-1.147,3.168-4.282
		c2.861-6.496,5.358-14.547,7.02-22.634c0.523-2.546,0.927-3.762,1.25-3.762c0.789,0,7.378,4.911,7.386,5.505
		c0.003,0.303-0.593,0.999-1.327,1.546c-1.076,0.802-1.557,1.587-2.477,4.037c-1.604,4.271-5.186,11.964-7.441,15.978
		c-1.049,1.867-1.878,3.395-1.842,3.395c0.035,0,2.648-0.41,5.805-0.912c3.157-0.502,5.867-0.914,6.023-0.917
		c0.633-0.013,4.761-10.371,4.761-11.946c0-1.37,1.163-0.883,4.349,1.82c1.817,1.542,3.304,2.867,3.304,2.944
		s-0.693,0.856-1.539,1.732c-0.998,1.032-2.97,4.233-5.607,9.1c-4.324,7.982-7.636,13.544-10.118,16.993
		c-0.837,1.163-1.522,2.163-1.522,2.222s3.718-0.434,8.262-1.096s8.849-1.207,9.567-1.212c1.255-0.009,1.305,0.039,1.305,1.25
		c0,1.22-0.061,1.276-2,1.84c-5.012,1.458-14.144,4.764-17.296,6.263c-1.907,0.907-3.589,1.649-3.737,1.649
		C208.217,715.894,207.312,714.246,206.353,712.231L206.353,712.231z M257.696,666.149c-0.296-0.312-0.706-1.261-0.912-2.11
		c-0.975-4.016-2.47-6.78-5.193-9.604c-1.315-1.363-1.756-2.091-1.756-2.893c0-1.037,0.044-1.065,1.382-0.876
		c2.406,0.34,6.931,2.96,9.489,5.493c2.344,2.321,2.348,2.328,2.346,4.33c-0.002,2.313-0.98,4.363-2.627,5.509
		C259.187,666.86,258.411,666.903,257.696,666.149L257.696,666.149z"/>
	
		<linearGradient id="path4921_1_" gradientUnits="userSpaceOnUse" x1="-104.2899" y1="-932.8139" x2="-427.5387" y2="-504.5092" gradientTransform="matrix(0.1383 -0.0481 -0.0475 -0.1442 98.784 315.912)">
		<stop  offset="0" style="stop-color:#000066"/>
		<stop  offset="1" style="stop-color:#00004F"/>
	</linearGradient>
	<path id="path4921_2_" inkscape:connector-curvature="0" class="st7" d="M88.085,476.885c-0.835-0.392-2.187-1.38-5.316-3.887
		c-2.308-1.849-4.261-3.463-4.339-3.587c-0.079-0.124-0.098-0.283-0.042-0.352c0.055-0.07,1.014-0.704,2.131-1.41
		c11.4-7.203,20.907-15.554,27.482-24.139c8.016-10.467,14.31-23.286,17.241-35.115c0.312-1.257,0.633-2.485,0.715-2.728
		l0.149-0.442l4.572,2.229c2.515,1.226,4.622,2.313,4.682,2.415c0.202,0.341-1.69,6.94-3.172,11.059
		c-3.325,9.246-8.309,18.597-13.762,25.817c-7.226,9.568-15.778,18.069-25.999,25.842l-1.995,1.517l0.016,0.832
		c0.009,0.457-0.054,1.127-0.139,1.488c-0.13,0.549-0.233,0.684-0.629,0.821C89.294,477.379,88.994,477.311,88.085,476.885
		L88.085,476.885z M77.629,439.534c-7.565-2.267-12.803-3.52-17.92-4.289c-1.048-0.157-1.925-0.349-1.951-0.425
		c-0.088-0.267,3.024-10.055,3.218-10.123c0.231-0.08,10.622,1.888,12.82,2.428c2.515,0.618,10.349,2.805,10.493,2.929
		c0.12,0.104-3.146,9.951-3.411,10.285C80.819,440.415,79.357,440.052,77.629,439.534L77.629,439.534z M82.262,413.805
		c-5.191-1.474-8.218-2.229-11.917-2.976c-6.06-1.222-8.628-1.829-8.621-2.038c0.015-0.438,2.25-9.497,2.39-9.69
		c0.106-0.146,0.295-0.182,0.612-0.117c0.252,0.051,2.799,0.568,5.66,1.148c2.861,0.58,6.068,1.265,7.127,1.522
		c2.012,0.488,8.372,2.16,9.502,2.498l0.653,0.195l-0.117,0.497c-0.395,1.677-2.601,9.433-2.711,9.533
		C84.766,414.444,83.606,414.186,82.262,413.805L82.262,413.805z"/>
	
		<linearGradient id="flowRoot2865_1_" gradientUnits="userSpaceOnUse" x1="-23.6719" y1="606.96" x2="-33.4946" y2="615.181" gradientTransform="matrix(6.9078 4.1378 5.1906 -7.4887 -2606.5168 5121.8882)">
		<stop  offset="0" style="stop-color:#000066"/>
		<stop  offset="1" style="stop-color:#00004F"/>
	</linearGradient>
	<path id="flowRoot2865_2_" inkscape:connector-curvature="0" class="st8" d="M353.021,383.844c0.83,0.497,2.846,2.214,6.05,5.149
		c1.05,0.968,2.045,1.733,2.984,2.296c2.708,1.622,6.909,3.969,12.602,7.04l7.027,3.064c4.476,2.681,6.236,4.711,5.281,6.09
		c-0.374,0.539-1.467,1.326-3.279,2.36l-1.371,0.96l-13.259,13.039c-0.666,0.62-0.626,1.577,0.122,2.871
		c0.703,1.355,0.826,2.362,0.37,3.02c-1.038,1.497-4.431,0.525-10.178-2.918l-1.472-0.754l-8.291-4.458
		c-4.436-2.401-6.654-3.602-6.654-3.602c-0.331-0.198-1.215,0.289-2.653,1.462l-1.91,1.398l-1.242,0.273l-0.645-0.258
		c-1.27-0.761,0.524-4.985,5.383-12.673c0.193-0.392,0.352-0.678,0.477-0.859l5.606-9.612c1.552-2.463,2.404-4.03,2.557-4.701
		c0.747-2.435,0.14-4.832-1.821-7.192c-1.159-1.375-1.587-2.394-1.282-3.058C348.172,381.703,350.037,382.057,353.021,383.844
		L353.021,383.844L353.021,383.844z M344.617,414.419l13.533,7.726c2.584,1.124,4.699,1.118,6.344-0.015
		c1.273-0.935,4.042-4.364,8.306-10.289c1.328-1.916,2.498-3.547,3.509-4.892c0.76-0.986,0.94-1.811,0.541-2.474
		c-0.194-0.284-0.54-0.576-1.038-0.874l-17.366-10.15L344.617,414.419L344.617,414.419z M340.311,429.262l3.814,2.793
		c4.654,3.212,7.479,5.116,8.474,5.712l9.368,5.611l9.656,5.531l0.167,0.1l4.064,1.414l0.083,0.05
		c3.702,2.217,5.137,3.926,4.306,5.125c-0.332,0.479-1.279,1.055-2.841,1.729c-0.471,0.228-0.816,0.445-1.036,0.653
		c-3.931,3.749-6.027,5.758-6.288,6.025c-0.154,0.332,0.031,0.91,0.556,1.734c0.345,0.631,0.428,1.189,0.247,1.673
		c-0.069,0.212-0.145,0.379-0.228,0.5c-0.248,0.358-0.725,0.538-1.431,0.54c-1.12-0.076-4.539-1.742-10.26-5.001l-17.407-10.427
		c-1.767-1.059-3.233-0.749-4.396,0.929l-3.051,4.402c-1.703,2.457-0.704,4.795,2.998,7.012l9.493,5.43l0.164,0.099
		c4.698,2.814,7.234,4.29,7.606,4.428c0.332,0.199,0.684,0.368,1.055,0.508l6.738,2.127c0.374,0.139,0.726,0.307,1.057,0.505
		c4.478,2.682,6.093,4.922,4.848,6.719c-0.997,1.439-2.684,1.447-5.06,0.023l-26.837-15.948c-0.609-0.365-1.217-0.729-1.824-1.093
		c-4.753-2.847-7.156-5.643-7.209-8.39c-0.039-1.635,0.627-3.441,1.997-5.417l2.99-4.314c1.162-1.676,0.852-3.43-0.929-5.26
		l-1.824-2.11c-0.205-0.379-0.184-0.748,0.065-1.106c0.623-0.899,2.337-0.551,5.14,1.045c0.277,0.166,0.47,0.282,0.582,0.349
		l6.608,5.864c0.332,0.199,0.637,0.381,0.913,0.547c3.978,2.383,10.043,5.931,18.195,10.643c2.543,1.523,4.686,1.536,6.43,0.036
		c0.663-0.62,1.431-1.558,2.303-2.816c1.204-1.737,1.812-2.728,1.825-2.974c0.153-0.672-0.157-1.239-0.929-1.702l-19.895-11.409
		c-0.223-0.133-1.743-0.705-4.561-1.715c-0.58-0.179-1.063-0.384-1.449-0.616c-1.327-0.795-2.84-2.675-4.539-5.641l-1.116-2.45
		c-0.152-0.683-0.124-1.175,0.084-1.475C339.275,428.896,339.703,428.898,340.311,429.262L340.311,429.262L340.311,429.262z
		 M392.37,436.918c-4.775,6.889-8.539,10.57-11.291,11.043l-1.286-0.01l-0.248-0.148c-0.995-0.596,0.328-3.576,3.969-8.939
		l17.317-24.984l1.411-2.206l0.063-0.09c1.314-2.01,0.93-5.122-1.153-9.338c-1.49-2.929-2.139-4.759-1.945-5.489
		c0.498-0.719,1.604-0.565,3.317,0.462c2.376,1.423,4.862,3.929,7.459,7.518c1.313,1.718,1.988,3.055,2.027,4.012
		c0.042,0.618-0.256,1.329-0.893,2.135c-3.196,3.936-4.815,5.934-4.856,5.994l-11.772,16.984c1.27,0.761,3.881,1.731,7.834,2.911
		c1.629,0.469,2.942,1.002,3.937,1.598c4.255,2.549,5.801,4.661,4.639,6.338c-1.122,1.618-4.528,0.722-10.22-2.687l-6.735-4.162
		L392.37,436.918L392.37,436.918z"/>
</g>
</svg>
