<?xml version='1.0' encoding='utf8'?>
<svg xmlns:xlink="http://www.w3.org/1999/xlink" xmlns="http://www.w3.org/2000/svg" version="1.1" baseProfile="full" width="490" height="200">
  <title>VFPt_Solenoid_correct</title>
  <desc>VFPt_Solenoid_correct
created with VectorFieldPlot 1.1
http://commons.wikimedia.org/wiki/User:Geek3/VectorFieldPlot
and manually modified

about: http://commons.wikimedia.org/wiki/File:VFPt_Solenoid_correct.svg
rights: GNU Free Documentation license,
        Creative Commons Attribution ShareAlike license
  </desc>
  <defs>
    <path id="arrow1" stroke="none" fill="#000000" transform="scale(0.01)" d="M -2,2 L 4,0 L -2,-2 L -2,2 Z"/>
  </defs>
  <rect id="background" x="0" y="0" width="490" height="200" fill="#ffffff" opacity="0"/>
  <g id="image" transform="translate(245.0,100.0) scale(100.0,-100.0)">
    <g id="fieldlines" fill="none" stroke="#000000" stroke-width="0.01" stroke-linejoin="round" stroke-linecap="round">
      <g id="fieldline1">
        <path d="M 0.0000,-0.4550 L 0.1510,-0.4560 L 0.2873,-0.4587 L 0.4037,-0.4629 L 0.5017,-0.4682 L 0.5848,-0.4746 L 0.6558,-0.4819 L 0.7171,-0.4900 L 0.6183,-0.5711 L 0.5599,-0.6163 L 0.5082,-0.6533 L 0.4598,-0.6851 L 0.4134,-0.7128 L 0.3681,-0.7369 L 0.3237,-0.7579 L 0.2798,-0.7760 L 0.2362,-0.7912 L 0.1930,-0.8038 L 0.1500,-0.8138 L 0.1070,-0.8212 L 0.0642,-0.8262 L 0.0214,-0.8286 L -0.0215,-0.8287 L -0.0642,-0.8262 L -0.1071,-0.8212 L -0.1500,-0.8138 L -0.1930,-0.8038 L -0.2363,-0.7912 L -0.2798,-0.7760 L -0.3237,-0.7579 L -0.3681,-0.7369 L -0.4134,-0.7128 L -0.4598,-0.6851 L -0.5082,-0.6533 L -0.5599,-0.6163 L -0.6183,-0.5711 L -0.7171,-0.4900 L -0.6558,-0.4819 L -0.5848,-0.4746 L -0.5018,-0.4682 L -0.4037,-0.4629 L -0.2873,-0.4587 L -0.1510,-0.4560 L 0.0000,-0.4550 Z"/>
        <g id="arrows1">
          <use xlink:href="#arrow1" transform="translate(0.0000,-0.8284) rotate(178.07) scale(2.0)"/>
        </g>
      </g>
      <g id="fieldline2">
        <path d="M -0.7492,-1.0050 L -0.7764,-0.9541 L -0.8026,-0.9002 L -0.8278,-0.8427 L -0.8525,-0.7805 L -0.8772,-0.7113 L -0.9060,-0.6225 L -0.9321,-0.5403 L -0.9445,-0.5065 L -0.9515,-0.4897 L -0.9356,-0.4806 L -0.9100,-0.4683 L -0.8794,-0.4564 L -0.8432,-0.4450 L -0.8008,-0.4343 L -0.7510,-0.4244 L -0.6926,-0.4153 L -0.6235,-0.4072 L -0.5412,-0.4001 L -0.4421,-0.3941 L -0.3212,-0.3894 L -0.1751,-0.3862 L -0.0083,-0.3850 L 0.1595,-0.3860 L 0.3080,-0.3890 L 0.4310,-0.3936 L 0.5319,-0.3994 L 0.6155,-0.4064 L 0.6857,-0.4144 L 0.7451,-0.4234 L 0.7956,-0.4332 L 0.8388,-0.4438 L 0.8756,-0.4551 L 0.9068,-0.4669 L 0.9326,-0.4790 L 0.9520,-0.4900 L 0.9454,-0.5042 L 0.9335,-0.5361 L 0.8861,-0.6847 L 0.8608,-0.7579 L 0.8364,-0.8219 L 0.8114,-0.8808 L 0.7913,-0.9242 L 0.7705,-0.9655 L 0.7492,-1.0050"/>
        <g id="arrows2">
          <use xlink:href="#arrow1" transform="translate(-0.8714,-0.7272) rotate(108.56) scale(2.0)"/>
          <use xlink:href="#arrow1" transform="translate(0.8713,-0.7272) rotate(-109.86) scale(2.0)"/>
        </g>
      </g>
      <g id="fieldline3">
        <path d="M -1.3278,-1.0050 L -1.3068,-0.9305 L -1.2838,-0.8579 L -1.2591,-0.7883 L -1.2333,-0.7227 L -1.2070,-0.6624 L -1.1809,-0.6085 L -1.1556,-0.5616 L -1.1315,-0.5217 L -1.1086,-0.4884 L -1.0867,-0.4606 L -1.0652,-0.4372 L -1.0435,-0.4170 L -1.0207,-0.3992 L -0.9960,-0.3831 L -0.9686,-0.3683 L -0.9378,-0.3547 L -0.9028,-0.3420 L -0.8628,-0.3302 L -0.8168,-0.3195 L -0.7632,-0.3098 L -0.7002,-0.3010 L -0.6255,-0.2934 L -0.5348,-0.2869 L -0.4220,-0.2816 L -0.2789,-0.2776 L -0.0999,-0.2753 L 0.0999,-0.2753 L 0.2789,-0.2776 L 0.4220,-0.2816 L 0.5348,-0.2869 L 0.6255,-0.2934 L 0.7002,-0.3010 L 0.7632,-0.3098 L 0.8168,-0.3195 L 0.8628,-0.3302 L 0.9028,-0.3420 L 0.9378,-0.3547 L 0.9686,-0.3683 L 0.9960,-0.3831 L 1.0207,-0.3992 L 1.0435,-0.4170 L 1.0652,-0.4372 L 1.0867,-0.4606 L 1.1086,-0.4884 L 1.1315,-0.5217 L 1.1556,-0.5616 L 1.1809,-0.6085 L 1.2070,-0.6624 L 1.2333,-0.7227 L 1.2591,-0.7883 L 1.2838,-0.8579 L 1.3068,-0.9305 L 1.3278,-1.0050"/>
        <g id="arrows3">
          <use xlink:href="#arrow1" transform="translate(-1.2139,-0.6789) rotate(65.00) scale(2.0)"/>
          <use xlink:href="#arrow1" transform="translate(0.0000,-0.2753) rotate(-0.00) scale(2.0)"/>
          <use xlink:href="#arrow1" transform="translate(1.2141,-0.6788) rotate(-66.87) scale(2.0)"/>
        </g>
      </g>
      <g id="fieldline4">
        <path d="M -2.0647,-1.0050 L -1.9834,-0.9215 L -1.9018,-0.8412 L -1.8203,-0.7645 L -1.7397,-0.6919 L -1.6607,-0.6241 L -1.5842,-0.5615 L -1.5110,-0.5049 L -1.4420,-0.4544 L -1.3774,-0.4102 L -1.3173,-0.3719 L -1.2614,-0.3390 L -1.2089,-0.3109 L -1.1589,-0.2869 L -1.1104,-0.2664 L -1.0624,-0.2487 L -1.0137,-0.2333 L -0.9630,-0.2200 L -0.9088,-0.2085 L -0.8492,-0.1984 L -0.7819,-0.1897 L -0.7040,-0.1824 L -0.6099,-0.1762 L -0.4914,-0.1713 L -0.3348,-0.1675 L -0.1240,-0.1653 L 0.1240,-0.1653 L 0.3348,-0.1675 L 0.4914,-0.1713 L 0.6099,-0.1762 L 0.7040,-0.1824 L 0.7819,-0.1897 L 0.8492,-0.1984 L 0.9088,-0.2085 L 0.9630,-0.2200 L 1.0137,-0.2333 L 1.0624,-0.2487 L 1.1104,-0.2664 L 1.1589,-0.2869 L 1.2089,-0.3109 L 1.2614,-0.3390 L 1.3173,-0.3719 L 1.3774,-0.4102 L 1.4420,-0.4544 L 1.5110,-0.5049 L 1.5842,-0.5615 L 1.6607,-0.6241 L 1.7397,-0.6919 L 1.8203,-0.7645 L 1.9018,-0.8412 L 1.9834,-0.9215 L 2.0647,-1.0050"/>
        <g id="arrows4">
          <use xlink:href="#arrow1" transform="translate(-1.7278,-0.6817) rotate(40.65) scale(2.0)"/>
          <use xlink:href="#arrow1" transform="translate(-0.0000,-0.1653) rotate(0.00) scale(2.0)"/>
          <use xlink:href="#arrow1" transform="translate(1.7277,-0.6818) rotate(-41.54) scale(2.0)"/>
        </g>
      </g>
      <g id="fieldline5">
        <path d="M -2.4550,-0.3720 L -2.2460,-0.3173 L -2.0467,-0.2677 L -1.8602,-0.2238 L -1.6899,-0.1862 L -1.5383,-0.1552 L -1.4052,-0.1304 L -1.2878,-0.1109 L -1.1819,-0.0958 L -1.0824,-0.0840 L -0.9836,-0.0750 L -0.8785,-0.0680 L -0.7578,-0.0627 L -0.6024,-0.0588 L -0.3735,-0.0561 L -0.0000,-0.0550 L 0.3735,-0.0561 L 0.6024,-0.0588 L 0.7578,-0.0627 L 0.8785,-0.0680 L 0.9836,-0.0750 L 1.0824,-0.0840 L 1.1819,-0.0958 L 1.2878,-0.1109 L 1.4052,-0.1304 L 1.5383,-0.1552 L 1.6899,-0.1862 L 1.8602,-0.2238 L 2.0467,-0.2677 L 2.2460,-0.3173 L 2.4550,-0.3720"/>
        <g id="arrows5">
          <use xlink:href="#arrow1" transform="translate(-1.9727,-0.2503) rotate(13.25) scale(2.0)"/>
          <use xlink:href="#arrow1" transform="translate(-0.0000,-0.0550) rotate(-0.13) scale(2.0)"/>
          <use xlink:href="#arrow1" transform="translate(1.9727,-0.2503) rotate(-13.25) scale(2.0)"/>
        </g>
      </g>
      <g id="fieldline6">
        <path d="M -2.4550,0.3720 L -2.2460,0.3173 L -2.0467,0.2677 L -1.8602,0.2238 L -1.6899,0.1862 L -1.5383,0.1552 L -1.4052,0.1304 L -1.2878,0.1109 L -1.1819,0.0958 L -1.0824,0.0840 L -0.9836,0.0750 L -0.8785,0.0680 L -0.7578,0.0627 L -0.6024,0.0588 L -0.3735,0.0561 L -0.0000,0.0550 L 0.3735,0.0561 L 0.6024,0.0588 L 0.7578,0.0627 L 0.8785,0.0680 L 0.9836,0.0750 L 1.0824,0.0840 L 1.1819,0.0958 L 1.2878,0.1109 L 1.4052,0.1304 L 1.5383,0.1552 L 1.6899,0.1862 L 1.8602,0.2238 L 2.0467,0.2677 L 2.2460,0.3173 L 2.4550,0.3720"/>
        <g id="arrows6">
          <use xlink:href="#arrow1" transform="translate(-1.9727,0.2503) rotate(-13.25) scale(2.0)"/>
          <use xlink:href="#arrow1" transform="translate(-0.0000,0.0550) rotate(0.13) scale(2.0)"/>
          <use xlink:href="#arrow1" transform="translate(1.9727,0.2503) rotate(13.25) scale(2.0)"/>
        </g>
      </g>
      <g id="fieldline7">
        <path d="M -2.0647,1.0050 L -1.9834,0.9215 L -1.9018,0.8412 L -1.8203,0.7645 L -1.7397,0.6919 L -1.6607,0.6241 L -1.5842,0.5615 L -1.5110,0.5049 L -1.4420,0.4544 L -1.3774,0.4102 L -1.3173,0.3719 L -1.2614,0.3390 L -1.2089,0.3109 L -1.1589,0.2869 L -1.1104,0.2664 L -1.0624,0.2487 L -1.0137,0.2333 L -0.9630,0.2200 L -0.9088,0.2085 L -0.8492,0.1984 L -0.7819,0.1897 L -0.7040,0.1824 L -0.6099,0.1762 L -0.4914,0.1713 L -0.3348,0.1675 L -0.1240,0.1653 L 0.1240,0.1653 L 0.3348,0.1675 L 0.4914,0.1713 L 0.6099,0.1762 L 0.7040,0.1824 L 0.7819,0.1897 L 0.8492,0.1984 L 0.9088,0.2085 L 0.9630,0.2200 L 1.0137,0.2333 L 1.0624,0.2487 L 1.1104,0.2664 L 1.1589,0.2869 L 1.2089,0.3109 L 1.2614,0.3390 L 1.3173,0.3719 L 1.3774,0.4102 L 1.4420,0.4544 L 1.5110,0.5049 L 1.5842,0.5615 L 1.6607,0.6241 L 1.7397,0.6919 L 1.8203,0.7645 L 1.9018,0.8412 L 1.9834,0.9215 L 2.0647,1.0050"/>
        <g id="arrows7">
          <use xlink:href="#arrow1" transform="translate(-1.7278,0.6817) rotate(-40.65) scale(2.0)"/>
          <use xlink:href="#arrow1" transform="translate(0.0000,0.1653) rotate(-0.00) scale(2.0)"/>
          <use xlink:href="#arrow1" transform="translate(1.7277,0.6818) rotate(41.54) scale(2.0)"/>
        </g>
      </g>
      <g id="fieldline8">
        <path d="M -1.3278,1.0050 L -1.3068,0.9305 L -1.2838,0.8579 L -1.2591,0.7883 L -1.2333,0.7227 L -1.2070,0.6624 L -1.1809,0.6085 L -1.1556,0.5616 L -1.1315,0.5217 L -1.1086,0.4884 L -1.0867,0.4606 L -1.0652,0.4372 L -1.0435,0.4170 L -1.0207,0.3992 L -0.9960,0.3831 L -0.9686,0.3683 L -0.9378,0.3547 L -0.9028,0.3420 L -0.8628,0.3302 L -0.8168,0.3195 L -0.7632,0.3098 L -0.7002,0.3010 L -0.6255,0.2934 L -0.5348,0.2869 L -0.4220,0.2816 L -0.2789,0.2776 L -0.0999,0.2753 L 0.0999,0.2753 L 0.2789,0.2776 L 0.4220,0.2816 L 0.5348,0.2869 L 0.6255,0.2934 L 0.7002,0.3010 L 0.7632,0.3098 L 0.8168,0.3195 L 0.8628,0.3302 L 0.9028,0.3420 L 0.9378,0.3547 L 0.9686,0.3683 L 0.9960,0.3831 L 1.0207,0.3992 L 1.0435,0.4170 L 1.0652,0.4372 L 1.0867,0.4606 L 1.1086,0.4884 L 1.1315,0.5217 L 1.1556,0.5616 L 1.1809,0.6085 L 1.2070,0.6624 L 1.2333,0.7227 L 1.2591,0.7883 L 1.2838,0.8579 L 1.3068,0.9305 L 1.3278,1.0050"/>
        <g id="arrows8">
          <use xlink:href="#arrow1" transform="translate(-1.2139,0.6789) rotate(-65.00) scale(2.0)"/>
          <use xlink:href="#arrow1" transform="translate(0.0000,0.2753) rotate(0.00) scale(2.0)"/>
          <use xlink:href="#arrow1" transform="translate(1.2141,0.6788) rotate(66.87) scale(2.0)"/>
        </g>
      </g>
      <g id="fieldline9">
        <path d="M -0.7492,1.0050 L -0.7764,0.9542 L -0.8026,0.9002 L -0.8278,0.8427 L -0.8524,0.7806 L -0.8772,0.7114 L -0.9060,0.6226 L -0.9321,0.5403 L -0.9444,0.5065 L -0.9515,0.4897 L -0.9353,0.4804 L -0.9097,0.4682 L -0.8790,0.4563 L -0.8428,0.4449 L -0.8003,0.4342 L -0.7505,0.4243 L -0.6920,0.4152 L -0.6228,0.4071 L -0.5404,0.4000 L -0.4412,0.3941 L -0.3201,0.3894 L -0.1739,0.3862 L -0.0068,0.3850 L 0.1610,0.3860 L 0.3093,0.3890 L 0.4321,0.3936 L 0.5328,0.3995 L 0.6162,0.4065 L 0.6862,0.4145 L 0.7455,0.4234 L 0.7960,0.4333 L 0.8391,0.4439 L 0.8759,0.4552 L 0.9070,0.4670 L 0.9328,0.4791 L 0.9520,0.4900 L 0.9454,0.5042 L 0.9335,0.5360 L 0.8861,0.6849 L 0.8608,0.7579 L 0.8364,0.8219 L 0.8114,0.8808 L 0.7913,0.9242 L 0.7705,0.9655 L 0.7492,1.0050"/>
        <g id="arrows9">
          <use xlink:href="#arrow1" transform="translate(-0.8714,0.7272) rotate(-108.56) scale(2.0)"/>
          <use xlink:href="#arrow1" transform="translate(0.8713,0.7272) rotate(109.86) scale(2.0)"/>
        </g>
      </g>
      <g id="fieldline10">
        <path d="M 0.0000,0.4550 L 0.1511,0.4560 L 0.2873,0.4587 L 0.4037,0.4629 L 0.5018,0.4682 L 0.5848,0.4746 L 0.6558,0.4819 L 0.7171,0.4900 L 0.6183,0.5711 L 0.5599,0.6163 L 0.5082,0.6533 L 0.4598,0.6851 L 0.4134,0.7128 L 0.3681,0.7369 L 0.3237,0.7579 L 0.2798,0.7760 L 0.2362,0.7912 L 0.1930,0.8038 L 0.1500,0.8138 L 0.1070,0.8212 L 0.0642,0.8262 L 0.0214,0.8286 L -0.0215,0.8287 L -0.0642,0.8262 L -0.1071,0.8212 L -0.1500,0.8138 L -0.1930,0.8038 L -0.2363,0.7912 L -0.2798,0.7760 L -0.3237,0.7579 L -0.3681,0.7369 L -0.4134,0.7128 L -0.4598,0.6851 L -0.5082,0.6533 L -0.5599,0.6163 L -0.6183,0.5711 L -0.7171,0.4900 L -0.6558,0.4819 L -0.5848,0.4746 L -0.5018,0.4682 L -0.4037,0.4629 L -0.2873,0.4587 L -0.1510,0.4560 L 0.0000,0.4550 Z"/>
        <g id="arrows10">
          <use xlink:href="#arrow1" transform="translate(0.0000,0.8284) rotate(-178.07) scale(2.0)"/>
        </g>
      </g>
    </g>
    <g id="symbols">
      <g id="current_out1" transform="translate(-0.84,0.49) scale(0.01,0.01)">
        <circle cx="0" cy="0" r="12.5" style="fill:#ffffff; stroke:#000000; stroke-width:3"/>
        <circle cx="0" cy="0" r="2.6"/>
      </g>
      <g id="current_out2" transform="translate(-0.56,0.49) scale(0.01,0.01)">
        <circle cx="0" cy="0" r="12.5" style="fill:#ffffff; stroke:#000000; stroke-width:3"/>
        <circle cx="0" cy="0" r="2.6"/>
      </g>
      <g id="current_out3" transform="translate(-0.28,0.49) scale(0.01,0.01)">
        <circle cx="0" cy="0" r="12.5" style="fill:#ffffff; stroke:#000000; stroke-width:3"/>
        <circle cx="0" cy="0" r="2.6"/>
      </g>
      <g id="current_out4" transform="translate(-1.11022302463e-16,0.49) scale(0.01,0.01)">
        <circle cx="0" cy="0" r="12.5" style="fill:#ffffff; stroke:#000000; stroke-width:3"/>
        <circle cx="0" cy="0" r="2.6"/>
      </g>
      <g id="current_out5" transform="translate(0.28,0.49) scale(0.01,0.01)">
        <circle cx="0" cy="0" r="12.5" style="fill:#ffffff; stroke:#000000; stroke-width:3"/>
        <circle cx="0" cy="0" r="2.6"/>
      </g>
      <g id="current_out6" transform="translate(0.56,0.49) scale(0.01,0.01)">
        <circle cx="0" cy="0" r="12.5" style="fill:#ffffff; stroke:#000000; stroke-width:3"/>
        <circle cx="0" cy="0" r="2.6"/>
      </g>
      <g id="current_out7" transform="translate(0.84,0.49) scale(0.01,0.01)">
        <circle cx="0" cy="0" r="12.5" style="fill:#ffffff; stroke:#000000; stroke-width:3"/>
        <circle cx="0" cy="0" r="2.6"/>
      </g>
      <g id="current_in8" transform="translate(-0.84,-0.49) scale(0.01,0.01)">
        <circle cx="0" cy="0" r="12.5" style="fill:#ffffff; stroke:#000000; stroke-width:3"/>
        <path d="M -8.8,-8.8 L 8.8,8.8 M -8.8,8.8 L 8.8,-8.8" style="fill:none; stroke:#000000; stroke-width:3"/>
      </g>
      <g id="current_in9" transform="translate(-0.56,-0.49) scale(0.01,0.01)">
        <circle cx="0" cy="0" r="12.5" style="fill:#ffffff; stroke:#000000; stroke-width:3"/>
        <path d="M -8.8,-8.8 L 8.8,8.8 M -8.8,8.8 L 8.8,-8.8" style="fill:none; stroke:#000000; stroke-width:3"/>
      </g>
      <g id="current_in10" transform="translate(-0.28,-0.49) scale(0.01,0.01)">
        <circle cx="0" cy="0" r="12.5" style="fill:#ffffff; stroke:#000000; stroke-width:3"/>
        <path d="M -8.8,-8.8 L 8.8,8.8 M -8.8,8.8 L 8.8,-8.8" style="fill:none; stroke:#000000; stroke-width:3"/>
      </g>
      <g id="current_in11" transform="translate(0,-0.49) scale(0.01,0.01)">
        <circle cx="0" cy="0" r="12.5" style="fill:#ffffff; stroke:#000000; stroke-width:3"/>
        <path d="M -8.8,-8.8 L 8.8,8.8 M -8.8,8.8 L 8.8,-8.8" style="fill:none; stroke:#000000; stroke-width:3"/>
      </g>
      <g id="current_in12" transform="translate(0.28,-0.49) scale(0.01,0.01)">
        <circle cx="0" cy="0" r="12.5" style="fill:#ffffff; stroke:#000000; stroke-width:3"/>
        <path d="M -8.8,-8.8 L 8.8,8.8 M -8.8,8.8 L 8.8,-8.8" style="fill:none; stroke:#000000; stroke-width:3"/>
      </g>
      <g id="current_in13" transform="translate(0.56,-0.49) scale(0.01,0.01)">
        <circle cx="0" cy="0" r="12.5" style="fill:#ffffff; stroke:#000000; stroke-width:3"/>
        <path d="M -8.8,-8.8 L 8.8,8.8 M -8.8,8.8 L 8.8,-8.8" style="fill:none; stroke:#000000; stroke-width:3"/>
      </g>
      <g id="current_in14" transform="translate(0.84,-0.49) scale(0.01,0.01)">
        <circle cx="0" cy="0" r="12.5" style="fill:#ffffff; stroke:#000000; stroke-width:3"/>
        <path d="M -8.8,-8.8 L 8.8,8.8 M -8.8,8.8 L 8.8,-8.8" style="fill:none; stroke:#000000; stroke-width:3"/>
      </g>
    </g>
  </g>
</svg>
