<?xml version="1.0" encoding="UTF-8" standalone="no"?>
<svg
   xmlns:dc="http://purl.org/dc/elements/1.1/"
   xmlns:cc="http://creativecommons.org/ns#"
   xmlns:rdf="http://www.w3.org/1999/02/22-rdf-syntax-ns#"
   xmlns:svg="http://www.w3.org/2000/svg"
   xmlns="http://www.w3.org/2000/svg"
   xmlns:sodipodi="http://sodipodi.sourceforge.net/DTD/sodipodi-0.dtd"
   xmlns:inkscape="http://www.inkscape.org/namespaces/inkscape"
   width="738.48749"
   height="808.23749"
   viewBox="0 0 590.78999 646.58999"
   version="1.1"
   id="svg2"
   inkscape:version="0.48.2 r9819"
   sodipodi:docname="hptext.svg">
  <metadata
     id="metadata12">
    <rdf:RDF>
      <cc:Work
         rdf:about="">
        <dc:format>image/svg+xml</dc:format>
        <dc:type
           rdf:resource="http://purl.org/dc/dcmitype/StillImage" />
        <dc:title></dc:title>
      </cc:Work>
    </rdf:RDF>
  </metadata>
  <defs
     id="defs10" />
  <sodipodi:namedview
     pagecolor="#ffffff"
     bordercolor="#666666"
     borderopacity="1"
     objecttolerance="10"
     gridtolerance="10"
     guidetolerance="10"
     inkscape:pageopacity="0"
     inkscape:pageshadow="2"
     inkscape:window-width="1600"
     inkscape:window-height="837"
     id="namedview8"
     showgrid="false"
     fit-margin-top="10"
     fit-margin-left="10"
     fit-margin-bottom="10"
     fit-margin-right="10"
     inkscape:zoom="0.55124088"
     inkscape:cx="356.21327"
     inkscape:cy="503.92956"
     inkscape:window-x="-8"
     inkscape:window-y="-8"
     inkscape:window-maximized="1"
     inkscape:current-layer="svg2" />
  <path
     d="m 356.28,8 c 16.69,0.24 33.38,1.01 50.06,1.81 16.33,1.14 32.7,-0.04 49.04,-0.35 -0.15,5.46 0.09,10.93 -0.38,16.38 -0.35,5.62 -1.09,11.37 0.43,16.89 4.15,-1.16 8.24,-2.52 12.48,-3.28 6.78,-2.33 13.27,-5.42 19.98,-7.94 7.56,-1.01 14.14,-6.21 21.97,-5.71 2.49,4.7 8.14,6.61 10.01,11.75 2.98,3.56 7.04,6.39 8.94,10.82 6.43,5.71 10.5,13.6 16.94,19.3 1.76,3.96 4.92,7.02 8.07,9.89 1.93,3.02 3.5,6.4 6.48,8.6 2.56,1.86 3.66,4.88 5.38,7.39 3.23,2.81 6.06,6.1 8.1,9.89 2.55,2.92 4.46,6.31 6.6,9.53 2.6,3.4 1.98,7.94 2.41,11.95 -0.88,7.31 -0.1,14.69 -0.96,22 -2.66,29.36 -5.63,58.69 -8.47,88.03 -0.23,7.21 0.12,14.42 -0.16,21.62 -2.91,3.27 -6.87,5.54 -9.11,9.39 -0.53,1.13 -1.69,1.59 -2.72,2.13 -4.57,2.18 -7.67,6.56 -12.48,8.34 -8.14,3.06 -15.34,8.6 -24.07,9.99 -9.6,3.26 -19.32,6.64 -29.48,7.58 -2.16,-0.08 -5.31,0.67 -6.38,-1.81 -1.96,-3.97 -5.42,-7.05 -6.47,-11.45 -2.89,-4.44 -6.4,-8.52 -8.56,-13.43 -2.72,-6 -7.97,-10.44 -10.2,-16.69 -2.18,-3.14 -4.26,-6.35 -6.27,-9.6 2.18,-0.17 4.65,0.54 6.54,-0.94 1.6,-0.07 3.22,-0.09 4.84,-0.11 2.29,1.53 4.34,3.49 5.56,6 1.44,3.08 4.73,4.52 6.75,7.13 1.85,1.93 2.64,4.74 5.01,6.18 3.03,2.21 5.12,5.35 7.49,8.19 4.43,1.54 6.67,-3.81 8.39,-6.88 3.28,-3.52 6.83,-7.22 8.13,-11.99 0.63,-48.63 -0.25,-97.36 -5.4,-145.76 -0.88,-11.03 -3.46,-21.89 -3.64,-32.96 -0.59,-3.86 -1.63,-7.65 -1.92,-11.55 -1.89,-1.67 -4.21,-3.67 -6.93,-2.91 -5.34,1.1 -10.55,2.95 -16.06,2.74 -7,1.6 -14.1,3.03 -20.77,5.74 -1.08,5.98 -0.53,12.08 -0.65,18.13 -0.17,21 0.42,41.98 0.24,62.99 -0.11,30.67 0.45,61.33 0.24,92.01 2.09,44.38 5.44,88.69 8.53,133.01 0.54,5.36 0.56,10.74 0.46,16.12 0.16,1.84 -1.62,2.96 -2.5,4.34 -2.82,-4.21 -5.45,-8.6 -7.05,-13.44 -2.15,-6.02 -6.47,-10.94 -8.5,-17.01 -2.21,-6.02 -5.99,-11.25 -8.67,-17.04 -0.71,56.94 0.23,113.91 -0.55,170.86 -4.11,-1.75 -5.89,-5.91 -8.15,-9.42 -1.52,-7.51 -7.59,-13.03 -9.83,-20.28 -1.43,-4.41 -4.72,-7.86 -6.55,-12.09 -0.52,11.64 -2.05,23.24 -2.19,34.9 0.36,10.7 -1.08,21.33 -1.76,31.99 -2.01,25.39 -4.05,50.78 -6.63,76.12 -1.28,7.81 0.52,16.03 -2.7,23.5 -2.59,-11.13 -4.03,-22.5 -6.27,-33.71 -1,-4.2 -0.32,-8.55 -1.19,-12.75 -2.73,-14.74 -5.27,-29.52 -8.04,-44.26 -0.64,-3.54 -0.18,-7.18 -0.9,-10.71 -2.79,-15.21 -5.61,-30.41 -8.35,-45.62 0.15,-7.67 -1.92,-15.09 -3.17,-22.59 -1.9,-10.3 -3.82,-20.59 -5.73,-30.88 -0.4,-3.64 -0.14,-7.33 -0.96,-10.92 -2.45,-13.07 -4.91,-26.15 -7.33,-39.23 -1.41,-5.61 -0.68,-11.49 -2.1,-17.11 1.67,2.98 3.95,5.64 6.82,7.54 3.01,1.7 3.69,5.51 6.54,7.42 2.84,1.86 5.18,4.3 6.93,7.21 1.42,0.09 1.99,-0.59 1.72,-2.05 -0.82,-10.02 -3.2,-19.92 -2.97,-30.02 -2.47,-18.55 -5.46,-37.02 -8.53,-55.47 -0.68,-3.48 -0.06,-7.07 -0.81,-10.54 -2.9,-16.46 -5.8,-32.98 -9.08,-49.33 -10.08,-2.06 -20.75,0.97 -30.42,4.28 -3.15,0.79 -5.89,2.75 -9.12,3.21 -1.72,0.27 -3.39,0.95 -4.77,2.01 -1.28,2.8 -0.46,6.02 -0.67,8.99 -0.18,32.65 0.44,65.29 0.26,97.93 0.46,33.67 0.15,67.36 0.24,101.03 -0.51,14.36 1.2,29.18 7.64,42.19 2,5.13 5.08,10.27 9.93,13.15 2.75,2.46 6.27,3.75 9.22,5.91 0.34,1.51 0.34,3.1 0.07,4.63 -1.5,1.5 -3.75,1.92 -5.77,1.46 -9.33,-1.61 -18.67,-3.7 -28.19,-3.43 -30.13,-3.54 -60.75,-5.14 -90.94,-1.26 -1.94,-0.2 -1.71,-2.33 -2.13,-3.69 -0.34,-1.92 -1.84,-3.31 -2.86,-4.87 3.97,-3.17 8.23,-5.94 12.56,-8.59 2.92,-3.15 5.94,-6.2 8.86,-9.35 1.23,-3.55 3.17,-6.79 4.71,-10.2 2.97,-8.69 5.3,-17.79 4.95,-27.04 3.95,-40.2 3.59,-80.68 2.31,-121.01 -0.35,-14.1 -1.47,-28.16 -2.39,-42.21 -3.87,2.84 -7.59,5.93 -11.49,8.7 -4.32,0.79 -7.44,4.04 -11.4,5.65 -3.83,1.65 -7.29,4.2 -11.6,4.39 -7.66,3.32 -15.58,6.03 -23.59,8.33 -3.88,0.12 -7.65,0.97 -11.39,1.96 0.51,47.05 0.69,94.11 1.42,141.16 -0.38,4.73 2.55,8.59 4.57,12.58 5.42,2.78 9.06,8.66 15.28,9.82 0.77,0.57 1.54,1.16 2.31,1.75 -0.07,1.63 -0.13,3.27 -0.22,4.91 -14.07,-4.92 -29.07,-5.87 -43.83,-6.93 -17.02,0.3 -34.01,-1.04 -51.03,-1.27 -13.56,-0.38 -27.13,-0.59 -40.71,-0.53 -0.1,-2.33 -0.25,-4.65 -0.34,-6.97 4.9,-0.77 9.1,-3.55 13.09,-6.33 5.64,-3.48 11.13,-7.59 14.7,-13.28 2.42,-4.6 4.86,-9.39 5.27,-14.65 2.17,-17.91 1.74,-35.98 2.24,-53.97 -0.05,-19.73 -0.17,-39.45 -0.71,-59.17 -5.57,-2.76 -11.15,-5.53 -16.52,-8.63 -3,-0.17 -5.65,-1.65 -8.14,-3.2 -3.21,-2.02 -6.78,-3.38 -10.01,-5.37 -2.31,-0.89 -4.87,-1.22 -6.86,-2.81 -3.33,-2.41 -7.15,-4.04 -10.45,-6.48 -4.93,-2.59 -7.85,-7.49 -11.57,-11.4 -1.97,-2.39 -3.69,-4.97 -5.69,-7.35 -1.94,-5.61 -6.63,-9.65 -8.73,-15.17 -1.68,-4.8 -4.45,-9.15 -5.86,-14.06 7.16,-3.73 14.78,-7.28 22.95,-7.65 9.41,-2.17 18.88,-4.1 28.44,-5.48 2.93,-0.11 2.04,3.29 0.93,4.84 -3.54,2.04 -7.32,3.69 -10.66,6.08 -2.55,1.84 -5.29,3.62 -8.46,4.11 -4.91,3.39 -10.19,6.21 -14.81,10.04 2.06,1.9 4.07,3.86 5.88,6.01 2,2.45 5.46,2.74 7.62,4.98 5.3,5.15 12.59,7.31 18.49,11.61 2.59,1.87 5.46,3.4 8.53,4.33 7.95,3.07 14.98,10.57 24.1,8.98 0.26,-18.09 -0.43,-36.17 -0.95,-54.25 -1.25,-39.32 -2.82,-78.63 -4.41,-117.93 -0.66,-10.71 -0.23,-21.44 -0.38,-32.15 0.04,-3 -1.54,-5.65 -3.03,-8.14 -4.2,-7.93 -12.27,-12.89 -20.31,-16.24 0.65,-2.44 2.62,-4.49 5.25,-4.52 16.67,1.18 33.41,0.78 50.11,0.48 20.63,-0.43 41.24,-1.32 61.86,-2.02 -0.11,2.15 -0.29,4.29 -0.54,6.43 -0.9,0.43 -1.8,0.86 -2.7,1.29 -2.65,3.42 -5.95,6.42 -7.94,10.29 -2.89,5.45 -1.16,11.72 -1.81,17.57 -0.43,24.98 0.36,49.95 0.13,74.93 -0.17,30.69 1.42,61.35 2.51,92.01 0.38,7.1 0.55,14.22 1.31,21.3 4.8,-1.12 9.3,-3.24 13.71,-5.39 2.62,-2.23 6.4,-1.83 9.03,-4.07 3.05,-2.55 6.88,-3.93 9.91,-6.51 6.64,-1.61 10.55,-8.11 17.11,-9.98 3.67,-3.18 7.83,-5.74 11.54,-8.87 2.89,-1.38 5.37,-3.43 7.84,-5.43 0.09,-24.37 0.01,-48.74 0.05,-73.11 -0.96,-37.39 -2.98,-74.76 -6.13,-112.03 -0.36,-3.38 -2.05,-6.39 -3.14,-9.56 -2.84,-1.58 -5.47,-3.51 -8.41,-4.92 -0.98,-2.11 -4.35,-5.25 -1.36,-7.1 11.19,2.51 22.65,1.35 34,1.95 15.37,0.82 30.73,-0.4 46.1,-0.3 8.98,-0.43 17.91,-1.83 26.89,-2.16 0.46,0.32 1.39,0.96 1.86,1.28 -2.56,3.26 -6.05,5.81 -7.82,9.68 -3.09,7.21 -7.22,13.93 -9.71,21.41 -2.74,19.16 -2.37,38.59 -2.53,57.9 -0.14,19 0.18,37.99 0.3,56.99 0.44,12.29 0.1,24.6 0.89,36.88 10.6,-2.49 21.2,-5.38 32.11,-6.09 8.11,-1.9 17.25,-1.45 24.08,3.8 2.37,0.39 4.68,1.18 6.61,2.65 3.64,2.79 7.69,4.96 11.7,7.15 -0.7,-7.51 -1.8,-14.98 -1.51,-22.54 -2.18,-21.11 -5.4,-42.09 -8.56,-63.07 -0.65,-3.78 -0.16,-7.64 -0.61,-11.43 -2.85,-19.3 -5.63,-38.6 -8.42,-57.9 -0.66,-3.84 -0.07,-7.77 -0.68,-11.61 C 362.43,57.28 359.85,39.67 357.32,22.04 356.48,17.41 356.11,12.7 356.28,8 z"
     id="path6"
     inkscape:connector-curvature="0"
     style="fill:#030303" />
</svg>
