<svg id="Layer_1" data-name="Layer 1" xmlns="http://www.w3.org/2000/svg" viewBox="0 0 903.44 905.68"><defs><style>.cls-1{fill-rule:evenodd;}</style></defs><title>Senate_Seal</title><path d="M298.5,772.5c-15.49-13.27-26.94-22.91-30-25.37-.59-.48-2-1.55-3.33-1.2-1.55.4-2.29,2.46-2.83,3.72-1.16,2.68-7.68,4.09-2.65,8.57a60.32,60.32,0,0,0,7.07,5.53c2.84,1.85,2.71,3.48.68,6-6,7.33-11.85,14.8-17.68,22.28-2.22,2.85-6.37,6.39-5.81,8.66.74,3,5.41,4.89,8.12,7.54,2.52,2.46,4,1.73,5.88-.77,6.47-8.45,13.13-16.76,19.76-25.09,4.82-6,4.85-6,11.08-1.06,3.87,3.08,4.82,3.67,6.15,3.62s2.77-.75,4.48-3.13a5.61,5.61,0,0,0-.92-9.23Z" transform="translate(-59.33 -21.19)"/><path d="M341.54,801.63a1,1,0,0,0,0-.11c-.13-.28-.54-.76-2.75-2.27-2.66-1.82-3.34-2-3.75-2.08a6.32,6.32,0,0,0-2.9.15c-4.56,1.19-6.85,1.78-16.27,8l-.36-15.75c.42-3.38-.75-5.44-3.84-7.14-1.28-.7-2.55-1.44-3.8-2.19a3.11,3.11,0,0,0-2.33-.25,3.53,3.53,0,0,0-1.83,2.12c-1.76,4.35.26,21.65-2.67,32A28.85,28.85,0,0,1,295.13,825c-2.71,4.93-4,7.1-4.46,7.91a3.21,3.21,0,0,1-.25.43c-1.42,2-1.33,3.54,1.1,4.79a94,94,0,0,1,8.17,4.79s3.81-6,6.72-10.24a124.43,124.43,0,0,1,8.28-10.59c3.28-3.68,10.3-10.43,23.61-16.34a4.33,4.33,0,0,0,2.87-1.89A2.87,2.87,0,0,0,341.54,801.63Z" transform="translate(-59.33 -21.19)"/><path d="M628.26,846.19c-.7-7.46-1.29-14.94-2.15-22.38-.31-2.68.62-3.77,3-4.71,10.53-4.09,10.48-4.17,16.84,5.4q4.83,7.28,9.74,14.51a14.94,14.94,0,0,0,2,2,13.68,13.68,0,0,0,.09-2.74c-1.29-7.89-2.49-15.79-4.05-23.63-.62-3.11.14-4.75,3.2-5.34a9.6,9.6,0,0,0,1.44-.41c8.83-3.19,8.95-3.21,10.28,6,2.16,14.83,4,29.71,6.31,44.53.57,3.71-.61,5.29-4,6.52-9.85,3.59-9.82,3.74-15.53-4.79-4-6-7.89-12-11.92-17.87a22,22,0,0,0-3-3,36,36,0,0,0-.12,4.35c.79,9,1.53,17.93,2.57,26.86.4,3.37-.9,4.62-3.92,5.62-10.48,3.49-10.46,3.62-16.09-5.82-7.41-12.44-14.71-25-22.25-37.32-1.84-3-1.67-4.36,1.86-5.6,9.94-3.5,9.91-3.63,15.11,5.61,2.78,4.93,5.48,9.91,8.29,14.82a13.84,13.84,0,0,0,2.1,2.29c.09-1,.22-1.95.25-2.92a16.62,16.62,0,0,0-.17-2Z" transform="translate(-59.33 -21.19)"/><path d="M817.59,703.68q6.31,8.22,12.62,16.43c3.46,4.48,6.84,9,10.47,13.36,1.72,2.06,1.55,3.49,0,5.54-5,6.52-4.93,6.59-12.2,3q-13.66-6.72-27.32-13.44a3.84,3.84,0,0,0-3.14-.29c1.54,1.33,3.06,2.7,4.63,4,7.61,6.22,15.16,12.51,22.89,18.56,2.56,2,2.8,3.38.65,5.95-5.63,6.71-5.56,6.87-12.13,1.57-11.65-9.42-23.14-19-34.9-28.33-3.16-2.5-3.15-4.31-.58-7a54,54,0,0,0,7-8.47c2.36-3.84,4.74-3.49,8.21-1.64,7.49,4,15.17,7.62,22.81,11.31a11.8,11.8,0,0,0,3.16.56,18.15,18.15,0,0,0-1.38-2.54c-5.57-7.26-11.06-14.59-16.84-21.69-1.9-2.33-1.7-3.76.19-5.85,3-3.33,5.8-6.87,8.54-10.43,1.63-2.13,3-2.59,5.25-.69q19.61,16.26,39.43,32.26c2.2,1.78,2.26,2.95.46,5.15-5.87,7.17-5.75,7.24-12.77,1.51q-10.83-8.85-21.72-17.63c-.83-.67-1.77-1.22-2.66-1.82Z" transform="translate(-59.33 -21.19)"/><path d="M118.06,517.54c-8,.39-16,.66-23.94,1.22-3.31.23-4.08-1.09-4.55-4.15-1.14-7.47.52-12.82,7.84-16.62,6.89-3.58,13-8.57,19.5-13a8.08,8.08,0,0,0,1.44-1.76,7.52,7.52,0,0,0-2.21-.6c-7.48.35-15,.63-22.43,1.24-3.93.32-5.53-.62-5.59-5-.14-9.8-.41-9.85,9.54-10.37,14.3-.74,28.61-1.26,42.9-2.14,3.93-.24,5.2.91,5.34,4.84.36,10,.53,10-7.7,15.53q-9.94,6.66-19.86,13.38a8,8,0,0,0-1.44,1.77,8.2,8.2,0,0,0,2.23.55c8-.34,16-.65,23.94-1.17,3-.19,4,.62,4.21,3.77.59,11.2.72,11.18-10.74,11.64-6.15.25-12.31.54-18.46.81Z" transform="translate(-59.33 -21.19)"/><path d="M723,106.67c-.54,1.3-.88,2.25-1.32,3.14-7.4,14.88-14.87,29.73-22.16,44.67-1.4,2.88-2.66,3.4-5.59,1.91-9.79-5-9.81-4.86-10.71-15.72-.6-7.29-1.31-14.58-2-21.86a10.66,10.66,0,0,0-.95-2.55,11.69,11.69,0,0,0-1.8,2.12c-3.37,6.68-6.83,13.32-9.91,20.13-1.56,3.45-3.24,3.79-6.47,2.12-9.16-4.75-9.22-4.63-4.72-13.65,6.6-13.24,13.28-26.45,19.76-39.76,1.21-2.49,2.16-3.12,4.76-1.73,12.41,6.66,9.85,2.09,11.18,16.35.66,7.12,1.32,14.24,2,21.35a13.83,13.83,0,0,0,.83,2.68,12,12,0,0,0,2.13-2.35c3.46-6.82,6.93-13.64,10.17-20.57,1.28-2.73,2.63-3.43,5.31-1.8,2.4,1.47,5,2.53,7.53,3.87A11.55,11.55,0,0,1,723,106.67Z" transform="translate(-59.33 -21.19)"/><path d="M458.56,83c-1.29-7.49-2.46-14.9-3.89-22.24-.67-3.44-.69-5.39,3.8-6,10-1.26,10.11-1.58,11.82,8.21,2.56,14.6,4.86,29.24,7.36,43.85.4,2.35.17,3.48-2.61,4.08-11.27,2.45-11.23,2.57-18.86-6.3Q449,96.31,441.75,88a10.76,10.76,0,0,0-1.9-1.4,8,8,0,0,0-.47,2.54c1.21,7.9,2.38,15.81,3.87,23.66.51,2.67-.21,3.6-2.75,4-14,1.94-10.89,3.44-13.15-9.11-2.48-13.76-4.56-27.6-7.06-41.35-.66-3.62-.12-5,3.87-5.95,7.29-1.72,12.39-.4,16.85,6.13,4.28,6.29,9.89,11.68,15,17.41a9.16,9.16,0,0,0,2.31,1.4Z" transform="translate(-59.33 -21.19)"/><path d="M549.39,867c0,8.15-.13,16.31.06,24.45.08,3.23-.91,4.33-4.22,4.39-10.7.2-10.69.32-16.5-8.57-3.64-5.57-7.27-11.14-11-16.67a38.56,38.56,0,0,0-3.11-3.62,32.27,32.27,0,0,0-.73,5.09c.08,6.82.11,13.65.57,20.46.23,3.39-.85,4.22-4.11,4.28-10.69.2-10.66.33-11-10.5-.38-14.14-.71-28.28-1.3-42.42-.15-3.64.91-4.5,4.58-5.05,7.67-1.15,12.35,1.51,15.91,8.28,3.31,6.3,7.66,12.06,11.63,18a24.45,24.45,0,0,0,2.83,3,30.12,30.12,0,0,0,.41-3.85c-.13-7-.19-14-.57-21-.19-3.64.51-5.27,4.76-5.33,9.95-.13,9.95-.4,10.31,9.52.12,3.33.25,6.65.31,10,.05,3.16,0,6.32,0,9.48Z" transform="translate(-59.33 -21.19)"/><path d="M207.56,680.53c.21,12.24-13.93,20.54-24.06,15.12-3.08-1.65-4.16-2.71-4.66,2.08-.37,3.55-2.85,7-4.71,10.26-2,3.47-4.32,6.7-6.48,10.06-1,1.59-1.93,1.58-2.92,0-2.26-3.69-4.78-7.24-6.7-11.1-.63-1.26-.23-3.56.54-4.9,2.72-4.76,5.88-9.27,8.72-14a12.87,12.87,0,0,0,1.93-5,5.72,5.72,0,0,0-1.38-4c-.37-.42-2.42.29-3.46.91-4.58,2.7-9.18,5.4-13.55,8.42-2.28,1.57-3.45,1.55-5.09-.86-7.12-10.45-7.19-10.39,3.67-17.1,11.74-7.26,23.52-14.47,35.18-21.87,2.73-1.73,4.35-2,6.17,1.18,4.86,8.52,10.08,16.83,15,25.33A23.73,23.73,0,0,1,207.56,680.53Zm-14.8-3.68c-.13-3.3-5.11-10.93-6.64-10.05-3,1.73-6.69,3.54-8.21,6.34-1.35,2.5,6.3,9.76,9.25,9.58A6,6,0,0,0,192.76,676.85Z" transform="translate(-59.33 -21.19)"/><path d="M904.28,504c-8.32,0-16.63-.11-24.95.06-3.09.06-4-1-3.9-4,.39-9,.33-18,.8-26.95.48-9.26,4.25-13.77,12.1-15.33,8.46-1.68,15,1.53,19,9.16.36.69,0,3.26,2.4,1.12A74.84,74.84,0,0,1,921,460.14c3.13-1.85,6.65-3,10-4.54,2.07-.94,3.53-1.09,3.39,1.92-.19,4.16-.06,8.34-.53,12.46a5.5,5.5,0,0,1-2.78,3.45c-4.28,2.21-8.76,4-13.11,6.1-1.94.92-4.07,1.78-5.56,3.24-1.17,1.14-1.5,3.15-2.2,4.78,1.48.49,2.94,1.32,4.43,1.4q7.73.39,15.47.3c2.63,0,3.38,1.08,3.56,3.54.88,12.27.8,12.38-11.36,12.29-6,0-12,0-18,0Zm-11.09-15.67c6.19.06,6.19.06,6.23-4.64.06-7.43-1.43-10-6-10.07s-5.64,2-6.2,10.34C886.86,489.54,890.53,488.07,893.18,488.35Z" transform="translate(-59.33 -21.19)"/><path d="M727.44,791.74l-1.59-2.49c-2.34-3.64-4.53-7.39-7.09-10.87-1.79-2.42-1.2-3.69,1.15-5a86.81,86.81,0,0,0,8-5.15c1.82-1.33,2.93-.91,4,.81q14.18,22,28.44,44c1.28,2,.72,2.89-1,3.93-3.56,2.14-7,4.41-10.56,6.63-2.28-3.22-4.53-6.47-6.86-9.66-2.21-3-4.07-7.71-6.92-8.45-2.44-.64-6.1,3.22-9.17,5.17-5.26,3.36-5.24,3.39-1.73,8.82,2.53,3.91,5,7.88,7.59,11.73,1.27,1.87,1.43,3.06-.86,4.3a75.93,75.93,0,0,0-8.39,5.4c-1.78,1.29-2.89,1-4-.74-9.45-14.69-18.88-29.39-28.44-44-1.31-2-.54-2.78,1-4,10.23-8,10.21-8,17.22,2.8,4.72,7.26,4.72,7.26,12,2.57,2-1.27,3.87-2.59,5.87-3.79a11.62,11.62,0,0,1,2.42-.81Z" transform="translate(-59.33 -21.19)"/><path d="M927.19,553.94l-.61,2.5c-2.81,11.69-2.81,11.69-14.48,8.49-11.19-3.07-11.19-3.07-14,8.22-.28,1.13-.56,2.26-.9,3.37-.68,2.22,0,3.32,2.39,3.85,5.52,1.25,11,2.81,16.45,4.15,2.33.57,3.44,1.44,2.48,4.14a60.26,60.26,0,0,0-2.15,8.72c-.48,2.46-1.51,3.3-4.13,2.63q-25.14-6.43-50.35-12.62c-2.14-.53-2.57-1.56-2-3.58.94-3.19,1.76-6.42,2.43-9.67.46-2.23,1.67-2.58,3.61-2.1,4.52,1.13,9.08,2.1,13.57,3.32,2.39.65,3.66.37,4.16-2.41.64-3.59,1.72-7.11,2.68-10.64.7-2.59,0-4-2.82-4.53-4.08-.76-8.06-2-12.13-2.88-2.78-.58-4.1-1.72-3.15-4.77s1.66-6.1,2.35-9.18c.48-2.16,1.53-2.42,3.58-1.91,16.77,4.23,33.59,8.29,50.36,12.55C925.71,551.89,926.56,553.36,927.19,553.94Z" transform="translate(-59.33 -21.19)"/><path d="M369,126.27c.4,7.35-3.28,13.62-10.34,17.59-7.23,4.07-14.85,7.46-22.23,11.28-2.14,1.11-2.92.16-3.76-1.57C325.16,138,317.65,122.45,310,107c-1.11-2.25-.7-3.15,1.44-4.16,6.91-3.26,13.66-6.88,20.63-10,9.15-4.12,17.55-2.34,24.59,4.82C363.38,104.45,369,117,369,126.27Zm-15.51.72c0-5.4-5.68-16.8-10.05-20-3.31-2.42-10.52-1.87-13.4,1.22a3.32,3.32,0,0,0-.18,3q5.65,11.9,11.6,23.66a3.68,3.68,0,0,0,2.4,1.94C347.93,136.89,353.45,131.12,353.49,127Z" transform="translate(-59.33 -21.19)"/><path d="M387.32,818.15c17,.27,28.5,8.88,30,22,1.51,12.86-2.57,24.48-12.28,33.35-6.26,5.71-14.06,6.19-22.11,4.18-16.22-4.06-23.81-16.53-20-32.79,1.53-6.57,3.81-12.71,8.2-18C376,821,382.3,818.17,387.32,818.15Zm-10.78,34.66,1,.43c-.19,5.64,2.42,9.64,7.31,11.18s9.52,0,12.08-5.26a68.16,68.16,0,0,0,5.1-15c1.07-4.83-2.05-9.66-6.28-11.33-4.66-1.84-9.59-.86-12.24,3.73C380.62,841.64,378.83,847.37,376.54,852.81Z" transform="translate(-59.33 -21.19)"/><path d="M319.27,157.16A16.22,16.22,0,0,1,312.95,171c-4.59,3.49-9.46,7-14.74,9.1-6.59,2.68-13.33,1.11-18.57-3.78a83.45,83.45,0,0,1-9.89-11.78c-4.82-6.56-9.24-13.42-14-20-1.85-2.54-2.08-4.12,1-5.79,3.32-1.82,6.75-6,9.52-5.53s4.72,5.43,6.91,8.52c4.61,6.51,9.06,13.14,13.71,19.62,3.89,5.42,9,6.3,13.68,2.58,4.11-3.29,4.53-8,.91-13.32-5.6-8.25-11.4-16.37-17-24.61-3.42-5-3.6-3.7,1.44-7.42,8.36-6.17,8.43-6.08,14.37,2.47l13.93,20.07A26.22,26.22,0,0,1,319.27,157.16Z" transform="translate(-59.33 -21.19)"/><path d="M115.84,405.09c9.4,1,20.8,2.22,32.22,3.36,2.38.24,3.24,1.3,2.72,3.59-.18.81-.31,1.63-.43,2.46-.47,3.1.05,7.94-1.63,8.9-2.57,1.47-6.69.46-10.12.14-8.44-.8-16.85-2-25.29-2.69-5.86-.47-9.72,2.67-10.37,7.72-.7,5.42,2.56,9.41,9,10.31,7.08,1,14.22,1.55,21.33,2.31,3.47.37,6.93.94,10.41,1.12,2.88.15,3.61,1.43,3.3,4.14-1.63,14.36.81,12-12.58,10.79-9.26-.87-18.6-1.61-27.66-3.54-12.42-2.65-17.8-10.44-17.27-23a45,45,0,0,1,.68-5.94C92.61,410.78,99.62,405,115.84,405.09Z" transform="translate(-59.33 -21.19)"/><path d="M821,253.34c-1,.93-1.87,1.83-2.82,2.65-6.83,5.86-6.82,5.84-12.48-1.15-6.5-8-13-16.09-19.62-24-2-2.36-2.34-3.71.35-5.86,13.14-10.5,26.12-21.19,39.13-31.86,1.77-1.45,3-2.07,4.85.23,7.57,9.52,15.32,18.89,23.06,28.27,1.7,2.07,1.64,3.36-.64,5.17-6.63,5.28-6.53,5.4-11.81-1.07-3.26-4-6.68-7.88-9.75-12-2.77-3.75-4.41-.62-6.37.73s-3.65,2.59-1.11,5.36c4.16,4.53,7.75,9.58,11.79,14.23,1.81,2.08,1.27,3.23-.57,4.81-6.23,5.35-6.19,5.41-11.37-.92-3-3.61-6-7.15-8.76-10.9-1.59-2.16-2.81-2.06-4.84-.59-6.81,4.92-6.86,4.84-1.74,11.1q5.38,6.57,10.73,13.18C819.6,251.46,820.17,252.28,821,253.34Z" transform="translate(-59.33 -21.19)"/><path d="M185.58,639.43a18,18,0,0,1-2.06,1.68c-7.8,4.71-8.64,4.41-12.13-3.87-1.87-4.44-4.19-8.73-5.71-13.28-1.44-4.32-3.86-3-6.56-1.92s-4.07,2.27-2.39,5.57c2.71,5.32,4.72,11,7.31,16.39,1.19,2.48.6,3.32-1.78,4.38-7.52,3.37-7.48,3.5-10.88-4.09-1.9-4.25-3.78-8.51-5.55-12.82-.89-2.15-2.06-2.52-4.26-1.71-8.18,3-8.2,2.95-4.6,11,2.24,5,4.38,10.07,6.7,15,1.1,2.35.48,3.45-1.83,4.56-8.54,4.1-8.52,4.2-12.2-4.18-4.22-9.59-8.26-19.25-12.64-28.77-1.34-2.92-.6-4,2.11-5.2q23.14-10,46.15-20.22c2.62-1.17,3.79-.73,4.89,1.87,4.67,11,9.51,22,14.29,32.95Z" transform="translate(-59.33 -21.19)"/><path d="M608.6,884.54c-1.26.77-2.43,2-3.79,2.24-7,1.43-14.07,2.62-21.12,3.88-5.08.91-10.19,1.66-15.23,2.73-2.67.57-3.54-.41-4-2.88q-4.31-25.1-8.83-50.16c-.42-2.34-.33-3.7,2.51-4.16q18-3,35.91-6.27c2.69-.49,3.68-.06,4.12,3,1.33,9.36,2.79,7.93-7,9.85-5.06,1-10.12,2.06-15.23,2.77-4.6.64-2.11,3.62-2,5.66s.23,4.4,3.69,3.67c5.86-1.23,11.82-2,17.68-3.22,3.23-.68,4.78.18,4.83,3.52a9.3,9.3,0,0,0,.28,1.47c1,5.73,1.06,5.79-4.48,6.83q-7.61,1.43-15.26,2.58c-3.08.46-4.23,1.75-3.48,5,1.94,8.48.44,7.51,8.66,6.11,5.41-.92,10.85-1.77,16.2-3,3.28-.75,4.59.28,4.88,3.47a56.37,56.37,0,0,0,1.13,5.86Z" transform="translate(-59.33 -21.19)"/><path d="M394.41,115.82c1.28-.37,2.57-.7,3.83-1.11,6-1.93,12.1-3.71,18-5.91,2.59-1,3.76-.35,4.36,2.07,2.76,11.12,5.24,8.16-5.85,11.95-9.6,3.28-19.36,6.11-28.93,9.44-3.12,1.09-4.45.54-5.44-2.57q-7.68-24.25-15.63-48.42c-.68-2.09-.14-3.12,1.81-3.75,12-3.88,24-7.8,36.09-11.62.72-.23,2.27.09,2.45.54a51.72,51.72,0,0,1,2.81,9c.12.62-1.82,2-3,2.43-6,2.06-11.93,4.25-18.05,5.74-4.92,1.2-2.93,3.93-2.39,6.73.68,3.49,2.43,3.6,5.34,2.53,5.3-1.94,10.78-3.42,16.09-5.34,2.77-1,4.1-.64,5.06,2.44,2.32,7.52,2.47,7.44-5.13,9.82-4.28,1.34-8.49,3-12.81,4.15-3,.82-3.78,2.23-2.52,5,.74,1.66,1.16,3.46,1.75,5.2.31.93.67,1.85,1,2.77Z" transform="translate(-59.33 -21.19)"/><path d="M664.65,79.65a96.4,96.4,0,0,1-3.32,9.21c-.24.52-2.33.56-3.39.25-6.37-1.9-12.77-3.76-19-6-5.1-1.86-4.29,2.48-5.46,4.71-1.46,2.79.15,3.71,2.65,4.44,5.59,1.63,11.06,3.64,16.65,5.28,2.89.85,3.54,2.07,2.51,5-2.51,7.26-2.35,7.32-9.61,5-4.59-1.49-9.2-2.92-13.76-4.48-2.12-.73-3.41-.47-4.1,1.95-2.91,10.19-3.51,7.88,5.19,10.8,5.21,1.75,10.4,3.57,15.66,5.12,2.33.69,2.71,1.82,2.21,4-2.08,9.21-2.38,9.44-11.16,6.61-9.82-3.16-19.6-6.43-29.47-9.42-3.25-1-4.1-2.24-3-5.64,5.28-15.77,10.32-31.62,15.38-47.46.78-2.45,1.71-3.5,4.59-2.52,11.18,3.8,22.47,7.31,33.69,11A19.93,19.93,0,0,1,664.65,79.65Z" transform="translate(-59.33 -21.19)"/><path d="M933.17,440.82c.7,2.51-.81,3.59-4,3.93q-24.57,2.66-49.09,5.67c-2.79.34-4.29.12-4.64-3.18-1.21-11.42-2.51-22.83-4.13-34.2-.57-4,.72-5.53,4.51-5.54a10.32,10.32,0,0,0,2.48-.28c3.25-.82,4.81.06,5.1,3.74.51,6.46,1.76,12.86,2.28,19.33.31,3.86,2.68,3.08,4.9,2.79s5.28.16,4.68-4c-.87-5.92-1.34-11.91-2.16-17.84-.36-2.6.05-4,3.09-4.23,8.16-.75,7.72-3,8.78,6.84.5,4.63,1.29,9.23,1.74,13.86.24,2.44.87,3.49,3.69,3.11,8.41-1.14,8.43-1,7.4-9.67-.63-5.29-1.13-10.59-2-15.84-.4-2.38.28-3.46,2.52-3.81l.49-.1c8.74-1.78,9.13-1.63,10.38,7.4C930.66,419.21,931.8,429.63,933.17,440.82Z" transform="translate(-59.33 -21.19)"/><path d="M584.67,117.44c-5-1.27-10.09-2.1-14.85-3.9-7.31-2.76-11.46-9.92-11.3-17.73.05-2.53.74-3.79,3.5-3.24a31.75,31.75,0,0,0,5.45.66c3.81.08,6.37.8,6.87,5.61S580.43,106.7,585,105a7.23,7.23,0,0,0,4.1-4.37c.35-1.71-.75-4.27-2.07-5.62-1.67-1.7-4.25-2.5-6.38-3.79-3.82-2.32-7.87-4.37-11.31-7.16-5-4.1-6.15-9.85-4.35-15.86s5.85-10,12.25-11.1a34.34,34.34,0,0,1,22.24,3.53c5.38,2.85,7.5,7.74,8,13.56.19,2.51-.62,3.79-3.42,3.3-2.29-.41-4.62-.61-6.94-.84-2.65-.26-4.57-.9-5.1-4.18-.59-3.6-3.68-5.27-7-5.11-1.79.08-4.46,1.46-5,2.88s1,4.16,2.45,5c4.08,2.53,8.71,4.16,12.86,6.58,12.17,7.11,13.72,21.54,3.39,30.45C594.74,115.72,590,117,584.67,117.44Z" transform="translate(-59.33 -21.19)"/><path d="M239.19,228.48c0,12.22-13.74,26.94-24.83,26.18-3.52-.24-7-1.91-10.35-3.23-.57-.22-1-2.26-.66-3,.84-1.77,2.38-3.2,3.36-4.93,2-3.56,4-5.82,8.86-3.69,4.39,1.9,9.54-1.85,10.62-6.59a5.78,5.78,0,0,0-7.67-6.7c-2.44.92-4.52,2.76-6.84,4-4.06,2.23-8,4.76-12.3,6.42-5.92,2.3-11.17.2-15.43-4.17s-5.79-9.79-3.85-15.65a32.84,32.84,0,0,1,14.72-18.29c5-2.95,10.19-2.39,15.33,0,2.47,1.14,2.69,2.4.92,4.48a51.53,51.53,0,0,0-4.3,6.13c-1.41,2.26-2.86,3.07-5.72,2-3.4-1.22-7.76,1.25-8.74,4.76a6.07,6.07,0,0,0,1,4.89c.74.86,3.07.94,4.44.52,1.68-.5,3.1-1.87,4.63-2.88,3.34-2.19,6.53-4.64,10-6.54C224.79,205.46,239.23,214.29,239.19,228.48Z" transform="translate(-59.33 -21.19)"/><path d="M883.5,651.24c-8.18,0-8.38-.27-6-7.76.41-1.27.87-2.52,1.17-3.82.62-2.66,1.88-3.65,4.91-3.42,5.83.44,9.87-3,9.69-8.23-.07-2-1.37-4.81-3-5.67s-4.62-.35-6.32.7c-2.16,1.34-3.58,3.86-5.39,5.8-2.72,2.91-5.26,6.07-8.32,8.57a15,15,0,0,1-17.74,1c-6-3.7-8.93-9.43-7.46-16.08a63,63,0,0,1,6.95-17.38c3.27-5.71,9.15-7.31,15.65-6.49,2.68.34,4,1.19,2.74,4.16a57.44,57.44,0,0,0-2.58,7.54c-.61,2.24-1.65,3.11-4.15,3.18-4.28.13-7.24,2.8-7.32,6.61a6.42,6.42,0,0,0,2.3,4.84c1,.64,3.53-.16,4.74-1.13,1.77-1.41,2.93-3.58,4.43-5.36,2.13-2.55,4.17-5.21,6.53-7.53,6.25-6.17,13.68-7.26,21-3.32,7.53,4.08,11.73,12,9.73,20a65.37,65.37,0,0,1-5.94,15.18C895.62,649.12,891,651.25,883.5,651.24Z" transform="translate(-59.33 -21.19)"/><path d="M178.12,728.62a56.13,56.13,0,0,1,1.58-6.25c3.32-8.86,5.43-9.2,12-2.64,3,2.95,4.54,5.15,1.55,9.39-2.7,3.83.21,9.74,4.68,11.49a5.62,5.62,0,0,0,7.88-5.49,23.3,23.3,0,0,0-1.74-6.17c-1.48-4.22-3.55-8.31-4.52-12.64-1.71-7.62,1-13.55,7-17.27s13.18-3.15,19.12,1.5a35.34,35.34,0,0,1,11.49,14.81c2.41,6.05.94,11.37-2.82,16.38-1.29,1.71-2.31,2.12-3.84.31a58,58,0,0,0-4.81-5.07c-2.33-2.17-3.81-4.12-1.62-7.53.83-1.3.29-3.94-.41-5.66-1.32-3.29-4.87-4.95-7.19-3.69-3.47,1.88-2.3,4.63-1.19,7.35,2,4.92,4.26,9.76,5.89,14.8,2.29,7.09.22,13.23-5.51,17.88-6.24,5.07-13.31,6-20.62,2.66C186.74,749,178.25,736.4,178.12,728.62Z" transform="translate(-59.33 -21.19)"/><path d="M770.62,808.62a31.25,31.25,0,0,1-1.9-3.29Q763,791.8,757.27,778.23c-3.1-7.35-6.06-14.77-9.37-22-1.2-2.64-.81-4.26,1.35-6,3.51-2.79,6.59-7.57,10.36-8.14,3.41-.52,7.55,3.38,11.28,5.5,12.87,7.3,25.67,14.73,38.58,22,2.73,1.53,2.92,2.68.47,4.52-1.33,1-2.49,2.2-3.74,3.3-5.55,4.88-5.62,5-11.81,1.23-2-1.22-3.22-.94-4.74.57-1.76,1.76-3.75,3.29-5.61,4.95-5.62,5-5.54,5-2.85,12a4.3,4.3,0,0,1-.56,3.74c-2.65,2.75-5.63,5.18-8.5,7.71A17.12,17.12,0,0,1,770.62,808.62Zm-5.89-49.36c-.24.75-.73,1.46-.55,1.84,2.38,4.94,4.8,9.86,7.37,14.71.27.52,1.86,1,2.2.72,2.28-1.9,4.38-4,6.55-6.05-1.85-1.56-3.61-3.23-5.56-4.64-2.28-1.66-4.73-3.08-7.1-4.62C766.8,760.68,766,760.11,764.73,759.27Z" transform="translate(-59.33 -21.19)"/><path d="M843.44,643c15.94.14,24.69,14.92,17.14,28.41-4.79,8.56-4.79,8.56,3.79,13.59.14.08.31.14.44.23l8.94,6c-2.21,3.89-4.32,7.85-6.74,11.6-.36.56-2.44.65-3.27.18Q841,690,818.5,676.61a3.61,3.61,0,0,1-.85-3.43c4.59-8.1,9.23-16.19,14.24-24A12.67,12.67,0,0,1,843.44,643Zm-.52,15.75c-2.84,0-9,6-7.68,7.65,2.41,3,6.35,4.67,9.65,6.9,1.55-2.68,3.8-5.2,4.47-8.08C850.16,661.76,846.64,658.73,842.92,658.78Z" transform="translate(-59.33 -21.19)"/><path d="M133.78,597.34c-6.46-.37-15.26-.95-24.08-1.34-2.64-.12-4.27-.75-4.84-3.69-.85-4.38-3.88-9.23-2.73-12.84,1.06-3.3,6.38-5.31,9.93-7.74,12.07-8.28,24.22-16.43,36.23-24.79,2.65-1.84,3.85-1.91,4.53,1.54.8,4,3.54,8.6,2.4,11.87-1,3-6.11,4.58-9.49,6.66-6.93,4.28-13.94,8.45-20.87,12.74a29.47,29.47,0,0,0-3.55,3,37.52,37.52,0,0,0,4.31.5c10.82,0,21.65.16,32.47,0,3.22-.06,4.9.8,5.5,4.06a61.93,61.93,0,0,0,2.28,8.16c.92,2.8-.15,3.49-2.82,3.33C154.09,598.28,145.11,597.89,133.78,597.34Z" transform="translate(-59.33 -21.19)"/><path d="M465.43,848.86c-6.31-1.12-11.7-2.21-17.13-3-1.58-.22-4.4.1-4.74.94a20.82,20.82,0,0,0-1.09,7.77c0,.53,2.13,1.27,3.36,1.51,4.08.79,8.19,1.52,12.31,2,2.82.35,3.44,1.53,3.07,4.31-1,7.71-.88,7.72-8.72,6.4-.49-.08-1-.13-1.48-.22-11.2-2.05-11.2-2.05-13.11,9.37-.52,3.12-1.14,6.22-1.55,9.35-.28,2.16-1.28,2.9-3.34,2.31-.16,0-.33-.05-.49-.09-3.9-.78-9.4-.33-11.23-2.7s.23-7.49.88-11.36c2.32-13.78,4.89-27.52,7.11-41.31.5-3.09,1.56-3.86,4.54-3.32,10.64,1.95,21.31,3.74,32,5.5,2.48.41,3.52,1.47,2.87,4-.49,1.93-.58,4-1.22,5.85A9,9,0,0,1,465.43,848.86Z" transform="translate(-59.33 -21.19)"/><path d="M506.33,109.87c-7.87.15-7.84.15-7.92-7.88-.1-10.32-.39-20.64-.36-31,0-3.67-1.11-5.25-5-4.69a62.94,62.94,0,0,1-7.48.27c-.83,0-1.88.31-2.46-.07-4.28-2.86-1.13-7.25-2-10.85-.54-2.15.64-3.33,3.05-3.36,14.31-.18,28.63-.5,42.94-.59.91,0,1.84,1.57,2.75,2.43.08.08,0,.32,0,.49.83,11,.83,11-10.26,11.13-5.95,0-5.94,0-5.85,6.11q.24,16,.44,32c.08,7.15,0,5.68-5.89,6C507.66,109.9,507,109.87,506.33,109.87Z" transform="translate(-59.33 -21.19)"/><path d="M217.82,191.93c-.72-.58-1.36-1-2-1.57-8.56-7.52-8.57-7.53-.28-15.3s16.89-15.6,25.15-23.6c2.41-2.34,3.7-2.1,5.89.25,6.71,7.2,6.81,7.11-.48,14a13.7,13.7,0,0,1-1.47,1.35c-3,2.1-3.05,3.89-.34,6.66,8,8.2,15.68,16.81,23.65,25.08,2.36,2.45,3.39,4.13,0,6.57-2.94,2.14-5.52,6.69-8.23,6.67s-5.23-4.49-7.72-7.13c-6.41-6.78-12.89-13.5-19.05-20.5-2.41-2.74-4.12-3.29-6.67-.42-2,2.23-4.3,4.18-6.49,6.23C219.28,190.75,218.63,191.25,217.82,191.93Z" transform="translate(-59.33 -21.19)"/><path d="M810.41,191.77c-.94-.75-1.73-1.31-2.44-2-2.34-2.13-4.8-4.15-6.93-6.47s-3.48-2.14-5.56.15c-7.93,8.76-16.16,17.24-24,26-2.45,2.73-4.18,3.22-6.59.23a40.3,40.3,0,0,0-4.29-4.18c-3.85-3.54-3.87-3.53-.16-7.5,7.72-8.27,15.34-16.64,23.26-24.72,2.72-2.78,2.51-4.44-.4-6.66-2.36-1.81-4.31-4.17-6.59-6.1-1.72-1.46-1.42-2.48-.09-4.07,7.12-8.55,7.06-8.57,15-1.13,8.12,7.63,16.28,15.22,24.42,22.83,3.84,3.6,3.84,3.61.09,7.59C814.24,187.75,812.41,189.65,810.41,191.77Z" transform="translate(-59.33 -21.19)"/><path d="M856.89,322c.39-2.06.58-3.38.88-4.67,1.76-7.6,3.52-15.19,5.36-22.77A23.8,23.8,0,0,1,864.6,291a24.7,24.7,0,0,1,2.66,2.15c5.93,6.27,11.92,12.49,17.64,19a6.91,6.91,0,0,1,1.47,5.19c-1.78,8.78-4,17.46-5.93,26.21-.69,3.18-1.59,3-3.55.89-5.95-6.48-12-12.84-18-19.31A18.42,18.42,0,0,1,856.89,322Z" transform="translate(-59.33 -21.19)"/><path d="M147.92,524.92a10.73,10.73,0,0,1,2,2.87,40.57,40.57,0,0,1,1.12,5.85c1.21,6.8,1.22,6.88-5.65,8-15.57,2.52-31.16,4.87-46.72,7.48-2.79.47-4-.08-4.29-2.95A67.49,67.49,0,0,0,93,537.33c-.61-2.56.17-3.63,2.74-4,12.63-1.94,25.25-4,37.88-6C138,526.57,142.43,525.83,147.92,524.92Z" transform="translate(-59.33 -21.19)"/><path d="M877.9,514.08c16.88,2.17,33,4.27,49.21,6.29,3,.37,4.1,1.48,3.84,4.79-1,11.89-.81,11.81-12.78,10.15-14-1.94-28-3.78-42-5.44-3.23-.38-4.43-1.48-3.74-4.69a33.85,33.85,0,0,0,.85-6.42C873.3,515,874.27,512.71,877.9,514.08Z" transform="translate(-59.33 -21.19)"/><path d="M261.87,740.45a27.36,27.36,0,0,1-1.78,2.24q-17.94,18.46-35.88,36.92c-1.61,1.66-2.79,2-4.47.14a83.3,83.3,0,0,0-7.11-7c-1.84-1.57-1.35-2.58,0-4,12.1-12.39,24.14-24.85,36.31-37.18.7-.71,2.93-1,3.59-.47,2.94,2.44,5.57,5.25,8.29,8A11.1,11.1,0,0,1,261.87,740.45Z" transform="translate(-59.33 -21.19)"/><path d="M161.25,320.46a14.39,14.39,0,0,1-1.72,2.89c-6,6.48-12,12.86-18,19.33-1.75,1.9-2.76,2.28-3.45-.77-2-8.76-4.18-17.46-6.08-26.23a5.21,5.21,0,0,1,1.09-4c6-6.7,12.08-13.27,18.22-19.82,1.1-1.18,2.7-2.81,3.44.27C156.93,301.36,159,310.61,161.25,320.46Z" transform="translate(-59.33 -21.19)"/><path d="M357.05,345.32c12.33,0,24.67.09,37-.06,2.88,0,4.48,1,5.95,3.38,16.41,27,57,27.25,73.62.33,1.75-2.84,3.53-3.74,6.72-3.72q33,.2,66,0a6.52,6.52,0,0,1,6.35,3.55c16.77,26.81,56.63,26.91,73.32.13,1.76-2.83,3.56-3.7,6.74-3.69,25.33.12,50.66.06,76,.08,5.28,0,5.42,0,5.12,5.09-2.22,37.26-5.55,74.4-12.23,111.18-5.64,31-13.32,61.5-24.43,91-15.41,41-36.53,78.41-67.83,109.53-26.1,25.95-56.82,44.34-91.72,55.82a10.36,10.36,0,0,1-6.17-.12c-57.39-19.72-100.62-56.74-131.88-108.29-19.32-31.86-32.57-66.23-42.26-102.1-9.37-34.67-15-70-18.4-105.68-1.65-17.24-2.26-34.57-3.54-51.84-.28-3.84,1-4.8,4.68-4.73C332.39,345.46,344.72,345.32,357.05,345.32Zm1.59,7.44h-25c-11.55,0-11.8,0-10.65,11.84,2.48,25.42,4.91,50.85,8,76.2,3.53,28.91,10.41,57.17,19.1,84.92,6.7,21.4,14.84,42.28,25.46,62.17,14,26.28,30.8,50.41,52.43,71,24.41,23.27,52.31,40.77,84.42,51.36a7.2,7.2,0,0,0,3.72.51,75.33,75.33,0,0,0,9.46-3c17.64-7.06,34.55-15.59,50-26.6a235.16,235.16,0,0,0,53.19-52.68c17.5-23.73,30.72-49.67,41.27-77.06,11.74-30.48,19.44-62.08,25.08-94.17,3-17.14,5.1-34.45,7.08-51.75,1.81-15.78,2.87-31.64,4.36-47.45.38-4-.85-5.42-5.14-5.37-21.5.22-43,.18-64.49,0a7.48,7.48,0,0,0-7,3.61,43.55,43.55,0,0,1-23.35,17.12c-21.54,6.64-44.44,1.46-58.34-17.78a6.34,6.34,0,0,0-5.81-2.92q-29.25.15-58.49,0a6.63,6.63,0,0,0-6.15,3.17,46.42,46.42,0,0,1-23.69,17.54c-21.42,7-44.74,1.05-58.3-17.74-1.74-2.4-3.53-3-6.19-3C379.31,352.82,369,352.76,358.64,352.76Z" transform="translate(-59.33 -21.19)"/><path d="M646.59,673.89c-1.31,22.8-14.61,39.82-36.34,50.43-10.88,5.31-22.63,8.81-33.86,13.42-16,6.57-31.91,13.39-47.82,20.17a13.36,13.36,0,0,0-2.85,2.31,28.63,28.63,0,0,0,2.79,1.92c6.46,3.45,12.9,6.92,19.44,10.22,2.21,1.11,3.21,2.51,3.11,5-.13,3.32.14,6.66.15,10a15.53,15.53,0,0,1-.5,2.81,14.26,14.26,0,0,1-2.6-1.08c-9-6-18-12.08-27-18.06-9.56-6.34-7-6.3-16.27-.08q-15.77,10.54-31.4,21.31c-2,1.37-3.39,1.74-4.59-.89a41.44,41.44,0,0,0-2.88-4.67c-3.64-5.78-3.67-5.83,2.48-9.17,9.51-5.16,19.08-10.22,28.59-15.37a28.2,28.2,0,0,0,3.11-2.25,17.48,17.48,0,0,0-3.05-2.1c-20.44-8.48-40.8-17.17-61.41-25.24-12.43-4.86-25-9.17-35.35-18-13.09-11.19-20.29-25.27-21.22-42.5-.35-6.41.25-6.8,6.11-4.51,18.24,7.11,32.47,19.44,44.37,34.57,5.44,6.92,10,14.53,15.07,21.73a9.93,9.93,0,0,0,3.94,3.38c20.09,8.43,40.27,16.66,60.33,25.16a8.9,8.9,0,0,0,7.89,0c19.89-8.48,39.94-16.58,59.81-25.09,2.31-1,4.37-3.39,5.73-5.63,10.39-17.13,22.79-32.49,39.38-43.93,6-4.12,12.7-7.23,19.32-10.29C646.24,665.09,646.93,665.85,646.59,673.89Z" transform="translate(-59.33 -21.19)"/><path d="M375.3,208.76a74.75,74.75,0,0,1,7.46.55c4,.68,5.28,2.77,3.45,6.37a70.07,70.07,0,0,1-7,10.83c-2.52,3.29-5.52,6.21-8.32,9.28-4.46,4.89-8.74,10-13.45,14.62-9.73,9.62-20.79,16.89-34.64,19.44-4.65.86-9.07,3.08-13.5,4.9-3.38,1.39-4.13,1.16-4.21-2.48a41.23,41.23,0,0,1,5.49-21c10.33-18.72,24.61-33.08,45.58-39.39,2-.6,4.44-1.13,4.71-1.19,4-.93,7.44-1.48,9.88-1.82Z" transform="translate(-59.33 -21.19)"/><path d="M244.06,399.11c2.32-15.5,5.57-30.28,13.47-43.51,6.76-11.32,17.52-18.12,29.13-23.34,7.53-3.38,15.67-5.41,23.57-7.93,1-.33,2.26,0,3.39.05-.28,1.08-.48,2.2-.87,3.24-2.17,5.87-3.67,12.14-6.73,17.51-6.55,11.5-15,21.31-26.83,28.12a167.59,167.59,0,0,0-20.33,14.38c-3.18,2.53-5.37,6.28-8.09,9.41a25.09,25.09,0,0,1-3.62,3.42,9.89,9.89,0,0,1-2.63,1Z" transform="translate(-59.33 -21.19)"/><path d="M714.75,324.09c15.48,3.32,29.71,9.33,42.4,19,11.12,8.51,16.1,20.55,19.83,33.25,2.15,7.31,3.25,14.94,4.73,22.44a9.38,9.38,0,0,1-.3,2.76,9.44,9.44,0,0,1-2.64-1.08,21.79,21.79,0,0,1-4.27-4.18c-7.07-10.37-17.5-16.81-27.89-23-8.87-5.24-15.58-12.36-21.73-20.24-5.06-6.48-9.09-13.51-10.27-21.89-.22-1.57-1.32-3-2-4.52C711.5,324.38,712.38,323.65,714.75,324.09Z" transform="translate(-59.33 -21.19)"/><path d="M234.69,458.55a77.38,77.38,0,0,1,7-37.68c6.15-13.13,12.27-23.36,31.26-34,4.62-2.59,9.6-4.55,14.46-6.7a6.14,6.14,0,0,1,2.34,0,3.7,3.7,0,0,1-.39,1.34c-6.77,8.22-8.41,18.46-10.05,28.32A53.41,53.41,0,0,1,268,434.85c-8.68,10.92-17.31,21.88-26,32.75a33.93,33.93,0,0,1-4.33,3.86,50.72,50.72,0,0,1-1.1-5.71,8.21,8.21,0,0,0-.07-1.22,5.64,5.64,0,0,0-.34-1.19A43,43,0,0,1,234.69,458.55Z" transform="translate(-59.33 -21.19)"/><path d="M249.53,542.53c-9.44-20.82-10.33-42-4.23-63.5,3.44-12.13,9.45-22.71,21-29.12,4.15-2.31,6.93-1.61,7.73,3.07a123,123,0,0,1,1.53,21.21c-.06,13.12-5.17,24.93-10.7,36.52C259.86,521.2,254.77,531.65,249.53,542.53Z" transform="translate(-59.33 -21.19)"/><path d="M776.45,543.68c-7.28-15.92-14.42-31.11-21.19-46.46-5.52-12.53-5.86-25.84-4.82-39.25a18.73,18.73,0,0,1,.71-3.42c1.71-6.29,4.15-7.39,9.61-4,10.38,6.37,16.13,16.21,19.46,27.49,6,20.42,5.9,40.72-2.37,60.64A46.72,46.72,0,0,0,776.45,543.68Z" transform="translate(-59.33 -21.19)"/><path d="M818.67,533.21c-1.44,5.18-2.62,10.55-4.43,15.7-3.14,8.93-7.13,17.58-9.92,26.61-4,12.88-13,21.06-24.15,27.24-6,3.35-12.73,5.52-19.2,8-1,.38-2.39-.36-3.6-.59a10.7,10.7,0,0,1,1.3-3c8.33-9.44,11.18-21,12.65-33a15.52,15.52,0,0,1,4.17-9.26c10.68-11.43,21.55-22.66,34.45-31.68a47.55,47.55,0,0,1,4.16-2.75c1-.53,2.66-1.35,3-1C817.95,530.24,818.11,531.7,818.67,533.21Z" transform="translate(-59.33 -21.19)"/><path d="M207.39,532.69c.37-1.07.61-3,1.13-3a5.62,5.62,0,0,1,3.52,1c14.19,9.24,26.08,21.05,37.58,33.36A19.81,19.81,0,0,1,254.84,576c1.38,11.57,4.59,22.45,12.53,31.45.66.74.73,2,1.08,3-1.11.16-2.4.76-3.3.4-7-2.84-14.22-5.47-21-8.93-13-6.68-20.44-18-24.86-31.63-3.07-9.48-6.75-18.76-10-28.2C208.36,539.1,208,535.9,207.39,532.69Z" transform="translate(-59.33 -21.19)"/><path d="M355,718.91c-8-.64-16-1-23.85-2.07A25.08,25.08,0,0,1,321.6,713a177.88,177.88,0,0,1-32.52-27,8,8,0,0,1-1.92-2.27c-1-2.51-1.74-5.11-2.59-7.68a47,47,0,0,1,7,.31c13.55,2.59,27.1,5.21,40.58,8.12a16,16,0,0,1,7.17,3.83c10.78,10.08,23.06,17.94,35.83,25.15a26.78,26.78,0,0,1,3.66,3c-1.6.68-3.18,1.89-4.8,1.95-6.31.23-12.63.09-18.94.09Z" transform="translate(-59.33 -21.19)"/><path d="M765.39,310.89c-.74,3.6-1.92,9.43-3.18,15.23-.1.47-.8.82-1.22,1.23a5.38,5.38,0,0,1-.62-1.26c-3-14.92-12.7-25.74-22.62-36.28A24.65,24.65,0,0,1,731,277c-2.74-13.67-6.33-27.18-9.44-40.78a38.56,38.56,0,0,1-.92-8.86c0-2,1.38-3.13,3.32-1.45,3.13,2.71,6.47,5.27,9.19,8.36,9.32,10.57,19.33,20.71,24.35,34.33A118.34,118.34,0,0,1,765.39,310.89Z" transform="translate(-59.33 -21.19)"/><path d="M264.62,327.65c-3.49-6.78-4.3-13.93-4.06-21,.83-24,9.28-41.93,13.74-49.33,5.23-8.68,16.11-19.92,18.71-22.79,2.15-2.37,4-4.29,5.14-5.54,3.89.94,5.72,2.66,6.66,4.07,3.05,4.59-1,9-4.81,25.49-1.94,8.33-1.89,11.45-4.48,15.89-.56,1-2.06,3.38-4,7.11-1.57,3-2.12,4.32-2.9,5.84a44.41,44.41,0,0,1-7.65,10.4C277.71,301.31,272.6,309,264.62,327.65Z" transform="translate(-59.33 -21.19)"/><path d="M738.08,599.49c-.83,20.2-7.45,34.89-17.24,48.28-4.11,5.63-8.79,10.85-13.33,16.15-.64.75-1.92,1-2.91,1.41-.36-1-1-2.09-1-3.12.22-12.46-.1-25,1-37.38,1.56-17.76,7.14-34.14,20.32-47.05a23.34,23.34,0,0,1,2.61-2.31c1.93-1.39,3.71-.92,4.34,1.26C734.32,585.3,738.83,593.41,738.08,599.49Z" transform="translate(-59.33 -21.19)"/><path d="M321.5,650.25q-.19,4-.24,8.25,0,3.44,0,6.71c-1-.42-2.27-.57-2.93-1.28-13.79-14.95-25.71-31-29.39-51.68-1.79-10-1.37-19.86,3.09-29.26a19.16,19.16,0,0,0,1.09-3.31c1.63-6.11,2.85-6.51,7.31-2.29,19,18,20.29,43.36,20.29,43.36a93.24,93.24,0,0,1,.49,16.26Z" transform="translate(-59.33 -21.19)"/><path d="M744.75,593.75c-1.47-8-2.73-14.46-3.56-18.62-4-20.14-4.07-26.91-3.58-36.54a20.15,20.15,0,0,1,2.81-8.85c2.86-4.85,6.37-9.25,6.84-15.24.26-3.28,2.24-2.92,3.9-.82,10.39,13.17,17.57,27.44,14.91,44.94-1.34,8.84-2.27,17.78-4.26,26.47a40.75,40.75,0,0,1-11,19.26,20.11,20.11,0,0,1-4,2.52,34.63,34.63,0,0,1-1.69-4.4,15,15,0,0,1-.05-3.48Z" transform="translate(-59.33 -21.19)"/><path d="M288.65,546.63c-1.67,10.34-1.33,22.66-6.14,34.43-2.21,5.41-1.18,12.14-1.59,18.27-.09,1.33.23,2.74-.12,4a18.2,18.2,0,0,1-2,3.7c-1.1-.66-2.57-1.05-3.22-2-3.45-5.05-7.58-9.89-9.82-15.46a89,89,0,0,1-5.15-48.45c1.7-10.19,7.16-18.9,13.66-26.84.75-.92,2.1-1.35,3.17-2,.47,1.18,1,2.35,1.42,3.53,1.33,3.35,2,7.24,4.13,9.94C287.55,531.46,288.78,537.88,288.65,546.63Z" transform="translate(-59.33 -21.19)"/><path d="M340.08,277.23c1.85.35,5.29.88,8.68,1.66,2.81.65,3,2.59,1.3,4.44-7.78,8.39-15.44,16.91-23.65,24.87-4.56,4.42-10.5,6.64-16.91,8-12.53,2.62-25,5.57-35.91,13a5,5,0,0,1-1.65.4,10.6,10.6,0,0,1,.26-1.9c4.61-14.27,12.3-26.44,24-36.07C308.47,281.41,323.05,278.25,340.08,277.23Z" transform="translate(-59.33 -21.19)"/><path d="M753.9,330c-12.47-8.23-26.18-11.48-40.06-14.34-7.61-1.57-13.77-6-19.06-11.3-6.54-6.59-12.57-13.69-18.73-20.65-2.21-2.5-1.73-4.14,1.56-5a35.84,35.84,0,0,1,9.34-1.34c27.85.6,48.72,12.78,61.57,37.81,2,3.83,3.34,8,4.93,12A15.07,15.07,0,0,1,753.9,330Z" transform="translate(-59.33 -21.19)"/><path d="M796.05,471.52c1.69-16.87-2.2-32.72-5.89-48.54-1.38-5.91.43-11.23,2-16.57,1.79-6,4.34-11.86,6.37-17.84,2.18-6.44,4-13,6.25-19.43.59-1.73,1.95-3.19,3-4.78,1.18,1.53,2.67,2.91,3.45,4.62a32.1,32.1,0,0,1,2.14,7.15c1.93,9.94,4.56,19.84,5.4,29.88,1.32,16-3.71,30.87-10.78,45-2.67,5.35-5.74,10.5-8.71,15.69C798.3,468.4,797.12,469.93,796.05,471.52Z" transform="translate(-59.33 -21.19)"/><path d="M230.82,472c-.66-.42-1.21-.58-1.44-.94-12-19-20.79-39.43-22.12-55.49-.85-10.24-1.62-20.77,2.54-33.72a71.44,71.44,0,0,1,7.77-16.52c.67,2.17,1.89,5.92,3.7,10.48,4,10,6.7,13.67,10,22.92a64.39,64.39,0,0,1,3.38,11.42c1.45,8.4.69,16.8-1.65,25.52C229.86,447.4,228.72,459.52,230.82,472Z" transform="translate(-59.33 -21.19)"/><path d="M254.43,308.29c.5,7.46.86,14.93,1.53,22.37.72,8.09-.23,15.57-4,23.12-6.13,12.34-11.38,25.15-13.07,39.07a8.22,8.22,0,0,1-.62,1.74c-.7-.29-1.78-.38-2-.89-1.31-2.48-2.87-5-3.49-7.64-4-17.28-6.38-34.68-3.53-52.44,1.88-11.7,5.28-11,11.93-28.38A35.06,35.06,0,0,1,249,292.5a32,32,0,0,1,3.75-3.25,2.83,2.83,0,0,1,1.42,1.31,2.71,2.71,0,0,1,.2.77c.34,1.81.33,19,.32,21.14Z" transform="translate(-59.33 -21.19)"/><path d="M798.08,349.92c-2.53,18.51-4.58,32.06-5.16,36.52-.17,1.3-1.44,3.84-3,6.82-.32.63-1.25.94-1.9,1.4a6.72,6.72,0,0,1-1-1.92c-2.56-16.32-9.24-31.13-16.24-45.89-1.34-2.83-1.44-6.54-1.22-9.78.87-13.1,1.93-26.17,1.3-39.34-.15-3.09,1.37-6.26,2.12-9.4,2,2.27,4.65,4.24,6.06,6.85,11.16,20.68,17.69,38.11,18.5,45.3A88.1,88.1,0,0,1,798.08,349.92Z" transform="translate(-59.33 -21.19)"/><path d="M312.2,671.95c-9.1-2.8-18.8-5.73-28.47-8.77-23.34-7.33-34.8-26-44.16-46.57a45.19,45.19,0,0,1-2.62-8.55c-.26-1.11-.24-2,.25-2.38s1.77.06,2.36.36c7,3.52,15.16,10.32,15.16,10.32,9.22,7.65,14.48,2.5,23.28,10.64.73.67.49.52,7.5,9.75,7.28,9.58,10.92,14.38,11.75,15.25,6,6.32,10,8.28,16.17,16.55.81,1.09,1.45,2,1.85,2.59Z" transform="translate(-59.33 -21.19)"/><path d="M712.33,671.8l-1.89-1a14.21,14.21,0,0,1,1.86-2.18,81.06,81.06,0,0,0,22-26.78,8,8,0,0,0,1.07-2.24c1.22-8.18,7.26-11.35,13.94-14.52,12-5.69,23.7-12,35.55-18.09a31.5,31.5,0,0,1,3.58-1.33c0,1.42.44,3,0,4.24-6.13,19.21-16.11,36.26-33.25,47.17-9,5.75-20.28,8.09-30.61,11.71C720.73,670.12,716.57,670.77,712.33,671.8Z" transform="translate(-59.33 -21.19)"/><path d="M826,463.3c-1.87,30.55-10.55,57.38-34.79,77.18a16.12,16.12,0,0,1-2.71,2.18c-1.76.87-3.65,1.48-5.49,2.2.32-2.05.05-4.46,1.05-6.1,7.5-12.33,7.71-25.85,7.2-39.6a14.2,14.2,0,0,1,2-7.28c7.74-13.17,15.71-26.21,23.6-39.29a5,5,0,0,1,.74-1.29c1.57-1.33,3.19-2.6,4.79-3.89.87,1.84,2.15,3.61,2.51,5.54C825.58,456.54,825.71,460.22,826,463.3Z" transform="translate(-59.33 -21.19)"/><path d="M233.2,510.75c-.22,9.83,2.17,15.42,4.55,18.75,1.24,1.74,4.72,6,5,12a16.64,16.64,0,0,1-.07,2.39,76.79,76.79,0,0,1-17.27-13A80.16,80.16,0,0,1,209,506.56c-2.72-5.86-7.94-16.45-8.85-38.7-.23-5.59.56-11.24,1.16-16.83.14-1.27,1.42-2.41,2.17-3.61,1.31.87,3.11,1.45,3.86,2.67,4.34,7.1,8.28,11.21,12.87,21.88,5.91,13.74,6.34,11.88,8.79,19.28A92.49,92.49,0,0,1,233.2,510.75Z" transform="translate(-59.33 -21.19)"/><path d="M696.17,639.12c-1.07,12.21-2.19,24.39-8.64,34.74A72.18,72.18,0,0,1,671.8,691c-7.17,5.84-15.39,10.4-23.22,15.4-.87.55-2.19.39-3.3.56.27-1.06.46-2.14.82-3.16,4.28-12.06,8.15-24.28,13-36.11,6.42-15.73,17.27-28.33,30.12-39.24,3-2.58,5.12-2,6,1.93A67,67,0,0,1,696.17,639.12Z" transform="translate(-59.33 -21.19)"/><path d="M333.08,626.21a33.46,33.46,0,0,1,3.43,2.19c17.36,14.81,30.2,32.47,35.64,55.1,1.62,6.73,4.81,13.08,7.23,19.62.47,1.26.7,2.61,1,3.92-1.41-.36-3-.38-4.2-1.13-7.93-5.15-15.94-10.2-23.58-15.75-15.19-11-20.71-27.11-22.4-44.91a83.18,83.18,0,0,1,.24-14.37C330.61,629.35,332.09,627.92,333.08,626.21Z" transform="translate(-59.33 -21.19)"/><path d="M359.15,729.22c11.23-1.34,22.44-2.81,33.69-3.9a11.57,11.57,0,0,1,6.79,1.7c11.49,7.27,24.38,10.42,37.41,13.28a57.91,57.91,0,0,1,6.28,2.12c-1.89,1.46-3.57,3.58-5.7,4.28-17.37,5.67-34.64,12-53.48,7a76.75,76.75,0,0,1-36.33-21.72,11.77,11.77,0,0,1-1.41-2.46,14.07,14.07,0,0,1,2.72-.6c3.33-.07,6.66,0,10,0Z" transform="translate(-59.33 -21.19)"/><path d="M625.88,755.71c-13.64-2-27.24-4.33-40-10-1.35-.6-2.26-2.18-3.38-3.3a24.24,24.24,0,0,1,4.29-1.8c14.33-3,28.66-6,40.91-14.84,1-.75,2.83-.79,4.24-.68,15.07,1.2,30.13,2.49,45.19,3.78a11.5,11.5,0,0,1,2.21.64,15.11,15.11,0,0,1-1.72,2.81c-11.78,12.27-25.94,20.05-42.85,22.62q-3,.45-5.94.74C627.89,755.79,626.88,755.71,625.88,755.71Z" transform="translate(-59.33 -21.19)"/><path d="M362.79,369c6.33,0,12.67-.21,19,.12a9.71,9.71,0,0,1,6,2.55c19.72,20.36,43.57,25,70,17.82,10.25-2.79,19.71-8.1,26.75-16.59,2.58-3.11,5.57-4.06,9.56-4,13,.23,26,.17,39,0,3.23,0,5.71.73,7.9,3.2a56.83,56.83,0,0,0,35.23,19.1c14.2,2,28.41,2,41.86-4.82,7.66-3.91,14.68-8.35,20.48-14.79a9.07,9.07,0,0,1,6-2.52c13.33-.22,26.66-.13,40-.09,4.72,0,5.1.34,4.53,5.26-2.44,21.09-4.34,42.26-7.69,63.21-3.4,21.28-7.65,42.47-12.64,63.43a366.21,366.21,0,0,1-22.31,64.36c-11.39,25.52-25.84,49.06-44.16,70.13a191.88,191.88,0,0,1-50.34,41.17c-9.51,5.4-19.58,9.81-29.4,14.66a16.5,16.5,0,0,1-14.44.45,230.77,230.77,0,0,1-60.55-37,218.89,218.89,0,0,1-32.79-35.41,267.08,267.08,0,0,1-28.13-45.79,347.19,347.19,0,0,1-17.24-42.89c-6.26-19.58-11.49-39.52-16.27-59.52-5.8-24.23-8.88-49-11.08-73.77-.73-8.25-1.14-16.55-2.19-24.76-.43-3.37.9-3.62,3.44-3.6C349.79,369,356.29,369,362.79,369Zm2.42,7.29c-10.55-.69-3.18,0-11,0-6.62,0-6.93.28-6.22,6.64,1.23,11,2.68,22.06,3.81,33.11a467.84,467.84,0,0,0,14,75.77c5.15,18.87,11.42,37.48,18.13,55.86,11.27,30.88,28.37,58.42,50.23,83a201.1,201.1,0,0,0,68.29,49.89c14.68,6.63,10,6.65,24.88.12a195.36,195.36,0,0,0,68.18-49.2c19.14-21.47,34.06-45.83,45.39-72.29a434.67,434.67,0,0,0,26-83.51c2.58-12.5,5.31-25,7.08-37.64,2.66-19,4.35-38.19,6.86-57.24.53-4-.71-4.57-4-4.52-7.66.11-15.36.48-23-.1-6.74-.51-12,1.17-15.95,6.72a10.77,10.77,0,0,1-3,2.63c-12.28,7.87-24.9,14.74-40.24,13.84-7.46-.43-15.17.54-22.38-1-13.51-2.84-25.62-9-35.35-19.24a10,10,0,0,0-6.45-2.73q-17.48-.39-35,0a11.49,11.49,0,0,0-6,2.55c-4.23,3.17-7.89,7.19-12.34,10-13.48,8.48-28.29,11.53-44.26,11.07s-30.78-5.15-42.13-15.58a27.93,27.93,0,0,0-10.35-6.54C378.19,377.1,373.87,376.82,365.21,376.25Z" transform="translate(-59.33 -21.19)"/><path d="M662.23,452.2c-4.12,17.2-8,33.5-12,49.76-1.43,5.79-3.17,11.53-5.11,17.17a8.61,8.61,0,0,1-3.58,4.35c-17.26,9.7-34.62,19.2-51.93,28.81-5,2.78-5.08,2.92-7.67-1.95-6.1-11.45-12.08-23-18.12-34.46-.62-1.18-1.27-2.34-1.93-3.5-4.27-7.5-4.2-7.38,3.69-11.52q46-24.12,91.83-48.39a7.47,7.47,0,0,1,2.2-1.12C660.32,451.27,661.06,451.79,662.23,452.2Z" transform="translate(-59.33 -21.19)"/><path d="M469,500.84q-4.81,19.09-9.65,38.17c-.29,1.12-.86,2.16-1.26,3.26-2.64,7.24-2.71,7.45-9.7,4.83-12.92-4.85-25.72-10-38.6-15-6.82-2.62-13.67-5.2-20.61-7.47-2.81-.92-4.51-2.23-5.29-5.15-3.13-11.67-6.54-23.27-9.61-35-2-7.7-3.69-15.49-5.39-23.26a33,33,0,0,1-.32-5.26,43.66,43.66,0,0,1,4.65,1.52c17.11,7.74,34.07,15.82,51.33,23.2,12.82,5.49,26,10,39,15.15C465.64,496.77,468.68,497.15,469,500.84Z" transform="translate(-59.33 -21.19)"/><path d="M550.5,567.13a4.23,4.23,0,0,1-2.5.38c-1.45-.24-2.22-1.23-4.25-3.67-3.45-4.15-2.31-2.63-4.33-5.17-1.67-2.1-1.84-2.37-3.35-4.27-.85-1.07-2.07-2.55-4.48-5.48-1.85-2.25-3.91-4.32-5.63-6.66a33.27,33.27,0,0,0-2.45-2.59c-.92-.93-1.44-1.4-2.09-1.35a2.08,2.08,0,0,0-1.41,1c.61-.43,1.42-1,1.41-1a2,2,0,0,0-1.41,1c-.28.89.95,2,1.75,2.72,2.19,2,4,4.48,6,6.67.39.41,1.6,1.87,4,4.75,7.37,8.69,2.47,3.12,6,7.25,2.39,2.84,3,3.43,3.36,4.85.43,1.66.56,4.54-1.12,5.78s-4.23.18-5.61-.38c-2.53-1-3.18-2.15-10-9.17-4.29-4.38-3.93-3.84-4.92-5s-2-1.93-2.92-3-1.53-1.8-2.45-1.75a1.92,1.92,0,0,0-1.19.58,7.57,7.57,0,0,0,.81,1.8,8.24,8.24,0,0,0,2,2.17l3.71,3.62c2.15,2.1,1.74,1.92,4.12,4.29,1.2,1.2,2.22,2.15,3.75,3.83a9.65,9.65,0,0,1,2.08,2.84c.38.91,1.11,2.63.3,4-1,1.68-3.74,1.81-4,1.82h-.14a7.17,7.17,0,0,1-2.87-.58c-.81-.33-.62-.4-1.77-1s-1.62-.63-2.46-1.08a8.64,8.64,0,0,1-2.17-1.75c-2.63-2.69-3.94-4-4.75-5a58,58,0,0,0-4.75-5.17c-.71-.68-1.67-1.55-2.33-1.26-.49.21-.62,1-.67,1.42.44.6,1.15,1.55,2.08,2.67,2.17,2.61,3.73,4,6.33,6.58,1,1,2.49,2.54,4.25,4.5.1.25.72,1.86,0,2.85-.85,1.14-3.38,1.32-5.65-.5-.9-.84-2.09-2-3.51-3.25-2.67-2.44-4-3.65-5-4.44a46.92,46.92,0,0,1-4.65-4,21.76,21.76,0,0,1-1.79-2l-.3-.42c-1-1.42-1.09-1.63-1.53-2.16a9.07,9.07,0,0,0-1.23-1.22,4.57,4.57,0,0,0-1.71-1.06c-.31-.09-.27,0-.93-.18a10.47,10.47,0,0,1-1.39-.41,46.51,46.51,0,0,1-4.85-2.35c-2.94-1.46-4.92-2.31-5.67-2.66-6.4-3-13.64-6.35-15.74-11.74-1.07-2.75.53-2.59,2.77-14.13,1.42-7.3,4.26-14.35,5-21.75.06-.62.23-2.59,1.5-3.25a2.7,2.7,0,0,1,1.75-.12c2.28.33,4.37.7,5.93,2.28a6.49,6.49,0,0,1,1.63,3.63c.31,1.84,3.6,3.83,5.91,4.54a20.41,20.41,0,0,0,14.64-.89,32.89,32.89,0,0,1,4.66-.22c6.1.15,13.31,8.14,18,13.28,7.63,8.4,14.11,17.85,22.25,25.75,2.09,2,7.52,7.17,6.53,11.37A5.5,5.5,0,0,1,550.5,567.13Z" transform="translate(-59.33 -21.19)"/><path d="M489.66,429.72c0-6.49.1-13,0-19.48-.07-3.07.7-4.47,4.17-4.43q19.22.25,38.45-.06c3.66-.06,4.45,1.41,4.42,4.71q-.2,19,0,38c0,3.65-.87,5.36-5,5.27-12.48-.25-25-.19-37.45,0-3.58.06-4.6-1.11-4.49-4.53.21-6.49.06-13,.06-19.48Z" transform="translate(-59.33 -21.19)"/><path d="M503.41,499c11.53,3.13,23.32,4.34,32.42,12.76,4.43,4.1,9.4,6.89,15.86,4.57a3.45,3.45,0,0,1,3.11,1.16q7.42,13.85,14.42,27.91a3.28,3.28,0,0,1-.92,3.07c-4.48,2.52-9.06,4.89-13.75,7-.64.28-2.35-1.12-3.18-2.08-6.34-7.29-21.81-25.57-29-33.54A40.75,40.75,0,0,0,510,511a12.83,12.83,0,0,0-7.75-1.25c-1.94.38-1.89,1-4.25,1.75-.48.16-5.92,1.87-11-.5a6.2,6.2,0,0,1-3-2.5c-.12-.2-1.21-2.16-.43-3.31.6-.89,2-.81,3.2-.86s4.3-1.14,10.3-3C499.26,500.63,501.39,499.76,503.41,499Z" transform="translate(-59.33 -21.19)"/><path d="M471.63,618.63a4.3,4.3,0,0,1-3.83-2.74,2.86,2.86,0,0,1,.54-2.77c.47-.43,1.31-.53,2.75-.2a14.57,14.57,0,0,0,7.76-.57c.56-.2,4.78-1.54,5.18-4.33a3.34,3.34,0,0,0-.16-1.52,1.43,1.43,0,0,0-.59-.54,1.71,1.71,0,0,0-1.08,0c-2,.3-3.88,1-5.82,1.08-5.89.11-9.9-2.87-11.13-8a12.17,12.17,0,0,1,5.69-13.69c10.28-5.72,21.83-.13,22.8,11.5.14,1.72,1.75,10.91-5.08,17.4S472.35,618.8,471.63,618.63Zm12.38-28a8.15,8.15,0,0,0-4.88-1.31,5.59,5.59,0,0,0-3.09.94,6.16,6.16,0,0,0-2.23,5.44,5.66,5.66,0,0,0,1.31,3.68c1.84,2.06,4.69,1.87,5.4,1.82a6,6,0,0,0,3.73-1.33C486.13,598.08,486.18,594.24,484,590.63Z" transform="translate(-59.33 -21.19)"/><path d="M535.93,593.46c0-9.47,0-9.47,9.45-9.46,4,0,8,.07,12,0,2.32,0,3.71.38,3.65,3.25-.05,2.64-1.37,3-3.44,3-3.32,0-6.65,0-10,0-2.09,0-3.44.46-3.51,3-.08,2.8,1.62,2.81,3.55,2.84a33.26,33.26,0,0,1,4,.21c6.28.84,9.7,3.87,10.3,9,.67,5.79-1.84,11-7.68,12.36-5.31,1.2-11.08.63-16.63.33-2.28-.12-3.77-5.05-2.28-6.86.36-.44,1-.3,2.46-.06,6.28,1,7.85,1.23,9.49,1.15,1.81-.08,3.54-.18,4.77-1.47a5.29,5.29,0,0,0,1.3-3.31c.1-3.06-2-4.6-4.65-4.9a35.63,35.63,0,0,0-8.83,0c-2.78.4-4.12-.09-3.93-3.13C536,597.46,535.93,595.46,535.93,593.46Z" transform="translate(-59.33 -21.19)"/><path d="M520.15,478.41c0,6.16-.07,12.32,0,18.48,0,2.31-.75,2.71-3,2.34-10.59-1.79-10.62-1.73-10.6-12.46,0-8.66.18-17.32.06-26,0-3.48,1.26-4.61,4.7-4.5,10.29.34,8.72-1.34,8.81,8.62,0,4.5,0,9,0,13.49Z" transform="translate(-59.33 -21.19)"/><path d="M556.45,428.61c0,6.15,0,12.3,0,18.45,0,1.64.07,3.54-.7,4.85s-2.55,3-4,3.06-3.33-1.44-4-2.78a14.38,14.38,0,0,1-1.27-6.26c-.15-12.3-.19-24.59-.17-36.89,0-4,1.68-5.68,5.22-5.74s5,1.6,5.05,5.86c.1,6.48,0,13,0,19.44Z" transform="translate(-59.33 -21.19)"/><path d="M480.17,429.2c0,6.48.09,13-.06,19.44a10.42,10.42,0,0,1-1.3,5.16,3.83,3.83,0,0,1-6.87-.28,14.48,14.48,0,0,1-1.49-6.19q-.33-18.93-.3-37.87c0-3.94,1.81-5.77,5.26-5.73,3.61,0,4.88,2.2,4.86,5.54,0,6.65,0,13.29,0,19.94Z" transform="translate(-59.33 -21.19)"/><path d="M508.11,624.57c1.19,0,3.08-.08,5.39-.19,5.94-.29,7.15-.59,8.84.31a9,9,0,0,1,3.84,4.77,11.76,11.76,0,0,1,.66,5.72c-.9,5.46-7.44,11.63-14.46,10.08-5.8-1.28-8.48-7.06-9.13-10.62-.27-1.47-.9-4.92,1.25-7.62A7.65,7.65,0,0,1,508.11,624.57Z" transform="translate(-59.33 -21.19)"/><path d="M449.38,598c0,3.08.24,6.17.13,9.25-.1,2.77-.31,4.55.75,5.25.38.25.59.15,3.34.28,2.26.11,2.83.22,3.15.67.19.26.2.5.13,2s-.11,2.53-.15,2.62c-.7,1.48-3.85.56-10.46.88-2.21.11-4.44-.06-6.64.12-1.57.13-2.93.32-3.85-.54a3.8,3.8,0,0,1-.9-2.46c-.08-.7-.29-2.53.68-3.21.52-.37.89,0,2.46-.12s2.41-.11,3.06-.73,1-1.85.87-3.42c-.17-2.65,0-5.32,0-8,0-2.88-.06-4.33-.71-5.17a5.17,5.17,0,0,0-3.69-1.7c-1-.28-2.92-1-3-2.1,0-.28,0-.94,3.78-3.45a46.24,46.24,0,0,1,5.13-3c3.09-1.54,4.65-2.3,5.38-1.76.53.39.57,1.81.62,4.63,0,1.56,0,2.5,0,2.5S449.37,593.14,449.38,598Z" transform="translate(-59.33 -21.19)"/><path d="M487,430.44c0,5.83.1,11.67-.08,17.49,0,1.2-1,3.11-1.78,3.37-2.06.68-2.18-1.5-2.19-3.44q-.08-18.24-.15-36.49c0-1.79.1-3.76,1.94-3.15.82.27,1.86,2.08,1.9,3.24.18,6.32.09,12.66.09,19Z" transform="translate(-59.33 -21.19)"/><path d="M539.08,430.44c0,5.83-.1,11.67.08,17.49,0,1.2,1,3.11,1.78,3.37,2.06.68,2.18-1.5,2.19-3.44q.08-18.24.15-36.49c0-1.79-.1-3.76-1.94-3.15-.82.27-1.86,2.08-1.9,3.24-.18,6.32-.09,12.66-.09,19Z" transform="translate(-59.33 -21.19)"/><path d="M578,548.1c0,.4,0,1.52-.6,1.88-.79.45-2.31-.47-2.69-1.09-2.08-3.4-4-6.93-5.83-10.45-4.44-8.37-8.79-16.79-13.27-25.14a3.8,3.8,0,0,1-.74-2.62,1.92,1.92,0,0,1,1.39-1.44c.18,0,.64,0,1.57.78a7.49,7.49,0,0,1,1.75,2.25c2.28,5,5.16,9.75,7.51,14.75,3.91,8.32,5,8.72,7.49,13.75C576.14,543.85,577.3,546.42,578,548.1Z" transform="translate(-59.33 -21.19)"/><path d="M494.84,567.54a2.55,2.55,0,0,1,.53,1.77c-.08.57-.41,1-2,2.37a14,14,0,0,1-2.32,1.8c-2.31.78-6.28-1.52-6.74-4.72a6.06,6.06,0,0,1,1.38-4.33,4.88,4.88,0,0,1,2.85-2.16,3.47,3.47,0,0,1,2.09.16,3.66,3.66,0,0,1,1.19.87,9,9,0,0,1,1.44,2.06A15.72,15.72,0,0,0,494.84,567.54Z" transform="translate(-59.33 -21.19)"/><path d="M477.13,557.31a2.3,2.3,0,0,1,.88-.12,4,4,0,0,1,1.81.81c1,.55,1,.35,1.81.81a4.4,4.4,0,0,1,2.09,1.93c.44,1.09-.09,2.21-.71,3.51-.73,1.54-1.31,2.74-2.39,3.11-2.29.78-6.56-2.3-6.34-5.81C474.43,559.06,476.77,557.54,477.13,557.31Z" transform="translate(-59.33 -21.19)"/><path d="M466.5,551.31c-1.29.39-1.68,2.42-1.72,2.66-.54,3.06,2,6.89,4.41,6.86,1.15,0,2.05-.88,3.19-2s2.07-2,1.94-2.94-1.07-1-4.32-3C467.84,551.62,467.29,551.08,466.5,551.31Z" transform="translate(-59.33 -21.19)"/><path d="M497.88,571.25c-.69,0-1.19.42-2.06,1.13a8.48,8.48,0,0,0-1.75,2,3.1,3.1,0,0,0-.69,1.31c-.07.94.81,1.68,1.6,2.35a4.55,4.55,0,0,0,2.71,1.4,6.42,6.42,0,0,0,2.39-.5l.12-.05c.83-.36,2.78-1.6,2.8-3,0-.57-.87-1.39-2.62-3C498.84,571.46,498.4,571.24,497.88,571.25Z" transform="translate(-59.33 -21.19)"/><path d="M540.38,560" transform="translate(-59.33 -21.19)"/><path d="M597.62,614.38a14.78,14.78,0,0,1-.38,2.62,4.57,4.57,0,0,1-.12.62c-.54,1.13-3.36.59-6.87.45-1.06-.05.12,0-6.75.18-1.61,0-3.36,0-6.88,0-3.89,0-4.72-.06-5.37-.75-1.16-1.23-.83-3.61-.2-5.16,1.21-3,3.64-3.09,9.07-8.22a23.45,23.45,0,0,0,1.88-1.87c3-3.47,5.44-9.21,3.62-11.25-1.48-1.67-6.06-1.09-9.74-.62-1.34.16-2.69.42-3.5-.38a3.23,3.23,0,0,1-.13-3.92,2.33,2.33,0,0,1,.87-.7c5.3-2.63,8.88-2.63,8.88-2.63,2.51,0,6.46,0,9.21,2.71,3.38,3.32,3.56,9.36,1.79,13.29-1.08,2.39-3.58,5.22-8.59,10.9a4.23,4.23,0,0,0-.37.44c-.33.46-.61,1-.92,1.46a9.34,9.34,0,0,0,1.65.56c1.89.45,2.77,0,5.23-.09a35.51,35.51,0,0,1,5.75.23,5.16,5.16,0,0,1,.83.6A3.07,3.07,0,0,1,597.62,614.38Z" transform="translate(-59.33 -21.19)"/><path d="M531.33,295.18a3.63,3.63,0,0,1,1.75,3.07c-.15,1.29-1.52,2.17-3.22,3a34.07,34.07,0,0,1-11.85,3.1,91.15,91.15,0,0,1-12.3,0c-.45,0-3.12-.38-8.46-1.08s-8.17-1.1-9.36-3a4.08,4.08,0,0,1-.62-2.94,3.42,3.42,0,0,1,1.75-2.38c1.52-.7,3.36.36,4.25.82,1.72.89,5.17,1.45,12.06,2.56a34.61,34.61,0,0,0,11.51.35C524.66,297.38,528.27,293.18,531.33,295.18Z" transform="translate(-59.33 -21.19)"/><path class="cls-1" d="M962.73,468.44c3,248.65-193.78,454-446,458.41C265.4,928.88,64.36,730,59.42,483.4c-5-251.28,191.8-454.26,436.86-462C752.26,13.36,959.73,216.45,962.73,468.44Zm-7.67,8C956.42,228.72,759.27,29.1,512,28.75,263.35,28.39,69.29,227.26,66.89,469c-2.48,248.59,195.65,448.75,443.9,450.37C756.86,917.9,953.71,722,955.06,476.4Z" transform="translate(-59.33 -21.19)"/><path d="M720.62,268.14a25.1,25.1,0,0,1,.24,5c-.18,2.31-1.22,3.37-3.62,1.93-6.1-3.68-13.15-4.35-19.77-6.4a65.79,65.79,0,0,1-29.9-19.14c-3.86-4.32-7.86-8.53-11.69-12.88q-6.76-7.65-13.32-15.49a18,18,0,0,1-2.48-4.3c-2.23-5-1-7.18,4.37-7.7,2.15-.21,4.32,0,6.49,0,23.53.21,41.5,11.21,55.86,29.1C713.9,247,719.16,256.71,720.62,268.14Z" transform="translate(-59.33 -21.19)"/><path d="M737.85,675.42c3.46-.7,4.61.43,3.37,3.67a18.68,18.68,0,0,1-3.88,6.3c-10.46,10.75-21.55,20.82-34.59,28.39A29.71,29.71,0,0,1,692,717.09c-7.25.95-14.58,1.27-21.88,1.86l-19.44-.72-3.61-2a20.76,20.76,0,0,1,2.91-2.42c13.69-7.65,26.86-16,38.06-27.15a9,9,0,0,1,4.38-2Q715.1,679.95,737.85,675.42Z" transform="translate(-59.33 -21.19)"/><path d="M532.67,273l-45-.27,24.46-27.17Z" transform="translate(-59.33 -21.19)"/><path class="cls-1" d="M462.28,263.75a9.64,9.64,0,0,1-2.07,6.34c-4.53,6.34-14.65,5.45-15.55,5.36-1.61-.16-2.61-.22-3.59-.38-7.59-1.19-10.93-8.25-6.27-14.2,4.23-5.4,7.64-9.16,11.85-12,2.06-1.38,2.68-1.55,3.31-1.55,2.15,0,3.17,1.95,9.25,10.5C461.29,260.76,462.12,261.85,462.28,263.75ZM455,268.08a4.61,4.61,0,0,0,.58-2.57,5.82,5.82,0,0,0-2.41-3.92,8.68,8.68,0,0,0-3.48-1.79,10.41,10.41,0,0,0-2.87-.4,7.07,7.07,0,0,0-4.9.94c-.2.13-3.36,2.21-3,5.4.27,2.84,3,4.36,4,4.78,2.1.9,4.86.8,7.23.45A6.39,6.39,0,0,0,455,268.08Z" transform="translate(-59.33 -21.19)"/><path class="cls-1" d="M591.3,263.75a9.65,9.65,0,0,1-2.06,6.34c-4.53,6.34-14.65,5.45-15.55,5.36-1.61-.16-2.61-.22-3.59-.38-7.59-1.19-10.93-8.25-6.27-14.2,4.23-5.4,7.64-9.16,11.85-12,2.06-1.38,2.68-1.55,3.31-1.55,2.15,0,3.17,1.95,9.25,10.5C590.32,260.76,591.14,261.85,591.3,263.75Zm-7.23,4.33a4.7,4.7,0,0,0,.58-2.57,5.86,5.86,0,0,0-2.41-3.92,8.68,8.68,0,0,0-3.48-1.79,10.5,10.5,0,0,0-2.87-.4,7.07,7.07,0,0,0-4.9.94c-.2.13-3.36,2.21-3,5.4.27,2.84,3,4.36,4,4.78,2.1.9,4.85.8,7.23.45A6.4,6.4,0,0,0,584.07,268.08Z" transform="translate(-59.33 -21.19)"/><path d="M522.25,616.64s.16,2.27-.76,3.28c-.62.69-1.67,1-3.34,1.08-11.77.42-11.75.54-11.78-10.81,0-8.41-.11-16.82-.18-25.23,0-2.09-.37-3.64,3.16-2.5,2.85.92,6.48.46,9.51-.32,1.37-.35,2.21-.51,2.68-.15.71.54.53,1.82.5,2.15C521.77,586.65,521.9,599.07,522.25,616.64Z" transform="translate(-59.33 -21.19)"/><path class="cls-1" d="M847.89,407.08c7.46,37.18,9.25,74.55,3.68,112.28C841.23,589.3,813.32,651,766.26,703.83,725,750.12,674.49,782.4,615.59,801.71A351,351,0,0,1,514,818.93c-24,.57-47.9-2.59-71.41-7.57a344.81,344.81,0,0,1-123-51.86Q242,707.11,201.63,622.67c-16.16-33.55-26.2-68.9-31.47-105.81-5.89-41.21-2.92-81.81,6.72-122a343.67,343.67,0,0,1,75.77-147.35C291,203.38,337.87,171.44,392.54,151a323.72,323.72,0,0,1,85.37-19.83c11.11-1,22.23-1.92,29.53-2.55,42.22,1.27,79.65,7.49,116,20.16a342.77,342.77,0,0,1,129,80.48,337.83,337.83,0,0,1,69.37,98.86A350.33,350.33,0,0,1,847.89,407.08ZM847.41,479c0-4,.14-8,0-12a349.67,349.67,0,0,0-23-113c-20.73-53.88-52.89-99.78-97.11-137.08-58.58-49.4-126.6-74.84-202.64-80.14-20.94-1.46-41.57,1-62.18,4.05a333.53,333.53,0,0,0-113.32,38.47c-29.9,16.6-57,37-80.45,61.89q-69.83,74.11-88.31,174.36c-5.37,29.29-7.71,58.7-4.27,88.49,4.32,37.48,13.58,73.57,29,108.06a330.08,330.08,0,0,0,70.1,101.29c34.43,34,74.35,59.94,120.06,76.3,45,16.1,91.13,24.79,139.22,20.58A347.88,347.88,0,0,0,633.83,787c52.28-20.88,96.93-52.61,133.22-95.84A335.77,335.77,0,0,0,827.52,585.6,356.67,356.67,0,0,0,847.41,479Z" transform="translate(-59.33 -21.19)"/><path d="M786.51,429.86q1.62,15.39,3.26,30.79c-.14,2.15-.19,4.32-.45,6.47a39,39,0,0,1-1,4.19,25.16,25.16,0,0,1-3.73-2.94c-2.08-2.37-3.93-4.95-5.89-7.43-5.89-7.41-11.63-15-17.72-22.2-7.53-8.93-13.33-18.44-14.85-30.44-.85-6.69-3.5-13.15-5.46-19.68a22.73,22.73,0,0,0-2.18-4.46c-.79-1.39-1.72-2.7-2.59-4a33.09,33.09,0,0,1,5.5,1.27c14.86,6.14,28,14.54,37.29,28.14a47,47,0,0,1,4.64,8.58A115.72,115.72,0,0,1,786.51,429.86Z" transform="translate(-59.33 -21.19)"/><path class="cls-1" d="M588.07,278.23c3.6-.07,3.92,1,2.41,3.93-8.93,17.37-22.57,29.86-40.4,38-3.91,1.79-8.14,2.89-12.1,4.59-1.42.6-3.35,1.92-3.5,3.11-.33,2.57-1.29,5.71,1.87,7.57,2.14,1.26,4.34,2.43,6.47,3.72a6.1,6.1,0,0,1,1.21,1.31l-1.26.48h0c-3.44.13-15.17.54-31.14.44-8.06-.05-17.73-.24-28.74-.72l-.7-.07c-.69-.13-1.39-.41-2.09-.58a12.36,12.36,0,0,1,2.13-1.66c2.53-1.24,5.07-2.5,7.71-3.49,2.83-1.06,3.48-3,3.48-5.78,0-3.16-2.32-3.13-4.33-3.68-24.49-6.65-43.33-20.37-55.08-42.9-2.13-4.07-2.05-4.15,2.68-4.18,6.32,0,12.66.08,19-.05a5.1,5.1,0,0,1,5.15,2.78c5.13,8.3,14.47,8.38,19.73.15,1.49-2.32,3-2.94,5.61-2.93q23.73.15,47.46,0a5.72,5.72,0,0,1,5.58,3c5.24,8.17,14.46,8,19.71-.34,1.23-1.95,2.42-2.71,4.69-2.68C571.75,278.36,579.91,278.41,588.07,278.23Zm-7.37,9.48c1.68-2.55,1.79-3.84-1.79-3.76-4,.08-8-.21-12,.1a6.65,6.65,0,0,0-4.48,2.28c-5.69,8.35-20.69,8.77-26.49.34-1.64-2.4-3.75-2.83-6.4-2.81-12.82.1-25.65.19-38.46,0a9.63,9.63,0,0,0-8.13,3.51c-6.36,7.08-17.59,7.83-23.39.83-4.59-5.53-9.93-4-15.33-4.1-.46,0-1.53,1.85-1.29,2.43a18.12,18.12,0,0,0,2.71,4.16c16.79,21.87,39.46,31.73,62,32.65,21.1,0,36.4-4.64,50.34-13.44A74.72,74.72,0,0,0,580.7,287.71Z" transform="translate(-59.33 -21.19)"/><path class="cls-1" d="M755,126.76c8.71,6.17,8.65,6.15,5.6,16.42q-6.36,21.49-12.57,43c-1.55,5.34-1.53,5.35-6.2,2.1-.95-.67-1.89-1.36-2.85-2-5.76-4-5.85-4-3.72-10.82.75-2.37.11-3.66-1.88-4.92a90.78,90.78,0,0,1-9-6.33c-2.56-2.1-4.69-2.06-6.8.4-1.46,1.69-2.9,2.7-4.45,2.75-1,0-1.21-.35-4.21-2-3.72-2.12-4.85-2.25-6.94-4.08a18.8,18.8,0,0,1-1.75-1.75c3.55-2.94,6.49-5.34,8.54-7,22.15-17.94,32.48-23.89,37.74-27.74a35.16,35.16,0,0,1,3-1.81C751.45,124.28,753.21,125.51,755,126.76Zm-13.69,31.73q2.93-8.4,5.84-16.81l-.91-.6c-4.47,3.66-8.91,7.35-13.4,11-.83.67-1.14,1.26-1.09,1.79.1.82,1.55,1.55,1.55,1.55s5.23,3.73,7.24,3.73a.8.8,0,0,0,.58-.19A.88.88,0,0,0,741.28,158.49Z" transform="translate(-59.33 -21.19)"/></svg>