<?xml version="1.0" encoding="UTF-8" standalone="no"?>
<svg xmlns:rdf="http://www.w3.org/1999/02/22-rdf-syntax-ns#" xmlns="http://www.w3.org/2000/svg" xml:space="preserve" height="194.44" viewBox="0 0 200.04375 194.43938" width="200.04" version="1.1" xmlns:cc="http://creativecommons.org/ns#" xmlns:dc="http://purl.org/dc/elements/1.1/"><g transform="matrix(1.25 0 0 -1.25 -99.097 290.66)"><g><path d="m116.54 1.293l-114.38 139.46h193.06v-139.46l-78.68 0.003zm73.66 149.82v16.31c0 3.68 2.03 5.52 6.08 5.52h2.75v-3.52h-2.28c-1.23 0-1.85-0.62-1.85-1.87v-7.65h4.2v-3.24h-4.2v-5.55h-4.7zm-134.82 5.52c-3.925 0-5.887 1.71-5.887 5.12v6.07c0 3.41 1.962 5.12 5.887 5.12h8.945v-2.44h-8.945c-2.019 0-3.026-0.91-3.026-2.73v-1.97h12.516v-4.04c0-3.42-1.971-5.13-5.92-5.13h-3.57zm-53.227 0.03v2.48h8.4338c2.017 0 3.023 0.91 3.023 2.73v1.23h-7.8064c-3.1906 0-4.7852 1.21-4.7852 3.62v2.38c0 1.27 0.385 2.23 1.1563 2.87 0.7694 0.65 1.9808 0.97 3.6289 0.97h10.67v-11.17c0-3.41-1.962-5.11-5.887-5.11h-8.4338zm18.352 0v16.28h2.939v-11.1c0-0.96 0.202-1.64 0.61-2.07 0.404-0.42 1.117-0.63 2.138-0.63h3.178c0.757 0 1.346 0.2 1.764 0.62 0.42 0.41 0.631 1.09 0.631 2.04v11.14h2.898v-11.14c0-0.95 0.219-1.63 0.65-2.04 0.43-0.42 1.024-0.62 1.784-0.62h3.531c1.569 0 2.351 0.89 2.351 2.66v11.14h2.946v-11.3c0-3.32-1.519-4.98-4.553-4.98h-2.941c-1.097 0-2.022 0.18-2.766 0.53-0.746 0.35-1.285 0.96-1.627 1.85-0.577-1.59-1.871-2.38-3.883-2.38h-2.67c-1.124 0-2.005 0.15-2.644 0.44-0.643 0.3-1.149 0.82-1.512 1.56v-2h-2.824zm48.011 0v16.28h2.944v-11.1c0-0.96 0.202-1.64 0.607-2.07 0.405-0.42 1.121-0.63 2.141-0.63h5.412v-2.48h-4.117c-1.13 0-2.008 0.15-2.651 0.44-0.64 0.3-1.141 0.82-1.507 1.56v-2h-2.829zm14.323 0v16.28h2.98v-16.28h-2.98zm12.707 0c-3.922 0-5.885 1.76-5.885 5.27v5.9c0 3.41 1.962 5.11 5.885 5.11h7.139v-2.44h-7.061c-2.013 0-3.022-0.91-3.022-2.73v-5.74c0-1.93 1.009-2.89 3.022-2.89h6.981v-2.48h-7.059zm11.499 0v2.48h8.43c2.01 0 3.02 0.91 3.02 2.73v1.23h-7.81c-3.19 0-4.78 1.21-4.78 3.62v2.38c0 1.27 0.39 2.23 1.15 2.87 0.78 0.65 1.98 0.97 3.63 0.97h10.67v-11.17c0-3.41-1.96-5.11-5.88-5.11h-8.43zm31.07 0c-4.26 0-6.39 1.81-6.39 5.43v5.43c0 3.61 2.13 5.42 6.39 5.42h8.98v-3.84h-8.98c-1.23 0-1.84-0.56-1.84-1.68v-1.14h11.37v-4.19c0-3.62-2.13-5.43-6.39-5.43h-3.14zm14.11 0v3.88h8.43c1.26 0 1.88 0.56 1.88 1.67v0.93h-6.39c-3.43 0-5.14 1.26-5.14 3.81v1.58c0 2.94 1.7 4.41 5.1 4.41h10.91v-10.85c0-3.62-2.12-5.43-6.36-5.43h-8.43zm24.23 0c-2.03 0-3.54 0.38-4.53 1.13-0.98 0.75-1.47 1.96-1.47 3.63v0.89c0 1.4 0.49 2.4 1.47 3.01 0.99 0.61 2.46 0.92 4.42 0.92h4.63c0.99 0 1.48 0.38 1.48 1.15v0.57c0 0.76-0.49 1.14-1.48 1.14h-10v3.84h10.15c3.88 0 5.81-1.61 5.81-4.82v-1.05c0-1.33-0.5-2.31-1.49-2.94-0.99-0.62-2.43-0.93-4.32-0.93h-4.74c-1.02 0-1.53-0.41-1.53-1.24v-0.28c0-0.77 0.47-1.14 1.41-1.14h9.69v-3.88h-9.5zm-121.08 2.32h3.607c2.04 0 3.059 0.91 3.059 2.73v2h-9.692v-2c0-1.82 1.007-2.73 3.026-2.73zm82.735 1.3h3.22c1.25 0 1.88 0.57 1.88 1.71v1.34h-6.94v-1.34c0-1.14 0.61-1.71 1.84-1.71zm-132.08 4.92h7.572v5.46h-7.572c-1.5169 0-2.2735-0.63-2.2735-1.87v-1.66c0-1.29 0.7566-1.93 2.2735-1.93zm104.89 0h7.57v5.46h-7.57c-1.52 0-2.27-0.63-2.27-1.87v-1.66c0-1.29 0.75-1.93 2.27-1.93zm45.85 0.85h5.76v3.31h-5.76c-0.94 0-1.41-0.37-1.41-1.12v-0.95c0-0.82 0.47-1.24 1.41-1.24z" transform="matrix(.8 0 0 -.8 79.278 232.53)" fill="#1d2247"/><path d="m122.98 10.578l-96.052 119.01h43.744l11.32-13.94h63.418v13.94h38.46v-119.01l-60.89-0.002zm-97.49 172.25l-2.041 1.89v6.74l2.041 1.9h4.721l2.152-2-1.689-1.57-1.531 1.42h-2.584l-0.639-0.59v-5.05l0.639-0.59h2.47l0.639 0.59v1.11h2.473v-1.96l-2.041-1.89h-4.61zm15.627 0l-2.217 1.87v6.79l2.217 1.87h4.737l2.216-1.87v-6.79l-2.216-1.87h-4.737zm13.985 0v10.53h2.472v-6.01l4.02 6.01h2.217v-10.53h-2.471v5.97l-4.022-5.97h-2.216zm16.203 0v10.53h2.47v-4h4.723v-2.15h-4.723v-2.23h5.393v-2.15h-7.863zm14.795 0v10.53h7.863v-2.15h-5.393v-2.27h4.723v-2.15h-4.723v-1.81h5.393v-2.15h-7.863zm14.85 0v10.53h2.47v-3.92h0.21l4.5 4.29 1.77-1.61-2.88-2.68h0.85l1.77-1.63v-3.35l-1.77-1.63h-6.92zm15.99 0v10.53h7.87v-2.15h-5.39v-2.27h4.72v-2.15h-4.72v-1.81h5.39v-2.15h-7.87zm33 0l-2.04 1.89v6.74l2.04 1.9h4.72l2.15-2-1.69-1.57-1.53 1.42h-2.59l-0.63-0.59v-5.05l0.63-0.59h2.48l0.64 0.59v1.11h2.47v-1.96l-2.05-1.89h-4.6zm13.94 0v10.53h7.87v-2.15h-5.39v-2.27h4.72v-2.15h-4.72v-1.81h5.39v-2.15h-7.87zm-31.93 0.02v10.54h2.47v-6.01l4.02 6.01h2.22v-10.54h-2.48v5.97l-4.02-5.97h-2.21zm-89.845 2.13h2.76l0.735 0.62v4.99l-0.735 0.62h-2.76l-0.732-0.62v-4.99l0.732-0.62zm61.315 0h3.18l0.57 0.55v1.21l-0.57 0.55h-3.18v-2.31z" transform="matrix(.8 0 0 -.8 79.278 232.53)" fill="#32b7e6"/><path d="m154 26.162l-12.12 14.926h41.99v-14.926h-29.87zm-23.61 29.074l-12.12 14.926h65.6v-14.926h-53.48zm-23.61 29.078l-12.126 14.922h89.216v-14.922h-77.09z" transform="matrix(.8 0 0 -.8 79.278 232.53)" fill="#fff"/></g></g></svg>
