<?xml version="1.0" encoding="UTF-8" standalone="no"?>
<!-- Created with Inkscape (http://www.inkscape.org/) -->
<svg id="svg2888" xmlns="http://www.w3.org/2000/svg" height="28" width="32" version="1.0" xmlns:xlink="http://www.w3.org/1999/xlink">
 <defs id="defs2890">
  <linearGradient id="linearGradient2857" y2="208.05" gradientUnits="userSpaceOnUse" x2="518.01" gradientTransform="matrix(.085272 0 0 .10276 -12.908 -15.824)" y1="454.18" x1="184.32">
   <stop id="stop6776" stop-color="#87aade" offset="0"/>
   <stop id="stop6778" stop-color="#fff" offset="1"/>
  </linearGradient>
  <filter id="filter3819">
   <feGaussianBlur id="feGaussianBlur3821" stdDeviation="0.65873891"/>
  </filter>
 </defs>
 <g id="layer1" fill-rule="evenodd" transform="translate(0,-4)">
  <path id="path2385-2" d="m6.8297 15.566l0.8082-8.1653 5.8691-0.8355s-0.381 2.4439 0.99 3.3898c0.727 0.501 1.512 0.456 2.4 0.0251 1.534-0.7441 1.411-2.9303 1.411-2.9303l4.91-0.0616 0.387 8.8718s4.358-1.011 5.298 0.294c0.94 1.304 0.867 3.573 0 4.992s-5.298 1.468-5.298 1.468l1.593 8.422-7.166-0.594s1.582-2.075 0.074-3.309c-1.357-1.11-2.92-0.407-4.246 0.179-2.046 0.906-0.651 4.046-0.651 4.046l-7.5454-0.242 0.2832-7.621s-2.2994 1.671-3.311 0.588c-1.0117-1.083-1.3287-5.419-0.4415-7.049 0.8871-1.629 4.6354-1.468 4.6354-1.468zm5.4673-1.251c0.045-1.391 1.156-2.452 2.592-2.413 1.527 0.041 2.503 1.174 2.532 2.639 0.031 1.538-1.325 1.964-1.325 1.964l1.961 7.71-5.278 0.13 0.806-7.884c-0.595-0.15-1.333-0.759-1.288-2.146z" filter="url(#filter3819)"/>
  <path id="path2385" stroke-linejoin="round" d="m8.2139 14.807l0.8082-8.1654 5.8689-0.8355s-0.381 2.4439 0.991 3.3898c0.727 0.5014 1.511 0.4556 2.399 0.0251 1.534-0.7441 1.411-2.9303 1.411-2.9303l4.91-0.0616 0.388 8.8719s4.446-2.439 5.387-1.135c0.94 1.304 0.777 5.002-0.09 6.421s-5.297 1.468-5.297 1.468l1.592 8.422-7.166-0.594s1.582-2.075 0.074-3.309c-1.356-1.11-2.92-0.408-4.245 0.179-2.047 0.906-0.652 4.046-0.652 4.046l-7.5452-0.242 0.2832-7.621s-2.2994 1.67-3.311 0.588c-1.0117-1.083-1.3287-5.419-0.4415-7.049 0.8871-1.629 4.6354-1.468 4.6354-1.468zm5.4671-1.251c0.045-1.391 1.156-2.452 2.592-2.413 1.527 0.041 2.503 1.174 2.532 2.639 0.031 1.538-1.324 1.963-1.324 1.963l1.96 7.711-5.278 0.13 0.806-7.884c-0.595-0.15-1.332-0.76-1.288-2.146z" stroke="#718fba" stroke-width=".5" fill="url(#linearGradient2857)"/>
 </g>
</svg>
